<svg width="98" height="40" viewBox="0 0 98 40" fill="none" xmlns="http://www.w3.org/2000/svg"><g clip-path="url(#clip0_171_288)"><g clip-path="url(#clip1_171_288)"><path fill-rule="evenodd" clip-rule="evenodd" d="M46.339 21.5a2.255 2.255 0 0 1 2.26 2.25 2.255 2.255 0 0 1-2.26 2.25 2.255 2.255 0 0 1-2.26-2.25 2.255 2.255 0 0 1 2.26-2.25Z" fill="#76B82A"/><path d="M94.562 26h2.637v-6.75c0-2.9-2.362-5.25-5.275-5.25-1.575 0-2.989.688-3.956 1.777A5.272 5.272 0 0 0 84.014 14c-2.913 0-5.274 2.35-5.274 5.25V26h2.637v-6.75l.001-.09a2.632 2.632 0 0 1 2.636-2.535 2.631 2.631 0 0 1 2.637 2.625V26h2.637v-6.75l.002-.09a2.632 2.632 0 0 1 2.635-2.535 2.631 2.631 0 0 1 2.638 2.625V26Z" class="gv-mode-color" fill="#3C3C3C"/><path fill-rule="evenodd" clip-rule="evenodd" d="M64.046 20c0-3.314 2.698-6 6.027-6 3.33 0 6.028 2.686 6.028 6s-2.699 6-6.028 6c-3.329 0-6.027-2.686-6.027-6Zm2.637 0a3.383 3.383 0 0 0 3.39 3.375A3.383 3.383 0 0 0 73.464 20a3.383 3.383 0 0 0-3.39-3.375A3.383 3.383 0 0 0 66.682 20Z" class="gv-mode-color" fill="#3C3C3C"/><path d="M57.27 23.375A3.383 3.383 0 0 1 53.878 20a3.383 3.383 0 0 1 3.39-3.375c.969 0 1.84.406 2.458 1.054l1.864-1.856A6.02 6.02 0 0 0 57.27 14c-3.329 0-6.027 2.686-6.027 6s2.698 6 6.027 6a6.02 6.02 0 0 0 4.322-1.823l-1.864-1.856a3.386 3.386 0 0 1-2.458 1.054Z" class="gv-mode-color" fill="#3C3C3C"/><path fill-rule="evenodd" clip-rule="evenodd" d="M41.441 20c0-3.314-2.699-6-6.028-6-3.329 0-6.027 2.686-6.027 6s2.698 6 6.027 6a6.03 6.03 0 0 0 5.51-3.563h-3.165a3.388 3.388 0 0 1-2.345.938 3.39 3.39 0 0 1-3.257-2.437h9.212a6.04 6.04 0 0 0 .073-.938Zm-9.225-1.125a3.39 3.39 0 0 1 3.197-2.25 3.39 3.39 0 0 1 3.198 2.25h-6.395Z" class="gv-mode-color" fill="#3C3C3C"/><path d="M26.747 19.882C26.684 16.622 24.01 14 20.721 14c-3.33 0-6.028 2.686-6.028 6v6h2.637v-6l.001-.1a3.383 3.383 0 0 1 3.39-3.275A3.383 3.383 0 0 1 24.11 20v6h2.637v-6.118Z" class="gv-mode-color" fill="#3C3C3C"/><path fill-rule="evenodd" clip-rule="evenodd" d="M12.056 20c0-3.314-2.7-6-6.028-6C2.698 14 0 16.686 0 20s2.699 6 6.028 6c3.329 0 6.028-2.686 6.028-6Zm-9.419 0a3.383 3.383 0 0 1 3.39-3.375A3.383 3.383 0 0 1 9.419 20a3.383 3.383 0 0 1-3.39 3.375A3.383 3.383 0 0 1 2.638 20Z" class="gv-mode-color" fill="#3C3C3C"/></g></g><defs><clipPath id="clip0_171_288"><path fill="#fff" d="M0 0h220v40H0z"/></clipPath><clipPath id="clip1_171_288"><path fill="#fff" d="M0 14h97.199v12H0z"/></clipPath></defs></svg>