<svg width="20" height="20" viewBox="0 0 20 20" fill="none" xmlns="http://www.w3.org/2000/svg">
<mask id="path-1-outside-1_5563_35" maskUnits="userSpaceOnUse" x="0.870117" y="1.49951" width="18" height="18" fill="black">
<rect fill="white" x="0.870117" y="1.49951" width="18" height="18"/>
<path fill-rule="evenodd" clip-rule="evenodd" d="M10.9639 2.49951H9.0435L8.73779 4.12769C7.43645 4.39386 6.28645 5.06201 5.43027 5.993L3.83183 5.43691L2.87163 7.0608L4.1623 8.13292C3.96532 8.72071 3.8588 9.34847 3.8588 10.0005C3.8588 10.6517 3.96504 11.2787 4.16152 11.8658L2.87012 12.9385L3.83032 14.5624L5.42871 14.0063C6.28495 14.9381 7.43539 15.6069 8.73734 15.8733L9.04286 17.5005H10.9633L11.2687 15.8737C12.5717 15.6076 13.723 14.9385 14.5798 14.006L16.1759 14.5613L17.1361 12.9375L15.8465 11.8662C16.0431 11.279 16.1494 10.6519 16.1494 10.0005C16.1494 9.34855 16.0429 8.72087 15.846 8.13315L17.1354 7.06207L16.1752 5.43818L14.5785 5.99366C13.7221 5.06213 12.5716 4.39365 11.2696 4.12753L10.9639 2.49951ZM9.99984 14.9999C12.7613 14.9999 14.9998 12.7613 14.9998 9.99992C14.9998 7.23849 12.7613 4.99992 9.99984 4.99992C7.23841 4.99992 4.99984 7.23849 4.99984 9.99992C4.99984 12.7613 7.23841 14.9999 9.99984 14.9999Z"/>
</mask>
<path fill-rule="evenodd" clip-rule="evenodd" d="M10.9639 2.49951H9.0435L8.73779 4.12769C7.43645 4.39386 6.28645 5.06201 5.43027 5.993L3.83183 5.43691L2.87163 7.0608L4.1623 8.13292C3.96532 8.72071 3.8588 9.34847 3.8588 10.0005C3.8588 10.6517 3.96504 11.2787 4.16152 11.8658L2.87012 12.9385L3.83032 14.5624L5.42871 14.0063C6.28495 14.9381 7.43539 15.6069 8.73734 15.8733L9.04286 17.5005H10.9633L11.2687 15.8737C12.5717 15.6076 13.723 14.9385 14.5798 14.006L16.1759 14.5613L17.1361 12.9375L15.8465 11.8662C16.0431 11.279 16.1494 10.6519 16.1494 10.0005C16.1494 9.34855 16.0429 8.72087 15.846 8.13315L17.1354 7.06207L16.1752 5.43818L14.5785 5.99366C13.7221 5.06213 12.5716 4.39365 11.2696 4.12753L10.9639 2.49951ZM9.99984 14.9999C12.7613 14.9999 14.9998 12.7613 14.9998 9.99992C14.9998 7.23849 12.7613 4.99992 9.99984 4.99992C7.23841 4.99992 4.99984 7.23849 4.99984 9.99992C4.99984 12.7613 7.23841 14.9999 9.99984 14.9999Z" fill="#E85E0F"/>
<path d="M9.0435 2.49951V1.49951H8.21379L8.06068 2.31497L9.0435 2.49951ZM10.9639 2.49951L11.9467 2.31497L11.7936 1.49951H10.9639V2.49951ZM8.73779 4.12769L8.93818 5.10741L9.5966 4.97274L9.72062 4.31223L8.73779 4.12769ZM5.43027 5.993L5.10169 6.93748L5.72186 7.15323L6.16633 6.66991L5.43027 5.993ZM3.83183 5.43691L4.16041 4.49243L3.38754 4.22355L2.97105 4.92793L3.83183 5.43691ZM2.87163 7.0608L2.01085 6.55183L1.57706 7.28545L2.23265 7.83003L2.87163 7.0608ZM4.1623 8.13292L5.11047 8.45067L5.32809 7.8013L4.80127 7.36369L4.1623 8.13292ZM4.16152 11.8658L4.8005 12.635L5.32707 12.1976L5.10983 11.5485L4.16152 11.8658ZM2.87012 12.9385L2.23114 12.1693L1.57555 12.7139L2.00934 13.4475L2.87012 12.9385ZM3.83032 14.5624L2.96954 15.0714L3.38603 15.7758L4.1589 15.5069L3.83032 14.5624ZM5.42871 14.0063L6.16503 13.3297L5.72055 12.846L5.10013 13.0619L5.42871 14.0063ZM8.73734 15.8733L9.72016 15.6887L9.59615 15.0283L8.9378 14.8936L8.73734 15.8733ZM9.04286 17.5005L8.06003 17.685L8.21315 18.5005H9.04286V17.5005ZM10.9633 17.5005V18.5005H11.793L11.9461 17.685L10.9633 17.5005ZM11.2687 15.8737L11.0686 14.8939L10.4099 15.0285L10.2859 15.6892L11.2687 15.8737ZM14.5798 14.006L14.9083 13.0616L14.2879 12.8457L13.8434 13.3295L14.5798 14.006ZM16.1759 14.5613L15.8473 15.5058L16.6202 15.7747L17.0367 15.0703L16.1759 14.5613ZM17.1361 12.9375L17.9969 13.4464L18.4307 12.7128L17.7751 12.1682L17.1361 12.9375ZM15.8465 11.8662L14.8982 11.5488L14.6809 12.198L15.2075 12.6355L15.8465 11.8662ZM15.846 8.13315L15.207 7.36392L14.6802 7.80151L14.8978 8.45086L15.846 8.13315ZM17.1354 7.06207L17.7744 7.8313L18.43 7.28672L17.9962 6.5531L17.1354 7.06207ZM16.1752 5.43818L17.036 4.9292L16.6195 4.22482L15.8466 4.4937L16.1752 5.43818ZM14.5785 5.99366L13.8424 6.67046L14.2868 7.15392L14.9071 6.93813L14.5785 5.99366ZM11.2696 4.12753L10.2868 4.31206L10.4108 4.97267L11.0693 5.10727L11.2696 4.12753ZM9.0435 3.49951H10.9639V1.49951H9.0435V3.49951ZM9.72062 4.31223L10.0263 2.68405L8.06068 2.31497L7.75497 3.94315L9.72062 4.31223ZM6.16633 6.66991C6.88243 5.89124 7.84597 5.3308 8.93818 5.10741L8.53741 3.14797C7.02693 3.45692 5.69046 4.23278 4.6942 5.31609L6.16633 6.66991ZM3.50325 6.38138L5.10169 6.93748L5.75885 5.04853L4.16041 4.49243L3.50325 6.38138ZM3.73241 7.56978L4.69261 5.94588L2.97105 4.92793L2.01085 6.55183L3.73241 7.56978ZM4.80127 7.36369L3.5106 6.29157L2.23265 7.83003L3.52333 8.90215L4.80127 7.36369ZM4.8588 10.0005C4.8588 9.45808 4.94731 8.93755 5.11047 8.45067L3.21412 7.81517C2.98333 8.50386 2.8588 9.23886 2.8588 10.0005H4.8588ZM5.10983 11.5485C4.94708 11.0621 4.8588 10.5423 4.8588 10.0005H2.8588C2.8588 10.7612 2.983 11.4952 3.21321 12.1832L5.10983 11.5485ZM3.50909 13.7078L4.8005 12.635L3.52255 11.0966L2.23114 12.1693L3.50909 13.7078ZM4.6911 14.0535L3.7309 12.4296L2.00934 13.4475L2.96954 15.0714L4.6911 14.0535ZM5.10013 13.0619L3.50174 13.618L4.1589 15.5069L5.75729 14.9508L5.10013 13.0619ZM8.9378 14.8936C7.84508 14.67 6.88118 14.109 6.16503 13.3297L4.69239 14.683C5.68872 15.7672 7.02569 16.5438 8.53687 16.853L8.9378 14.8936ZM10.0257 17.3159L9.72016 15.6887L7.75451 16.0578L8.06003 17.685L10.0257 17.3159ZM10.9633 16.5005H9.04286V18.5005H10.9633V16.5005ZM10.2859 15.6892L9.98044 17.3159L11.9461 17.685L12.2515 16.0582L10.2859 15.6892ZM13.8434 13.3295C13.1268 14.1093 12.1622 14.6706 11.0686 14.8939L11.4688 16.8535C12.9812 16.5446 14.3192 15.7676 15.3161 14.6826L13.8434 13.3295ZM16.5045 13.6169L14.9083 13.0616L14.2512 14.9505L15.8473 15.5058L16.5045 13.6169ZM16.2753 12.4285L15.3151 14.0524L17.0367 15.0703L17.9969 13.4464L16.2753 12.4285ZM15.2075 12.6355L16.4971 13.7067L17.7751 12.1682L16.4855 11.097L15.2075 12.6355ZM15.1494 10.0005C15.1494 10.5424 15.0611 11.0624 14.8982 11.5488L16.7948 12.1837C17.0251 11.4956 17.1494 10.7614 17.1494 10.0005H15.1494ZM14.8978 8.45086C15.0609 8.93768 15.1494 9.45815 15.1494 10.0005H17.1494C17.1494 9.23896 17.0249 8.50406 16.7942 7.81544L14.8978 8.45086ZM16.4964 6.29284L15.207 7.36392L16.4849 8.90238L17.7744 7.8313L16.4964 6.29284ZM15.3144 5.94715L16.2746 7.57105L17.9962 6.5531L17.036 4.9292L15.3144 5.94715ZM14.9071 6.93813L16.5038 6.38265L15.8466 4.4937L14.2499 5.04918L14.9071 6.93813ZM11.0693 5.10727C12.1621 5.33062 13.1261 5.89134 13.8424 6.67046L15.3147 5.31685C14.3181 4.23292 12.9811 3.45667 11.4698 3.14778L11.0693 5.10727ZM9.98108 2.68405L10.2868 4.31206L12.2524 3.94299L11.9467 2.31497L9.98108 2.68405ZM13.9998 9.99992C13.9998 12.2091 12.209 13.9999 9.99984 13.9999V15.9999C13.3135 15.9999 15.9998 13.3136 15.9998 9.99992H13.9998ZM9.99984 5.99992C12.209 5.99992 13.9998 7.79078 13.9998 9.99992H15.9998C15.9998 6.68621 13.3135 3.99992 9.99984 3.99992V5.99992ZM5.99984 9.99992C5.99984 7.79078 7.7907 5.99992 9.99984 5.99992V3.99992C6.68613 3.99992 3.99984 6.68621 3.99984 9.99992H5.99984ZM9.99984 13.9999C7.7907 13.9999 5.99984 12.2091 5.99984 9.99992H3.99984C3.99984 13.3136 6.68613 15.9999 9.99984 15.9999V13.9999Z" fill="#E85E0F" mask="url(#path-1-outside-1_5563_35)"/>
</svg>
