<?xml version="1.0" encoding="UTF-8"?>
<!DOCTYPE svg PUBLIC "-//W3C//DTD SVG 1.1//EN" "http://www.w3.org/Graphics/SVG/1.1/DTD/svg11.dtd">
<!-- Creator: CorelDRAW 2021 (64-Bit) -->
<svg xmlns="http://www.w3.org/2000/svg" xml:space="preserve" width="2.75591in" height="2.75591in" version="1.1" style="shape-rendering:geometricPrecision; text-rendering:geometricPrecision; image-rendering:optimizeQuality; fill-rule:evenodd; clip-rule:evenodd"
viewBox="0 0 2755.91 2755.91"
 xmlns:xlink="http://www.w3.org/1999/xlink"
 xmlns:xodm="http://www.corel.com/coreldraw/odm/2003">
 <defs>
  <style type="text/css">
   <![CDATA[
    .fil0 {fill:#231F20}
    .fil2 {fill:#EE1D23}
    .fil1 {fill:#231F20;fill-rule:nonzero}
   ]]>
  </style>
 </defs>
 <g id="Layer_x0020_1">
  <metadata id="CorelCorpID_0Corel-Layer"/>
  <g id="_2287717932688">
   <path class="fil0" d="M1566.7 522.15c9.89,2.3 11.12,3.28 19.22,7.49 2.72,1.41 8.7,7.03 18.02,3.15 10.34,-2.76 6.97,-2.39 10.47,-13.47 11.78,-37.27 13.81,-25.59 21.45,-58.35 9.49,3.15 4.39,25.39 3.16,35.07 -5.33,42.22 -14.85,42.96 12.34,55.83 9.66,4.57 16.22,4.86 29.72,4.86 5.28,-22.68 31.59,-56.83 47.88,-61.19 -11.75,50.43 -39.65,68.06 -12.19,81.35 26.17,12.67 25.32,-1.59 41.03,-39.2l22.43 -46.74c12.38,-32.39 18.84,-36.92 7.91,-46.43 -5.85,-5.09 -37.89,-23.47 -45.89,-23.47 -16.58,0 -17.78,13.53 -36.45,35.37 -5.63,6.58 -10.09,14.4 -15.15,22.09 -2.93,4.44 -4.56,7.62 -7.35,11.27 -6.03,7.85 -0.82,3.44 -10.21,8.41l6.74 -87.87c0.26,-21.07 -6.21,-18.56 -22.99,-23.56 -12.47,-3.72 -23.65,-8.28 -39.61,-8.28 -7.03,10.5 -10.41,19.01 -14.21,33.83l-12.93 34.54c-2.52,6.06 -4.59,11.57 -7.02,17.18 -3.07,7.07 -3.77,10.41 -5.72,18.21 -4.51,18 -10.66,18.27 -10.66,39.88z"/>
   <path class="fil0" d="M1284.73 2267.22c-17.05,-0.38 -12.94,-8.21 -13.3,7.98l-7.98 0c-1.11,-10.09 1.5,-7.81 -10.64,-10.64l-5.71 7.66c5.46,5.67 3.13,5.41 13.69,5.64 -2.26,8.46 -15.96,22.66 -15.96,29.26 0,25.28 -2.3,46.2 44.11,62.3l72.94 14.85c0,13.55 2.39,11.11 -6.55,17.39 -20.22,14.22 -56.04,0.28 -68.02,-12 -35.15,-36.03 -69.39,13.58 -15.61,42.21 36.44,19.4 84.53,27.33 117.51,-4.31 29.78,-28.58 34.74,-55.46 -4.67,-76.79 -13.69,-7.4 -5.79,-3.63 -27.13,-7.08 -13,-2.1 -24.61,-5.37 -40.07,-7.99 -27.35,-4.64 -22.77,-11.2 -27.28,-20.6 12.48,-8.36 21.9,-25.74 57.83,0.69 11.7,8.61 15.53,15.27 35.28,15.27 5.95,0 18.62,-8.73 18.62,-13.3 0,-28.76 -61.46,-64.37 -109.79,-57.35 -10.5,1.53 -5.45,-6.24 -7.26,6.81z"/>
   <path class="fil0" d="M728.75 578.02c2.83,10.58 14.83,23.26 21.87,31.33 6.87,7.87 72.09,86.96 73.89,93.7 20.43,-0.46 32.87,-23.85 58.89,-44.85l55.49 -50.92c-1.34,-5.76 -14.57,-37.63 -34.85,-21.56 -51.9,41.11 -58.98,70.87 -79.53,40.18 11.84,-22.39 9.81,-10.92 36.19,-35.64l12.87 -11.06c29.35,-22.05 7.96,-35.76 -6.5,-35.76 -6.35,0 -44.02,33.44 -54.09,41.78 -0.45,0.37 -0.98,0.94 -1.45,1.3l-3.16 2.44c-12.36,7.07 -22.17,-2.33 -12.83,-12.91l36.67 -32.88c0.42,-0.35 1.01,-0.87 1.43,-1.22 11.73,-9.86 19.66,-12.5 28.1,-25.1 -2.17,-8.15 -14.39,-21.99 -21.28,-26.6 -13.85,3.22 -72.2,54.05 -84.75,64.22 -7.02,5.69 -22.72,17.21 -26.98,23.57z"/>
   <path class="fil0" d="M1800.8 2195.4c0,41.16 18.69,55.33 60.86,47.56l57.57 -19.15c8.82,-1.18 10.45,1.63 17.24,6.17 -12.54,53.81 -67.24,34.58 -77.15,34.58 -9.64,0 -14.85,2.23 -21.28,5.32 -11.53,49.48 44.49,48.34 75.1,32.53 0.54,-0.28 1.21,-0.63 1.76,-0.9l17.73 -8.87c30.15,-17.46 54.25,-40.43 42.8,-77.69 -3.7,-12.04 -13.21,-22.99 -24.33,-28.89 -18.42,-9.78 -40.57,-0.82 -61.83,7.37 -22.28,8.58 -51.24,23 -51.24,-0.69 0,-12.59 19.41,-20.05 29.22,-24.06 28.37,-11.6 15.69,2.78 45.27,2.78 0.05,0 37.94,-9.54 11.46,-35.41 -18.04,-17.63 -33.13,-14.28 -58.35,-6.16 -13.54,4.35 -7.06,0.48 -18.6,8l-18.26 13.68c-0.1,0.09 -6.21,4.46 -6.29,4.52 -8.53,5.39 -16.22,13.39 -19.46,22.11 -0.33,0.91 -2.24,12.49 -2.24,17.2z"/>
   <path class="fil0" d="M1135.76 445.01c0,23.49 4.07,39.91 23.23,56.57 26.99,23.48 67.74,27.23 100.8,14.26 11.89,-4.66 14.43,-9.4 24.94,-14.96 10.37,6.94 6.23,13.3 21.28,13.3 16.24,0 4.09,-33.83 6.47,-54.77 1.3,-11.48 0.42,-18.88 -3.81,-27.7l-79.81 0c-2.25,9.66 -6.81,14.63 -2.63,23.71 6.18,13.44 15.92,8.21 39.88,8.21l0 10.64c-4.72,1.26 -29.32,24.05 -59.28,8.73 -0.53,-0.27 -1.19,-0.67 -1.72,-0.94 -0.53,-0.28 -1.21,-0.64 -1.73,-0.93 -0.71,-0.39 -2.8,-1.43 -3.48,-1.85 -3.34,-2.03 -1.6,-0.01 -6.07,-4.57 -37,-37.73 7.06,-74.93 19.07,-74.93 59.56,0 29.75,5.86 51.94,14.59 12.27,4.82 24.32,2.11 33.19,1.37 4.33,-16.33 3.91,-36.41 -12.43,-43.43 -32.21,-13.84 -93.93,-16.26 -122.65,12.09 -9.72,9.59 -21.47,24.8 -24.93,38.91 -1.65,6.7 -2.25,12.3 -2.25,21.69z"/>
   <path class="fil0" d="M2245.05 1642.08c0,12.24 -4.72,7.46 12.59,16.67 24.81,13.2 60.48,24.61 87.8,31.9 17.48,4.67 15.96,12.61 43.25,12.61 15.93,0 32.78,-80.58 36.19,-94.16 4.31,-17.16 24.39,-54.81 -14.91,-54.81 -13.61,0 -14.54,22.52 -17.91,32.64 -9.66,29.06 -9.55,56.5 -19.33,71.11 -10.5,-0.87 -12.47,-2.66 -26.6,-2.66 -4.85,-20.25 2.17,-34 11.35,-57.82 4.84,-12.57 12.3,-35.14 12.59,-48.59 -28.28,-18.94 -32.29,-3.83 -36.94,10.94 -7.63,24.21 -17.69,66.23 -29.56,74.19 -10.05,-2.69 -7.74,-5.13 -15.96,-10.64 6.6,-12.48 14.47,-41.55 19.3,-57.85 8.2,-27.67 1.46,-21.11 23.26,-19.3 -7.04,-9.6 -3.47,-0.31 -11.3,-9.98 -8.23,-10.18 -3.87,-13.38 -22.42,-15 -17.95,-1.56 -16.22,16.87 -22.15,32.96 -5.15,13.96 -9.48,28.36 -14.65,43.87 -3.14,9.41 -14.61,37.52 -14.61,43.91z"/>
   <path class="fil0" d="M643.63 641.86c0,12.1 34.58,30.46 34.58,42.56 0,7.02 -18.44,22.06 -29.18,34.66l-5.13 5.51c-3.39,2.87 -4.37,3 -8.25,5.05 -15.28,-8.08 -32.38,-37.32 -42.56,-34.58 -13.16,1.44 -5.1,1.79 -14.15,12.45 -7.76,9.15 -23.62,12.49 -2.21,33.18l36.03 33.13c0.39,0.38 0.93,0.95 1.31,1.34 3.68,3.72 3.75,4.19 8.02,7.95l21.22 18.68c0.41,0.37 0.97,0.92 1.37,1.29l7.02 6.28c15.74,12.99 15.78,22.4 31.84,26.69l26.6 -34.58c-2.56,-3.82 -1.67,-2.35 -4.92,-5.72l-4.04 -3.95c-12.67,-12.71 -25.52,-19.5 -36.26,-35.56 3.43,-14.73 33.91,-41.89 45.22,-47.88l35.17 36.76c10.66,9.84 14.41,8.98 21.63,1.42 2.46,-2.59 3.1,-4.39 4.39,-6.26 4.68,-6.82 4.39,-8.27 13.3,-10.65 0,-19.01 -10.3,-22.46 -31.63,-42.86l-68.27 -64.74c-11.25,-8.74 -4.74,-9.45 -22.47,-9.45 -3.65,13.66 -18.62,15.78 -18.62,29.26z"/>
   <path class="fil0" d="M848.47 2264.56c1.52,-12.95 11.63,-21.08 5.31,-23.96 12.5,0 30.29,2.84 22.91,-16.57 -4.17,-10.98 -2.72,-0.06 -3.36,-7.1 -0.77,-8.46 10.9,-23.97 17.69,-32.85 8.72,-1.4 11.73,-0.3 18.48,3.42 11.03,6.08 10.92,6.54 13.43,13.22 2.16,6.74 -4.25,-2.18 2.47,3.39 15.14,12.54 30.82,8.28 27.02,34.74 -0.05,0.34 -0.27,1.18 -0.23,1.78 -0.16,0.39 -1.11,6.12 -2.66,7.97 -33.86,0 -38.85,-9.33 -53.37,-4.3 -7.31,2.54 -2.79,0.17 -7.78,4.31 1.49,15.15 -1.56,7.13 13.59,15.22 8.81,4.71 15.41,7.47 17.23,16.55 4.08,20.29 -0.87,-10.26 1.07,5.35 0.18,1.43 0.09,12.3 -0.15,13.63 -2.26,12.74 -0.87,3.64 -3.21,9.24 -3.33,7.95 -2.43,-0.11 -4.34,12.06 -0.7,4.43 1.27,18.77 1.39,18.99 3.76,6.89 -2.07,2.2 6.14,5.58 5.67,2.33 7.45,1.33 13.49,1.28 2.47,-3.04 5.28,1.7 5.08,-20.75 17.52,-1.13 4.11,1.41 7.74,-4.17 7.48,-11.5 8.62,-32.77 9.6,-35.71l4.17 -7.99c7.71,0.47 -2.36,1.07 5.33,-0.46 4.42,-0.88 0.74,-0.53 7.97,-2.21 17.2,-25.69 43.11,-30.64 13.33,-69.2 -20.02,-25.91 -15.43,-20.72 -41.76,-32.73 -12.58,-5.74 -10.59,-7.67 -23.57,-13.67l-54.41 -20.08c-5.37,8.02 -12.51,13.05 -17.94,21.97 -4.74,7.8 -7.23,20.52 -12.17,30.39 -19.86,39.69 -55.49,76.09 -34.55,94.76 2.37,2.11 4.41,3.33 6,4.65 5.2,4.33 17.9,20.24 32.86,6.13 7.13,-6.72 10.48,-23.04 7.19,-32.86z"/>
   <path class="fil0" d="M1893.91 527.48c11.07,0 50.54,25.75 50.54,39.9 0,10.56 -10.35,13.3 -18.62,13.3 -8.48,0 -31.72,-27.61 -47.88,-31.92 0.21,-9.64 4.41,-21.28 15.96,-21.28zm-61.19 10.63c-7.26,3.85 -9.13,10.5 -14.41,17.52 -3.7,4.93 -5.41,5.56 -8.71,10.11 -6.83,9.43 -5,5.53 -3.5,12.28 -9.83,4 -14.72,7.28 -18.61,23.94l5.54 7.76c17.93,20.49 21.06,7.11 40.34,23.5 15.64,13.29 26.35,21.36 45.9,31.24 28.96,14.61 62.22,18.08 75.69,-17.44 5.91,-15.59 0.45,-19.37 0.12,-34.43 4.13,-2.76 4.57,-3.56 9.23,-6.73 31.25,-21.25 33.69,-35.41 16.24,-55.98 -19.9,-23.46 -60.41,-42.22 -81.72,-59.27 -17.3,-13.84 -19.54,-18.37 -33.88,-0.07l-21.57 28.92c-2.33,3.46 -3.31,4.46 -5.35,7.91 -4.01,6.8 -2.02,2.63 -5.32,10.73zm18.62 42.59c5.3,-0.14 5.5,5.98 2.67,-5.33 20.46,3.23 26.68,12.27 41.53,22.3 26.35,17.81 16.36,25.23 9,36.22 -18,-4.19 -49.97,-24.46 -58.52,-37.24 3.04,-11.4 2.81,-1.97 5.32,-15.94z"/>
   <path class="fil0" d="M2117.36 836.06c-3.13,-11.73 -12.47,-14.3 -15.96,-29.26 9.88,-2.3 45.22,-19.56 45.22,-2.66 0,0 -12.36,30.52 -29.26,31.92zm-98.43 -61.19c0,12.07 0.87,17.68 7.08,30.18 15.27,30.72 31.54,-15.93 60.29,32.8 31.57,53.53 4.28,25.87 -3.52,59.39l23.94 29.26c17.66,-9.35 46.12,-56.32 60.06,-75.6l27.44 -39.07c5.93,-8.12 -0.85,-4.4 8.26,-7.69 0,-15.64 1.77,-12.49 -12.68,-29.88 -20.15,-24.26 -12.31,-24.62 -58.86,-15.06l-112.01 15.68z"/>
   <path class="fil0" d="M1470.93 2365.65c0.93,1.87 -4.13,0.78 7.93,5.19 12.34,4.52 28.99,2.74 43.42,4.78 27.98,3.96 31.85,-11.63 55.07,0.67 -2.4,28.86 -39.29,35.25 -57.58,31.02 -17.88,-4.14 -10.03,-13.31 -30.19,-15.14 -19.04,-1.72 -26.82,1.07 -37.26,8.07 0,12.16 2.06,15.44 7.86,21.4 15.6,16.04 44.17,26.19 66.68,26.6 37.74,0.69 118.46,-26.94 88,-93.5 -5.33,-11.66 -6.52,-13.08 -31.79,-16.31 -15.05,-1.92 -32.71,2.08 -53.26,3.84 -21.3,1.82 -27.66,-2.08 -37.57,-21.84 2.37,-11.24 -2.02,-4.76 6.94,-11.75 7.2,-5.61 25.59,-8.31 34.86,-8.8 0.22,-18.33 4.8,-8.24 13.89,-18.9 -7.73,-0.05 -21.4,0.48 -28.58,-0.24 -15,-1.48 2.51,-5.4 -20.46,-3.03 3.27,11.65 -6.97,-7.98 2.28,4.37 0.25,0.33 0.81,1.2 1.07,1.47 0.18,0.19 0.82,0.67 0.98,0.79l1.64 -0.29c0.07,-0.31 0.56,-0.4 0.67,-0.7l-18.21 9.63c-0.35,0.09 -1.15,0.1 -1.54,0.18 -21.74,4.4 -16.14,8.57 -18.76,27.5l-9.24 25.4c-5.13,11.94 -0.93,-11 -0.95,3.64 10.92,8.82 10.47,6.61 14.11,15.96z"/>
   <path class="fil0" d="M1029.34 2370.97c-1.29,5.79 -3.12,4.6 9.87,16.72 10.7,10 23.47,17.31 37.97,20.58 14.83,3.34 9.62,5.22 26.51,5.44 34.43,0.45 55.41,-7.76 75.97,-30.97 8.64,-9.76 3.86,-3.44 4,-9.12 4.98,-14.67 5.16,-9.85 5.58,-26.58 0.28,-10.83 0.43,-19.2 -5.59,-26.61 -4.59,5.67 -4.88,14.71 -5.32,21.35l-3.28 -18.79c-3.23,-16.54 -3.33,-4.24 -2.01,-11.79 2.11,-12.07 3.79,-18.98 -5.79,-23.22 -0.6,-0.27 -1.44,-0.46 -2.05,-0.61 -0.6,-0.15 -1.54,-0.11 -2.09,-0.17 -0.55,-0.06 -1.61,0.23 -2.07,0.23l-3.99 1.22c-14.51,12.93 19.43,52.52 -10.64,66.33 -12.43,3.98 -6.52,13.29 -34.5,13.53 -18.71,0.16 -32.04,-2.09 -41.21,-12.3 -13.75,-15.29 -17.27,-39.16 -10.5,-58.21 4.41,-12.4 4.59,-6.39 9.07,-14.83 0.34,-22.68 1.02,0.17 -2.69,-13.3 -0.43,0.55 -8.76,1.55 3.39,1.77 8.13,0.15 14.78,-5.28 19.49,-6.41 7.7,-1.85 26.79,-3.35 35.65,-3.35 -7.33,-9.11 11.27,-7.95 -15.95,-7.95l1.49 1.39c0.84,-0.28 3.25,0.74 6.48,-9.37 -19.96,0 -55.74,-4.85 -70.99,12.28 -0.56,0.63 -3.19,4.13 -3.62,4.78l-2.51 9.54c-17.91,0.65 -8.48,1.75 -12.86,5.3 -2.4,37.32 6.41,22.87 -6.3,31.8 -0.51,0.35 -1.87,1.98 -2.27,1.36 -0.43,-0.67 -1.72,0.81 -2.44,1.42 0.07,6.76 1.81,27.77 1.98,28.75 3.44,18.93 10.16,7.6 6.07,19.17l5.14 10.6z"/>
   <path class="fil0" d="M460.07 931.82c5.57,10.52 18.04,18 29.26,23.94 14.72,-12.8 21.28,-27.78 31.92,-47.89 19.5,1.62 89.07,53.2 101.09,53.2 13.63,0 31.2,-33.33 13.74,-45.66l-85.56 -47.45c0,-40.97 38.03,-39.43 -0.72,-60.55 -3.91,-2.13 -15.09,-9.24 -21.6,-1.74l-68.13 126.13z"/>
   <path class="fil0" d="M534.56 1692.64c1.73,29.42 13.46,52.16 -14.69,73.09 -14.94,11.11 -34.71,14.05 -48.11,2.99 -3.54,-2.92 -12.2,-13.46 -14.8,-17.13 -5.25,-7.42 -17.41,-36.48 -18.18,-45.67 14.22,-16.36 20.26,-9.12 29.26,-21.27 -27.13,0.59 -21.02,4.13 -27.48,9.19 -12.59,9.85 -10,0.5 -10.66,14.14l-3.98 -3.85c-0.41,-0.4 -1.15,-1.12 -1.52,-1.48l-2.18 -2.05c3.85,6.61 4.69,12 -2.06,20.31 -6.07,-2.33 -4.3,-0.61 -7.97,-4.29 -5.51,-5.53 -0.33,3.6 -3.27,-5.5 -1.53,-4.74 -0.56,-10.63 -0.58,-15.85 -8.37,-4.41 -1.69,7.33 -8.28,-6.64 9.76,-9.61 -2.04,1.75 4.94,-10.81 8.91,-16.06 16.5,-1.46 23.12,-19.78 -32.57,10.83 -15.6,4.14 -37.23,18.62 0,15.54 11.2,38.77 17.52,54.31 7.6,18.7 18.78,50.59 33.93,64.5 0.41,0.37 1.02,0.87 1.44,1.22l2.94 2.38c23.48,19.52 45.9,31 79.98,13.38 32.24,-16.67 56.81,-48.46 53.07,-90.49 -0.55,-6.12 -4.35,-20.94 -6.57,-28.09l-28.13 -59.56c-7.99,-11.7 -5.87,-9.09 -15.82,-10.87l3.97 12.26c-6.37,-2.15 0.8,-1.29 7.1,3.7 -1.13,4.9 6.92,10.62 -6.37,6.07 17.17,3.09 6.05,3.99 8.36,5.74l5.37 3.35c0.21,-0.51 1.19,0.46 1.72,0.8 3.44,18.37 0.52,18.37 3.49,25.41 6.39,15.16 3.27,14.65 3.27,14.57 0.01,-0.39 -0.12,1.74 -0.34,2.57 -0.18,0.06 -2.11,2.25 -8.69,2.17l-12.57 -7.47zm-106.42 -34.59c-6.62,18.32 -14.21,3.72 -23.12,19.78 -6.97,12.56 4.82,1.21 -4.94,10.81 6.58,13.97 -0.09,2.24 8.28,6.64 0.02,5.22 -0.95,11.11 0.58,15.85 2.94,9.09 -2.24,-0.04 3.27,5.5 3.67,3.68 1.9,1.96 7.97,4.29 6.75,-8.31 5.91,-13.7 2.06,-20.31l2.18 2.05c0.37,0.37 1.11,1.08 1.52,1.48l3.98 3.85c0.67,-13.64 -1.93,-4.3 10.66,-14.14 6.46,-5.06 0.34,-8.59 27.48,-9.19l11.18 -1.94c7.72,-3.56 4.8,-3.22 11.47,-7.34 10.99,-6.79 15.53,-6.69 27.89,-6.69 9.34,13.94 10.92,22.34 15.96,23.96l12.57 7.47c6.58,0.07 8.51,-2.11 8.69,-2.17 0.22,-0.84 0.35,-2.96 0.34,-2.57 0,0.08 3.12,0.59 -3.27,-14.57 -2.97,-7.04 -0.05,-7.04 -3.49,-25.41 -0.53,-0.34 -1.51,-1.31 -1.72,-0.8l-5.37 -3.35c-2.31,-1.76 8.81,-2.65 -8.36,-5.74 13.29,4.56 5.24,-1.17 6.37,-6.07 -6.3,-5 -13.46,-5.85 -7.1,-3.7l-3.97 -12.26c1.83,-11.46 -29.36,6.41 -36.04,9.2l-27.18 10.06c-8.39,3.28 -34.41,8.3 -37.89,15.32z"/>
   <path class="fil0" d="M2127.99 1950.67c-1.72,-14.52 -8.69,-27.5 -1.76,-41.41 11.92,-23.92 4.45,-16.06 7.15,-22.68 4.59,-11.29 -2.07,-6.01 10.57,-10.39 6.27,16.7 0.99,30.63 17.74,34.58l-4.43 15.96c6.32,-2.05 3.18,-1.28 12.56,-1.78 -0.76,10.79 1.65,-0.56 -0.48,6.83l-1.44 10.91 27.19 5.34c0.01,0.03 -0.41,0.08 -0.58,-0.02 9.91,-1.04 1.48,-1.89 15.59,-4.09 14.61,-2.28 13.86,-0.96 21.65,1.43 17.09,5.24 2.09,-17.98 34.57,-26.6 -0.26,17.3 -6.4,36.35 -13.27,53.19l14.98 -9.1c2.97,-3.38 1.11,-0.92 3.19,-4.66 11.18,-20.04 11.15,-24.67 16.51,-44.65 8.67,-32.34 -3.28,-48.95 -6.9,-65.26 -1.13,-5.12 -0.64,-9.34 -2.57,-13.03 -8,-15.31 4.27,5.63 -13.81,-4.7 -9.54,-5.45 -13.19,-7.78 -24.72,-2.24 -0.33,-14.72 3.26,-9.41 -7.98,-10.64 5.64,5.35 7.42,5.78 3.99,16.93 -2.43,7.91 -7.71,7.35 -1.97,20.7 4.52,10.52 15.16,20.43 14.02,39.34 -0.69,11.6 -7.17,30.27 -14.53,36.27 -26.83,21.87 -57.58,9.39 -69.37,-24.23 -1.79,-5.1 -2.59,-5.84 -3.89,-9.2 -5.66,-14.59 6.44,-40.05 20.42,-46.01 9.06,-3.86 9.97,-2.55 19.14,-7.46l16.22 -10.38c0,-19.68 -14.17,-40.31 -37.65,-32.5 -29.89,9.94 -39.76,24.1 -55.11,48.8 -3,4.83 -1.06,0.91 -3.48,7.16 -8.76,22.59 -17.05,77.56 8.44,93.58z"/>
   <path class="fil0" d="M2040.23 2126.24c-0.3,-4.72 5.28,1.09 -7.59,-8.35 -0.46,-0.34 -1.15,-0.79 -1.62,-1.13 -7.45,-5.48 -4.18,-5.47 -9.43,-6.5 -7.09,-3.56 -3.48,1.03 -7.98,-6.93 -6.95,-0.17 -1,-0.53 -1.48,-1.36l-2.99 -5.72c-4.14,-5.45 -1.26,-2.93 -5.8,-5.14 -12.7,-6.19 -3.12,0.44 -3.05,0.54 -0.23,-5.67 -0.33,-3.45 -1.33,-7.65l-3.87 -8.94c-3.71,-3.47 -0.24,-2.89 -8.08,-4.68l-4.28 7.25c-5.69,13.55 -0.11,17.39 -6.35,22.01l7.23 9.13c0.46,0.49 1.09,0.92 1.52,1.38 8.29,8.94 1.93,1.36 5.91,13.25 4,11.93 10.94,12.65 17.26,16.13 -0.14,0.35 -0.29,0.55 -0.38,1.06 -0.11,0.64 -0.5,1.02 -0.66,1.26 -0.22,0.31 -0.81,1.22 -1.07,1.59l-3.21 4.07c17.24,7.02 10.07,13.88 24.84,23.03 9.05,5.6 30.53,4.95 44.1,3.36 14.71,-1.72 32.8,-15.76 44.04,-25.13 69.76,-58.13 28.05,-133.82 9.38,-134.28l-14.17 -5.9c-0.54,-0.19 -1.23,-0.49 -1.84,-0.66 -8.36,-2.31 -17.76,-1.39 -26.54,-1.39 -4.19,-1.61 -4.8,-12.01 -37.9,0.62 -5.24,1.99 -4.4,1.5 -6.15,2.93 -5.38,4.39 -4.17,6.17 -6.49,12.4 0.77,0.58 2.04,0.22 2.53,1.39 2.05,4.85 26.94,2.59 33.27,1.4l12.05 -5.46c6.94,16.31 5.64,5.23 12,6.62 22.33,4.87 -15.19,-9.57 6.79,2.27 0.48,0.26 1.97,1.16 2.37,1.43 16.22,10.47 -1.99,-5.95 3.8,7.25 2.88,6.55 7.89,10.92 13.61,14.1 0.05,0.03 6,2.56 6.68,2.93l-7.98 2.66c0.48,0.59 1.27,0.67 1.46,1.75 0.22,1.26 2.12,2.91 2.42,3.58 7.2,16.37 -2.74,36.16 -14.2,48.47 -16.86,18.11 -28.17,23.33 -56.2,23.33 -14.26,-5.63 -4.48,0.28 -10.63,-7.96z"/>
   <path class="fil0" d="M2279.63 1333.51c0,14.19 0.04,28.38 -0.01,42.57l2.48 82.65c-0.01,10.39 -1.28,11.49 3.33,17.96 10.27,14.43 23.86,7.33 34.11,0.47 0,-59.18 -6.72,-53.66 26.6,-55.66 28.4,-1.7 61.53,-0.2 90.45,-0.2 12.72,-54.61 4.24,-45.22 -95.76,-45.22 -14.08,0 -7.83,5.07 -23.94,-2.66 0,-17.77 3.56,-15.57 2.06,-35.07 -2.51,-32.54 -39.3,-21.7 -39.3,-4.83z"/>
   <path class="fil0" d="M2226.43 1163.26c0,12.44 30.35,23.5 41.37,27.8 40.42,15.74 44.75,5.37 46.42,25.41l-28.69 24.52c-3.33,3.03 -3.34,3.05 -7.1,6.2 -11.97,10.03 -12.84,8.8 -20.08,22.48 14.82,28 30.66,28.93 49.09,6.53 0.35,-0.43 0.85,-1.03 1.2,-1.45l47.26 -48.5c5.09,-4.1 5.72,-4.49 11.47,-7.15 31.42,-14.54 20.19,-2.67 47.93,-21.24 -1.64,-19.74 -5.35,-20.05 -13.3,-31.92 -11.99,0.27 -27.82,3.97 -42.07,5.83 -22.46,2.92 -33.88,0.35 -57.76,-9.74l-35.08 -12.8c-14.69,-4.35 -20.13,-14.24 -32.89,0.55 -9.62,11.15 -7.77,8.57 -7.77,13.51z"/>
   <path class="fil0" d="M1425.72 439.7c4.16,-2.21 4.85,-4.16 7.32,-8.61 5.07,-9.14 5.19,-7.73 3.33,-15.35 7.35,-3.06 4,-0.72 10.63,-5.32 10.95,9.52 17.44,25.76 18.62,39.9 -9.58,2.23 -13.91,3.11 -26.91,2.99 -17.62,-0.17 -14.98,0.35 -13,-13.62zm2.67 -77.16c-18.41,9.63 -17.43,28.78 -33.04,52.1l-32.27 60.84c-11.31,21.12 -21.63,16.15 -6.53,38.69 27.3,0 37.82,1.34 43.44,-9.96 1.23,-2.47 3.8,-5.78 1.8,-13.98 0.7,-0.44 1.61,-2.06 1.96,-1.5 0.42,0.67 6.3,-6.87 14.57,-8.65 13.71,-2.95 49.92,-4.45 56.18,14.56 6.34,19.23 -4.28,25.08 22.83,25.07 38.8,-0.01 37.23,14.42 10.14,-68.69l-20.13 -65c-0.16,-0.42 -3.68,-8.14 -4.17,-9.13 -3.7,-7.51 -5.99,-10.23 -9.58,-17.02 -14.64,0 -32.43,-2.31 -45.21,2.66z"/>
   <path class="fil0" d="M784.62 2136.89c6.04,14.85 14.96,18.88 24.2,5.65 23.83,-34.1 6.84,-70.28 -13.96,-98.37 -15.28,-20.63 -16.7,-26 -48.87,-38.91 -47.74,-19.17 -72.7,18.85 -88.42,36.49 -16.81,18.87 -22.94,25.13 -18.44,63.83 0.82,7.08 1.83,7.53 5.1,14.66 11.05,24.11 29.49,46.55 54.41,57.39 20.33,8.84 55.2,20.52 62.03,-8.83 -6.96,-10.39 -22.25,-27.47 -34.72,-29.13 -16.8,-2.23 -13.19,-0.59 -26.77,-13.13l-12.38 -14.23c-11.01,-22.32 2.19,-35.83 11.49,-48.45 16.21,-21.98 20.63,-16.44 49.06,-14.77 0.31,12.79 23.02,10.91 26.55,42.98 2.46,22.39 -17.13,24.06 -0.9,40.57 7.24,7.37 4.83,6.13 11.61,4.25z"/>
   <path class="fil0" d="M438.8 1290.96c4.35,5.24 1.89,0.04 4.24,7.9 5.14,17.21 -5.54,19.05 10.73,30.43 0.65,0.46 1.38,0.92 2,1.35l-11.36 7.13c-4.35,-2.17 -3.21,1.92 -0.3,-1.59 6.56,8.06 15.34,3.29 29.21,2.42 23.93,-1.5 19.74,2.47 20.52,7.73 2.17,14.67 0.41,4.99 -1.85,8.46 -0.57,1.03 2.77,9.94 -23.8,6.4l-8.11 6.67c-2.3,-0.58 -59.53,-22.77 -75.82,-11.16 -4.04,2.88 -4.6,16.09 -11.1,24.2 -1.63,2.03 8.83,-0.7 -3.53,2.78 -7.5,-9.26 -2.13,-8.61 -2.68,-15.93 -0.94,-12.41 -8.69,-6.67 -3.89,-26.54 2.8,-11.61 -3.45,-3.83 2.59,-17.31 11.21,-2.3 41.28,-3.76 55.87,-5.63 0.46,-0.06 1.3,-0.08 1.72,-0.11 14.17,-1.07 -6.5,5.5 5.67,-0.09 10.2,-4.69 -9.1,-8.47 5.63,-23.93l4.27 -3.19zm21.28 -34.59c30.29,0 21.28,-5.4 21.28,63.84 -9.07,6.07 -7.52,13.09 -29.26,2.66 0,-14.5 -2.07,-29.11 -1.53,-38.92 0.57,-10.44 -2.81,-27.58 9.51,-27.58zm-82.45 -21.28c-13.1,-2.57 -1.2,3.46 -4.58,-3.57l-0.74 -7.06c14.94,-10.07 49.04,-4.86 65.07,-3.39 11.14,1.02 8.33,-3.76 39.89,0.05 12.61,1.52 11.51,-2.97 16.87,6.48 6.89,12.16 -12.61,0.65 1.4,10.51 7.11,5 0.23,-2.58 15.06,2.31 -0.57,11.01 -3.5,14.39 -2.08,25.71 2.06,16.38 9.21,15.77 -8.55,19.48 -14.87,-1.68 -1.46,-19.42 -13.41,-28.89 -2.6,-2.06 -0.59,-0.83 -3.57,-2.45 -10.58,-5.76 -30,-5.41 -36.24,4.74 -7.5,8.19 2.7,13.72 -7.97,26.6 -9.94,-4.17 -1.41,1.82 -6.26,-4.25 -0.38,-0.47 -0.88,-1.14 -1.15,-1.66 -0.24,-0.48 -0.44,-1.26 -0.57,-1.76 -0.78,-3 2.45,-4.56 2.67,-13.61 -2.74,-1.51 -2.52,-0.96 -4.85,-2.89 -0.37,-0.31 -1.01,-0.88 -1.39,-1.24 -17.78,-16.34 -18.31,-12.04 -57.6,-11.84l3 -6.03c0.47,-0.85 0.87,-1.6 1.34,-2.41l3.65 -4.85zm-15.97 18.62c10.92,0.91 14.37,2.94 29.25,2.67 31.89,-0.56 26.61,-7.95 26.61,53.19 0,21.83 -63.84,-6.9 -63.84,18.62 0,25.11 -5.78,61.19 18.62,61.19 10.17,0 13.71,-2.37 15.09,-9.27 0.07,-0.38 0.08,-5.95 0.65,-9.55 1.42,-8.99 -0.28,-3.85 2.88,-10.44 36.49,8.5 28.98,-7.48 63.65,13.51 9.23,5.59 15.33,9.31 27.5,6.06 12.56,-3.35 14.85,-10.76 20.63,-19.52 13.44,-20.36 16.16,-27.53 15.9,-61.24 -0.2,-25.87 2.68,-48.23 2.68,-77.13 -21.98,-10.55 -121.2,-10.64 -151.63,-10.64 -14.02,0 -8.17,34.09 -7.98,42.56zm10.65 -29.25l0.74 7.06c3.39,7.03 -8.52,0.99 4.58,3.57l-3.65 4.85c-0.47,0.81 -0.87,1.56 -1.34,2.41l-3 6.03c39.29,-0.19 39.82,-4.5 57.6,11.84 0.38,0.35 1.02,0.93 1.39,1.24 2.34,1.93 2.11,1.39 4.85,2.89 -0.22,9.04 -3.45,10.61 -2.67,13.61 0.13,0.5 0.32,1.28 0.57,1.76 0.27,0.52 0.77,1.19 1.15,1.66 4.85,6.07 -3.68,0.08 6.26,4.25 10.67,-12.88 0.47,-18.41 7.97,-26.6 6.24,-10.15 25.65,-10.5 36.24,-4.74 2.98,1.63 0.97,0.39 3.57,2.45 11.94,9.47 -1.46,27.21 13.41,28.89 17.76,-3.71 10.6,-3.11 8.55,-19.48 -1.42,-11.33 1.5,-14.7 2.08,-25.71 -14.83,-4.89 -7.95,2.69 -15.06,-2.31 -14.01,-9.86 5.49,1.65 -1.4,-10.51 -5.36,-9.46 -4.26,-4.96 -16.87,-6.48 -31.56,-3.81 -28.76,0.98 -39.89,-0.05 -16.04,-1.47 -50.13,-6.68 -65.07,3.39zm81.46 104.83c-16.27,-11.38 -5.59,-13.22 -10.73,-30.43 -2.35,-7.86 0.11,-2.66 -4.24,-7.9l-4.27 3.19c-14.73,15.45 4.57,19.23 -5.63,23.93 -12.17,5.59 8.51,-0.98 -5.67,0.09 -0.42,0.03 -1.26,0.05 -1.72,0.11 -14.58,1.87 -44.66,3.33 -55.87,5.63 -6.04,13.47 0.21,5.7 -2.59,17.31 -4.79,19.88 2.95,14.13 3.89,26.54 0.55,7.31 -4.82,6.66 2.68,15.93 12.36,-3.48 1.9,-0.75 3.53,-2.78 6.5,-8.11 7.06,-21.32 11.1,-24.2 16.29,-11.61 73.52,10.57 75.82,11.16l8.11 -6.67c26.56,3.54 23.23,-5.37 23.8,-6.4 2.25,-3.47 4.01,6.21 1.85,-8.46 -0.78,-5.26 3.41,-9.23 -20.52,-7.73 -13.87,0.87 -22.65,5.63 -29.21,-2.42 -2.91,3.5 -4.06,-0.58 0.3,1.59l11.36 -7.13c-0.63,-0.43 -1.35,-0.89 -2,-1.35z"/>
   <path class="fil0" d="M2181.2 1737.85c0,12.84 0.49,10.32 9.05,17.55 4.55,3.84 7.26,6.3 11.79,9.49l52.5 32.62c11.13,6.65 22.52,8.43 17.1,20.15 4.72,-1.71 2.22,-3.23 8.33,-3.75 8.05,-0.69 20.59,11.73 28.91,11.73 13.98,0 29.26,-17.69 29.26,-29.26 0,-16.62 -13.6,-21.26 -25.09,-28.11 -11.99,-7.15 -22.11,-13.96 -33.74,-19.46 -7.3,-3.46 -62.76,-31.69 -66.2,-40.21 -13.5,0 -14.13,0.34 -20.36,8.9 -2.83,3.89 -11.56,16.53 -11.56,20.36z"/>
   <path class="fil0" d="M2127.99 1950.67c-0.3,4.94 -1.92,0.87 1.71,6.41l18.35 16.1c5.43,4.04 8.92,6.16 14.86,9.08 5.49,2.7 10.09,4.96 17.19,6.76 22.5,5.71 65.22,-2.51 72.95,-17.07 6.87,-16.84 13.01,-35.89 13.27,-53.19 -32.47,8.62 -17.48,31.84 -34.57,26.6 -7.79,-2.39 -7.04,-3.7 -21.65,-1.43 -14.11,2.2 -5.69,3.05 -15.59,4.09 0.17,0.1 0.59,0.06 0.58,0.02l-27.19 -5.34 1.44 -10.91c2.13,-7.39 -0.27,3.96 0.48,-6.83 -9.38,0.5 -6.23,-0.27 -12.56,1.78l4.43 -15.96c-16.75,-3.95 -11.47,-17.88 -17.74,-34.58 -12.63,4.37 -5.97,-0.91 -10.57,10.39 -2.7,6.62 4.76,-1.24 -7.15,22.68 -6.93,13.91 0.04,26.89 1.76,41.41z"/>
   <path class="fil0" d="M2002.99 2147.52l3.21 -4.07c0.26,-0.37 0.85,-1.28 1.07,-1.59 0.16,-0.24 0.55,-0.62 0.66,-1.26 0.09,-0.51 0.24,-0.71 0.38,-1.06 -6.32,-3.48 -13.26,-4.2 -17.26,-16.13 -3.98,-11.89 2.38,-4.31 -5.91,-13.25 -0.43,-0.46 -1.06,-0.89 -1.52,-1.38l-7.23 -9.13c6.24,-4.62 0.66,-8.46 6.35,-22.01l4.28 -7.25c7.84,1.79 4.37,1.21 8.08,4.68l3.87 8.94c1.01,4.2 1.1,1.98 1.33,7.65 -0.07,-0.11 -9.66,-6.74 3.05,-0.54 4.54,2.21 1.66,-0.31 5.8,5.14l2.99 5.72c0.48,0.83 -5.47,1.19 1.48,1.36 4.5,7.96 0.89,3.37 7.98,6.93 -3.15,-9.46 -10.47,-23.81 -6.28,-35.3 3.54,-9.72 12.31,-19.41 19.91,-25.54 17.44,-14.07 29.85,-32.41 58.87,-6.32 19.71,17.72 31.13,34 10.45,59.68 -24.66,30.61 -43.8,23.79 -64.31,23.46 6.15,8.24 -3.64,2.34 10.63,7.96 28.04,0 39.34,-5.22 56.2,-23.33 11.46,-12.31 21.39,-32.09 14.2,-48.47 -0.3,-0.67 -2.2,-2.32 -2.42,-3.58 -0.19,-1.08 -0.98,-1.16 -1.46,-1.75l7.98 -2.66c-0.68,-0.37 -6.63,-2.9 -6.68,-2.93 -5.72,-3.18 -10.74,-7.55 -13.61,-14.1 -5.8,-13.2 12.42,3.22 -3.8,-7.25 -0.41,-0.26 -1.89,-1.17 -2.37,-1.43 -21.98,-11.84 15.54,2.6 -6.79,-2.27 -6.35,-1.39 -5.06,9.69 -12,-6.62l-12.05 5.46c-6.33,1.19 -31.22,3.44 -33.27,-1.4 -0.5,-1.17 -1.76,-0.8 -2.53,-1.39 2.32,-6.24 1.11,-8.01 6.49,-12.4 1.75,-1.43 0.91,-0.93 6.15,-2.93 33.1,-12.63 33.71,-2.23 37.9,-0.62 8.78,0 18.18,-0.93 26.54,1.39 0.61,0.17 1.3,0.48 1.84,0.66l14.17 5.9c-8.55,-21 -46.11,-29.41 -64.76,-27.25 -13.31,1.54 -23.7,8.97 -31.62,16 -31.5,27.96 -26.15,17.26 -47.79,50.64 -16.89,26.06 -20.78,39.24 0.13,67.41 4.9,6.6 19.01,21.17 21.69,26.21z"/>
   <path class="fil0" d="M1029.34 2370.97l-5.14 -10.6c4.09,-11.57 -2.64,-0.24 -6.07,-19.17 -0.18,-0.98 -1.91,-21.99 -1.98,-28.75 0.71,-0.61 2.01,-2.09 2.44,-1.42 0.4,0.62 1.76,-1.01 2.27,-1.36 12.72,-8.93 3.9,5.52 6.3,-31.8 4.38,-3.56 -5.05,-4.65 12.86,-5.3l2.51 -9.54c0.43,-0.65 3.06,-4.15 3.62,-4.78 15.25,-17.13 51.03,-12.28 70.99,-12.28 -3.23,10.11 -5.64,9.09 -6.48,9.37l-1.49 -1.39c27.22,0 8.61,-1.15 15.95,7.95 -8.86,0 -27.95,1.5 -35.65,3.35 -4.71,1.13 -11.35,6.56 -19.49,6.41 -12.15,-0.22 -3.81,-1.22 -3.39,-1.77 3.7,13.47 3.03,-9.38 2.69,13.3 21.72,-6.63 49.79,-12.81 66.03,3.12 13.02,12.77 20.82,40.66 15.09,59.52 -0.26,0.84 -0.52,1.44 -0.81,2.25l-3.18 6.93c30.07,-13.81 -3.87,-53.4 10.64,-66.33l3.99 -1.22c0.46,-0 1.52,-0.29 2.07,-0.23 0.56,0.06 1.49,0.02 2.09,0.17 0.61,0.15 1.44,0.35 2.05,0.61 9.58,4.25 7.91,11.15 5.79,23.22 -1.32,7.56 -1.22,-4.74 2.01,11.79l3.28 18.79c0.44,-6.64 0.73,-15.69 5.32,-21.35 6.02,7.41 5.87,15.77 5.59,26.61 -0.42,16.74 -0.6,11.91 -5.58,26.58 5.19,-3.26 5.9,1.93 13.12,-21.46 3.13,-10.11 3.65,-14.76 2.37,-28.28l-5.7 -23.84c-17.85,-36.06 -43.06,-55.07 -77.44,-69.19 -19.02,-7.81 -4.42,-1.69 -25.62,1.58 -25.59,3.94 -33.8,4.68 -56.44,26.06 -28.37,26.79 -22.21,55.19 -26.02,78.83 -1.24,7.65 -0.67,6.88 8.46,25.13 4.29,8.57 1.53,6.67 12.96,8.51z"/>
   <path class="fil0" d="M414.85 1495.76c9.09,-3.52 5.06,-2.65 15.96,-2.65 10.06,20.97 5.32,63.5 5.32,93.11l8.55 7.41c14.06,0.57 21.11,3.2 23.32,-10.12l-0.38 -71.43c-0.15,-1.29 -9.11,-31.04 10.2,-27.68 9.28,1.61 7.81,2.94 10.13,20.74 4.69,35.92 2.35,34.01 2.91,56.4 0.05,1.9 0.68,17.24 0.94,19.52 1.13,9.97 0.59,9.6 10.66,10.84 31.79,3.92 24.04,-11.48 24.14,-37.62l-7.57 -77.56c-1.65,-16.22 3.46,-25.04 -11.06,-34.16l6.26 84.92c2.02,7.33 6.84,12.94 -4.8,18.83 4.06,3.17 2.28,-0.12 4.13,5.91 1.61,5.26 0.46,8.34 0.4,8.8 -0.09,0.78 -2.04,8.12 -2.48,9.31 -2.04,5.46 -0.92,3.48 -3.52,7.01l-5.77 -4.35c-1.5,-0.89 6.24,-0.87 -3.68,-1.26 -0.03,-25.46 -2.35,-46.47 -3.83,-68.06 -0.87,-12.62 -0.94,-24.05 -15.97,-24.81 -15.26,-0.77 -16.83,9.03 -21.31,16.9 -11.58,-0.59 -14.1,3.34 -15.96,-7.98 -0.87,0.31 -1.92,0.49 -2.72,0.61l-5.37 0.83c-11.59,0.67 -17.59,-4.28 -23.36,-0.48 -0.43,0.28 -1.07,0.95 -1.44,1.28l-3.93 5.76 10.22 0zm0 0l-10.22 0 3.93 -5.76c0.37,-0.32 1.01,-0.99 1.44,-1.28 5.77,-3.8 11.76,1.15 23.36,0.48l5.37 -0.83c0.8,-0.11 1.84,-0.29 2.72,-0.61 1.86,11.33 4.38,7.39 15.96,7.98 4.48,-7.87 6.05,-17.67 21.31,-16.9 15.03,0.76 15.1,12.19 15.97,24.81 1.48,21.58 3.8,42.6 3.83,68.06 9.92,0.39 2.18,0.37 3.68,1.26l5.77 4.35c2.6,-3.53 1.47,-1.55 3.52,-7.01 0.44,-1.19 2.39,-8.53 2.48,-9.31 0.06,-0.46 1.2,-3.54 -0.4,-8.8 -1.85,-6.03 -0.06,-2.74 -4.13,-5.91 11.64,-5.88 6.82,-11.5 4.8,-18.83l-6.26 -84.92c0.87,-5.46 1.44,-1.51 -5.68,-2.63 -0.96,-0.15 -8.79,-0.2 -9.91,-0.11 -8.17,0.66 -9.85,2.09 -17.87,3.87 -10.43,2.32 -29.78,2.19 -39.1,3.46 -30.24,4.11 -56.86,-1.73 -76.42,11.37 0,29.15 12.88,111.94 15.96,148.97 21.24,4.94 21.04,3.26 37.24,-5.32 -0.8,-35.81 -9.1,-56.25 -7.98,-106.41l10.64 -0.01z"/>
   <path class="fil0" d="M1470.93 2365.65c-3.64,-9.35 -3.19,-7.14 -14.11,-15.96 0.02,-14.64 -4.18,8.3 0.95,-3.64l9.24 -25.4c2.62,-18.93 -2.99,-23.09 18.76,-27.5 0.39,-0.08 1.19,-0.09 1.54,-0.18l18.21 -9.63c-0.12,0.3 -0.61,0.39 -0.67,0.7l-1.64 0.29c-0.16,-0.12 -0.8,-0.6 -0.98,-0.79 -0.26,-0.27 -0.82,-1.13 -1.07,-1.47 -9.25,-12.35 0.99,7.29 -2.28,-4.37 22.98,-2.37 5.47,1.54 20.46,3.03 7.18,0.71 20.85,0.19 28.58,0.24 -9.09,10.66 -13.67,0.57 -13.89,18.9 -9.27,0.49 -27.66,3.19 -34.86,8.8 -8.96,6.99 -4.57,0.51 -6.94,11.75 9.13,-3.72 1.19,-0.3 6.59,-3.51 59.09,-35.09 36.77,23.33 110.44,6.17 0,-25.45 0.79,-22.63 -22.02,-39.16l-7.99 -5.31c-3.93,-2.57 -1.19,-1.01 -6.45,-4.19 -0.5,-0.3 -1.14,-0.72 -1.65,-1.01l-3.44 -1.88c-0.55,-0.27 -1.23,-0.61 -1.8,-0.86 -9.28,-3.98 -18.56,-3.54 -28.45,-3.55 -20.76,-0.02 -21.49,0.4 -36.98,5.71 -19.04,6.53 -41.18,16.61 -49.44,35.69 -6.47,14.94 -9.73,27.78 -1.4,41.17 7.39,11.88 11.52,14.22 21.28,15.96z"/>
   <path class="fil0" d="M2061.51 684.43c9.43,-3.83 6.81,-2.48 14.14,-9.94l13.42 -13.03c0.42,-0.35 1.02,-0.86 1.44,-1.21l2.93 -2.39c0.43,-0.35 1.05,-0.83 1.48,-1.18l2.98 -2.34c0.43,-0.35 1.07,-0.81 1.49,-1.17 18,-15.8 0.88,-20.33 -9.81,-34.07 -3.29,-4.23 -3.74,-5.01 -7.42,-8.54l-10.03 -8.59 -69.44 66.23c-0.38,0.4 -0.93,0.96 -1.31,1.35 -10.8,10.84 -32.34,33.85 -40.98,36.16 0,16.46 2.28,14.68 11.3,23.28 17.65,16.83 12.72,41.07 69.22,-22.37 6.91,-7.76 3.28,-1.74 7.26,-11.54 5.78,-0.14 -0.88,3.56 8.27,-2.48 13.13,-8.66 4.9,-2.14 5.04,-8.18z"/>
   <path class="fil0" d="M848.47 2264.56c9.62,-4.22 11.22,-17.01 27.38,-6.29 20.88,13.84 17.35,4.3 25.81,16.93 22.15,1.84 15.96,40.86 -2.66,31.92 -0.33,14.68 -3.54,10.11 -4.81,21.4 -1.38,12.27 -0.37,-3.17 -0.09,3.8 0.02,0.48 0.09,1.3 0.14,1.75 0.09,0.69 0.46,2.51 0.66,3.12 3.35,10.19 10.61,7.31 31.73,22.11 5.89,4.13 -1.3,3.39 12.27,3.69 0.91,-10.97 2,-7.18 7.03,-16.91 15.47,-29.94 14.25,-33.8 14.25,-68.2l-4.17 7.99c-0.98,2.94 -2.12,24.2 -9.6,35.71 -3.63,5.58 9.78,3.04 -7.74,4.17 0.2,22.45 -2.61,17.72 -5.08,20.75 -6.04,0.05 -7.82,1.06 -13.49,-1.28 -8.21,-3.38 -2.38,1.31 -6.14,-5.58 -0.12,-0.22 -2.09,-14.56 -1.39,-18.99 1.91,-12.18 1.01,-4.11 4.34,-12.06 2.35,-5.6 0.95,3.5 3.21,-9.24 0.24,-1.33 0.33,-12.2 0.15,-13.63 -1.94,-15.6 3,14.94 -1.07,-5.35 -1.83,-9.08 -8.42,-11.84 -17.23,-16.55 -15.15,-8.09 -12.09,-0.07 -13.59,-15.22 5,-4.14 0.47,-1.77 7.78,-4.31 14.52,-5.04 19.51,4.3 53.37,4.3 1.55,-1.85 2.5,-7.58 2.66,-7.97 -18.73,2.96 -26.4,3.12 -41.02,-6.85 -18.02,-12.29 -20.38,-7.77 -30.79,-19.75 2.16,-9.27 6.15,-14.57 10.64,-21.28 19.83,0 17.07,3.04 31.91,7.98 -2.52,-6.69 -2.4,-7.14 -13.43,-13.22 -6.74,-3.72 -9.76,-4.82 -18.48,-3.42 -6.8,8.88 -18.46,24.39 -17.69,32.85 0.64,7.04 -0.81,-3.88 3.36,7.1 7.38,19.41 -10.41,16.57 -22.91,16.57 6.32,2.87 -3.78,11 -5.31,23.96z"/>
   <path class="fil0" d="M773.26 2370.97c-6.52,-7.89 -51.9,-33.38 -60.47,-38.35l-3.26 16.98c19.39,0.5 4.11,-1.06 16.56,8.07 0.58,-0.37 1.51,-1.55 1.8,-0.98l7.28 -2.63c6.24,-0.93 2.79,0.17 12.21,0.95 -9.74,13.49 -3.08,-6.79 -7.98,7.98 10.56,5.07 22.84,11.71 33.87,7.98z"/>
   <path class="fil0" d="M2375.39 1995.89l13.3 2.66 -5.32 -7.98c-0.42,0.46 -1.03,0.62 -1.26,1.4l-6.73 3.92z"/>
   <polygon class="fil0" points="2463.18,1825.64 2465.84,1825.64 2465.84,1812.33 2463.18,1812.33 "/>
   <path class="fil0" d="M396.23 873.3c2.73,2.74 9.62,-3.83 3.08,-1.43 -0.06,0.02 -7.55,-3.03 -3.08,1.43z"/>
   <path class="fil0" d="M1130.44 1926.72c0,6.61 4.26,0.68 1.65,0 -0.03,-0.01 -1.65,-7.54 -1.65,0z"/>
   <path class="fil0" d="M1016.05 2267.22c0,6.61 4.25,0.68 1.65,0 -0.03,-0.01 -1.65,-7.55 -1.65,0z"/>
   <polygon class="fil0" points="2375.39,1995.89 2375.39,1993.22 2372.29,1995.44 "/>
   <polygon class="fil0" points="704.81,2333.73 702.15,2333.73 704.37,2336.83 "/>
   <polygon class="fil0" points="901.67,2275.2 899,2275.2 901.22,2278.31 "/>
   <path class="fil0" d="M1957.75 1849.58c0.27,0.26 0.8,-1.17 0.8,-0.8l0 0c-0.05,0.06 -1.06,0.53 -0.8,0.8z"/>
   <path class="fil0" d="M2303.57 2096.97c0.26,0.26 0.79,-1.17 0.8,-0.8l0 0c-0.06,0.05 -1.06,0.53 -0.8,0.79z"/>
   <path class="fil0" d="M680.87 1663.37l0.8 -0.79c-0.06,0.05 -1.06,0.53 -0.8,0.79z"/>
   <path class="fil0" d="M1955.09 1870.86l0.79 -0.79c-0.05,0.05 -1.06,0.53 -0.79,0.79z"/>
   <path class="fil0" d="M994.77 2376.29l0.8 -0.79c-0.05,0.05 -1.06,0.53 -0.8,0.79z"/>
   <path class="fil0" d="M2292.93 1971.94l0.8 -0.79c-0.05,0.05 -1.06,0.53 -0.8,0.79z"/>
   <path class="fil0" d="M523.92 538.12l0.79 -0.8c-0.05,0.05 -1.06,0.53 -0.79,0.8z"/>
   <path class="fil0" d="M1449.66 2277.86l0.8 -0.79c-0.05,0.05 -1.06,0.53 -0.8,0.79z"/>
   <polygon class="fil0" points="973.49,2275.2 974.95,2280.93 "/>
   <path class="fil1" d="M1377.76 195.74c322.96,0 615.34,132.36 826.97,346.37 211.6,213.96 342.48,509.56 342.48,836.04 0,326.48 -130.88,622.07 -342.48,836.04 -211.63,214 -504.01,346.37 -826.97,346.37 -322.96,0 -615.34,-132.36 -826.97,-346.37 -211.6,-213.97 -342.48,-509.56 -342.48,-836.04 0,-326.49 130.88,-622.08 342.48,-836.04 211.63,-214 504.01,-346.37 826.97,-346.37zm810.58 362.57c-207.45,-209.77 -494.04,-339.52 -810.58,-339.52 -316.55,0 -603.13,129.75 -810.58,339.52 -207.48,209.8 -335.81,499.66 -335.81,819.83 0,320.17 128.33,610.03 335.81,819.83 207.45,209.77 494.04,339.52 810.58,339.52 316.55,0 603.13,-129.75 810.58,-339.52 207.48,-209.81 335.81,-499.66 335.81,-819.83 0,-320.17 -128.33,-610.03 -335.81,-819.83z"/>
   <path class="fil1" d="M1377.76 570.43c220.64,0 420.38,90.43 564.96,236.62 144.55,146.17 233.95,348.08 233.95,571.1 0,223.02 -89.41,424.94 -233.95,571.1 -144.58,146.19 -344.32,236.62 -564.96,236.62 -220.64,0 -420.38,-90.43 -564.96,-236.62 -144.55,-146.17 -233.95,-348.09 -233.95,-571.1 0,-223.02 89.41,-424.94 233.95,-571.1 144.58,-146.2 344.32,-236.62 564.96,-236.62zm548.57 252.83c-140.4,-141.97 -334.35,-229.78 -548.57,-229.78 -214.22,0 -408.17,87.81 -548.57,229.78 -140.43,142 -227.29,338.18 -227.29,554.89 0,216.7 86.86,412.89 227.29,554.89 140.4,141.97 334.35,229.78 548.57,229.78 214.22,0 408.17,-87.81 548.57,-229.78 140.43,-142 227.29,-338.19 227.29,-554.89 0,-216.71 -86.86,-412.89 -227.29,-554.89z"/>
   <polygon class="fil2" points="1192.06,825.81 1563.45,825.81 1563.45,1192.46 1930.09,1192.46 1930.09,1563.84 1563.45,1563.84 1563.45,1930.48 1192.06,1930.48 1192.06,1563.84 825.42,1563.84 825.42,1192.46 1192.06,1192.46 "/>
  </g>
 </g>
</svg>
