<svg width="445" height="350" viewBox="0 0 445 350" fill="none" xmlns="http://www.w3.org/2000/svg">
<path d="M345 98H90V278H345V98Z" fill="white" stroke="#3C3C3C" stroke-width="1.3" stroke-miterlimit="1.5" stroke-linecap="square"/>
<rect x="105.65" y="128.65" width="223.7" height="133.7" fill="#F2EAF3" stroke="#3C3C3C" stroke-width="1.3"/>
<path d="M123.765 117.5C125.836 117.5 127.515 115.821 127.515 113.75C127.515 111.678 125.836 110 123.765 110C121.694 110 120.015 111.678 120.015 113.75C120.015 115.821 121.694 117.5 123.765 117.5Z" fill="white" stroke="#3C3C3C" stroke-width="1.3" stroke-miterlimit="1.5" stroke-linecap="square"/>
<path d="M108.75 117.5C110.821 117.5 112.5 115.821 112.5 113.75C112.5 111.678 110.821 110 108.75 110C106.679 110 105 111.678 105 113.75C105 115.821 106.679 117.5 108.75 117.5Z" fill="white" stroke="#3C3C3C" stroke-width="1.3" stroke-miterlimit="1.5" stroke-linecap="square"/>
<circle cx="217" cy="195" r="35.35" fill="#FFF3E6" stroke="#3C3C3C" stroke-width="1.3"/>
<path d="M217.973 176.514L217.973 201.811" stroke="#3C3C3C" stroke-width="1.3"/>
<path d="M217.973 207.649L217.973 213.486" stroke="#3C3C3C" stroke-width="1.3"/>
<path d="M279.99 300.657C279.99 300.657 279.153 299.314 278.269 297.891C276.93 295.734 275.004 294.007 272.71 292.907C268.955 291.102 263.015 288.225 259.062 286.318C256.441 285.054 254.315 282.983 253.002 280.412C251.075 276.645 248.138 270.915 245.936 266.617C244.238 263.3 245.469 259.23 248.724 257.35C248.724 257.35 236.878 236.833 231.45 227.431C230.746 226.211 230.557 224.756 230.93 223.389C231.304 222.023 232.211 220.855 233.443 220.143C236.012 218.66 239.283 219.518 240.751 222.061C245.581 230.427 255.313 247.256 255.313 247.256C253.711 244.483 254.683 240.93 257.485 239.312C260.287 237.695 263.849 238.63 265.45 241.403L266.739 243.635C265.864 241.072 266.918 238.146 269.383 236.723C272.185 235.106 275.748 236.041 277.349 238.814L278.684 241.127C277.809 238.564 278.857 235.627 281.321 234.204C283.995 232.66 287.375 233.44 289.063 235.933L289.612 236.858C289.612 236.858 295.253 246.628 301.126 256.801C302.282 258.803 303.136 260.98 303.634 263.239C304.435 266.827 305.669 272.375 306.332 275.322C306.634 276.651 307.119 277.92 307.804 279.106C308.807 280.843 310.182 283.225 310.182 283.225" fill="white"/>
<path d="M279.99 300.657C279.99 300.657 279.153 299.314 278.269 297.891C276.93 295.734 275.004 294.007 272.71 292.907C268.955 291.102 263.015 288.225 259.062 286.318C256.441 285.054 254.315 282.983 253.002 280.412C251.075 276.645 248.138 270.915 245.936 266.617C244.238 263.3 245.469 259.23 248.724 257.35M248.724 257.35C248.724 257.35 236.878 236.833 231.45 227.431C230.746 226.211 230.557 224.756 230.93 223.389C231.304 222.023 232.211 220.855 233.443 220.143C236.012 218.66 239.283 219.518 240.751 222.061C245.581 230.427 255.313 247.256 255.313 247.256C253.711 244.483 254.683 240.93 257.485 239.312C260.287 237.695 263.849 238.63 265.45 241.403L266.739 243.635C265.864 241.072 266.918 238.146 269.383 236.723C272.185 235.106 275.748 236.041 277.349 238.814L278.684 241.127C277.809 238.564 278.857 235.627 281.321 234.204C283.995 232.66 287.375 233.44 289.063 235.933L289.612 236.858C289.612 236.858 295.253 246.628 301.126 256.801C302.282 258.803 303.136 260.98 303.634 263.239C304.435 266.827 305.669 272.375 306.332 275.322C306.634 276.651 307.119 277.92 307.804 279.106C308.807 280.843 310.182 283.225 310.182 283.225M248.724 257.35L255.825 269.65" stroke="#3C3C3C" stroke-width="1.3" stroke-miterlimit="1.5"/>
<path d="M84.0004 74.0027V69.9994" stroke="#3C3C3C" stroke-width="1.3" stroke-miterlimit="1.5" stroke-linejoin="bevel"/>
<path d="M84.0004 93.9999V90.0014" stroke="#3C3C3C" stroke-width="1.3" stroke-miterlimit="1.5" stroke-linejoin="bevel"/>
<path d="M80.0018 75.0733L78.0001 71.6076" stroke="#3C3C3C" stroke-width="1.3" stroke-miterlimit="1.5" stroke-linejoin="bevel"/>
<path d="M89.9994 92.3917L87.9978 88.9308" stroke="#3C3C3C" stroke-width="1.3" stroke-miterlimit="1.5" stroke-linejoin="bevel"/>
<path d="M80.0018 88.9311L78.0001 92.392" stroke="#3C3C3C" stroke-width="1.3" stroke-miterlimit="1.5" stroke-linejoin="bevel"/>
<path d="M89.9994 71.6072L87.9978 75.0729" stroke="#3C3C3C" stroke-width="1.3" stroke-miterlimit="1.5" stroke-linejoin="bevel"/>
<path d="M75.9985 81.9997H72" stroke="#3C3C3C" stroke-width="1.3" stroke-miterlimit="1.5" stroke-linejoin="bevel"/>
<path d="M96.0015 81.9997H92.0031" stroke="#3C3C3C" stroke-width="1.3" stroke-miterlimit="1.5" stroke-linejoin="bevel"/>
<path d="M77.0745 78.0012L73.6088 75.9995" stroke="#3C3C3C" stroke-width="1.3" stroke-miterlimit="1.5" stroke-linejoin="bevel"/>
<path d="M94.3927 87.9997L90.927 86.0029" stroke="#3C3C3C" stroke-width="1.3" stroke-miterlimit="1.5" stroke-linejoin="bevel"/>
<path d="M90.927 78.0012L94.3927 75.9995" stroke="#3C3C3C" stroke-width="1.3" stroke-miterlimit="1.5" stroke-linejoin="bevel"/>
<path d="M73.6088 87.9997L77.0745 86.0029" stroke="#3C3C3C" stroke-width="1.3" stroke-miterlimit="1.5" stroke-linejoin="bevel"/>
</svg>
