<svg width="171" height="125" viewBox="0 0 171 125" fill="none" xmlns="http://www.w3.org/2000/svg">
<g clip-path="url(#clip0_2099_20389)">
<path d="M149.751 19.5552H18.5259V112.184H149.751V19.5552Z" fill="white" stroke="#3C3C3C" stroke-width="0.668989" stroke-miterlimit="1.5" stroke-linecap="square"/>
<rect x="26.5794" y="35.3278" width="115.118" height="68.803" fill="#FDEFE7" stroke="#3C3C3C" stroke-width="0.668989"/>
<path d="M35.9015 29.59C36.9672 29.59 37.8312 28.726 37.8312 27.6602C37.8312 26.5944 36.9672 25.7304 35.9015 25.7304C34.8357 25.7304 33.9717 26.5944 33.9717 27.6602C33.9717 28.726 34.8357 29.59 35.9015 29.59Z" fill="white" stroke="#3C3C3C" stroke-width="0.668989" stroke-miterlimit="1.5" stroke-linecap="square"/>
<path d="M28.1746 29.59C29.2404 29.59 30.1044 28.726 30.1044 27.6602C30.1044 26.5944 29.2404 25.7304 28.1746 25.7304C27.1089 25.7304 26.2449 26.5944 26.2449 27.6602C26.2449 28.726 27.1089 29.59 28.1746 29.59Z" fill="white" stroke="#3C3C3C" stroke-width="0.668989" stroke-miterlimit="1.5" stroke-linecap="square"/>
<path d="M131.739 47.8584H85.4248V74.1033H131.739V47.8584Z" fill="#DFCBE1" stroke="#3C3C3C" stroke-width="0.668989" stroke-miterlimit="1.5" stroke-linecap="square"/>
<path d="M108.582 54.4196V67.5421" stroke="#3C3C3C" stroke-width="0.668989" stroke-miterlimit="1.5" stroke-linecap="square"/>
<path d="M115.198 60.9809H101.966" stroke="#3C3C3C" stroke-width="0.668989" stroke-miterlimit="1.5" stroke-linecap="square"/>
<path d="M72.5594 47.8586H52.4897V94.1732H72.5594V47.8586Z" fill="#EDEDED" stroke="#3C3C3C" stroke-width="0.668989" stroke-miterlimit="1.5" stroke-linecap="square"/>
<path d="M85.4248 87.4833C85.4248 83.7905 88.3889 80.7935 92.0412 80.7935C100.841 80.7935 116.317 80.7935 125.123 80.7935C128.775 80.7935 131.739 83.7905 131.739 87.4833C131.739 91.1762 128.775 94.1732 125.123 94.1732C116.317 94.1732 100.841 94.1732 92.0412 94.1732C88.3889 94.1732 85.4248 91.1762 85.4248 87.4833Z" fill="#76B82A" stroke="#3C3C3C" stroke-width="0.668989" stroke-miterlimit="1.5" stroke-linecap="square"/>
<path d="M165.189 60.7236H154.896V71.0158H165.189V60.7236Z" fill="#FFC382" stroke="#3C3C3C" stroke-width="0.514607" stroke-miterlimit="1.5" stroke-linecap="square"/>
<path d="M165.189 81.3079H154.896V91.6H165.189V81.3079Z" fill="#76B82A" stroke="#3C3C3C" stroke-width="0.514607" stroke-miterlimit="1.5" stroke-linecap="round" stroke-linejoin="round"/>
<path d="M165.189 101.892H154.896V112.184H165.189V101.892Z" fill="#DFCBE1" stroke="#3C3C3C" stroke-width="0.514607" stroke-miterlimit="1.5" stroke-linecap="square"/>
<path d="M166.887 81.2564L165.611 79.9802C165.611 79.9802 161.7 83.8912 160.151 85.4401C159.986 85.6048 159.893 85.8312 159.893 86.0628C159.893 86.2995 159.986 86.5208 160.151 86.6855C160.511 87.0457 161.087 87.0457 161.447 86.6855C163.017 85.1262 166.887 81.2564 166.887 81.2564Z" fill="white" stroke="#3C3C3C" stroke-width="0.514607" stroke-miterlimit="1.5"/>
<path d="M164.698 77.9722L164.152 78.518L168.337 82.7026L168.883 82.1568L164.698 77.9722Z" fill="#3C3C3C" stroke="#3C3C3C" stroke-width="0.514607" stroke-miterlimit="1.5"/>
<path d="M170.417 78.4518C170.978 77.8909 170.978 76.98 170.417 76.4191C169.871 75.8736 168.992 75.8736 168.446 76.4191C167.262 77.6027 165.43 79.4399 165.43 79.4399L167.432 81.4417C167.432 81.4365 169.233 79.6354 170.417 78.4518Z" fill="#3C3C3C" stroke="#3C3C3C" stroke-width="0.514607" stroke-miterlimit="1.5" stroke-linecap="round" stroke-linejoin="round"/>
<path d="M84.4607 125.154C84.4607 125.154 84.4292 124.217 84.3977 123.224C84.3504 121.72 83.8778 120.262 83.035 119.018C81.6566 116.978 79.4826 113.741 78.0333 111.59C77.0723 110.164 76.5997 108.471 76.6864 106.762C76.8124 104.257 77.0014 100.445 77.1432 97.5854C77.2535 95.3799 79.073 93.6549 81.2785 93.6549C81.2785 93.6549 81.2785 79.6106 81.2785 73.1754C81.2785 72.3404 81.6093 71.537 82.2001 70.9462C82.7908 70.3555 83.5943 70.0247 84.4292 70.0247C86.17 70.0247 87.5799 71.4346 87.5799 73.1754C87.5799 78.9017 87.5878 90.4254 87.5878 90.4254C87.5878 88.5271 89.1237 86.9911 91.022 86.9911C92.9203 86.9911 94.4563 88.5271 94.4563 90.4254V91.9535C94.7635 90.3781 96.1577 89.1888 97.8275 89.1888C99.7258 89.1888 101.262 90.7247 101.262 92.623V94.2062C101.569 92.6309 102.963 91.4336 104.633 91.4336C106.445 91.4336 107.933 92.8357 108.059 94.6158L108.067 95.2538C108.067 95.2538 108.067 101.941 108.067 108.904C108.067 110.275 107.862 111.645 107.453 112.953C106.807 115.032 105.807 118.246 105.279 119.955C105.043 120.727 104.917 121.523 104.917 122.334C104.917 123.523 104.917 125.154 104.917 125.154" fill="white"/>
<path d="M84.4607 125.154C84.4607 125.154 84.4292 124.217 84.3977 123.224C84.3504 121.72 83.8778 120.262 83.035 119.018C81.6566 116.978 79.4826 113.741 78.0333 111.59C77.0723 110.164 76.5997 108.471 76.6864 106.762C76.8124 104.257 77.0014 100.445 77.1432 97.5854C77.2535 95.3799 79.073 93.6549 81.2785 93.6549C81.2785 93.6549 81.2785 79.6106 81.2785 73.1754C81.2785 72.3404 81.6093 71.537 82.2001 70.9462C82.7908 70.3555 83.5943 70.0247 84.4292 70.0247C86.17 70.0247 87.5799 71.4346 87.5799 73.1754C87.5799 78.9017 87.5878 90.4254 87.5878 90.4254C87.5878 88.5271 89.1237 86.9911 91.022 86.9911C92.9203 86.9911 94.4563 88.5271 94.4563 90.4254V91.9535C94.7635 90.3781 96.1577 89.1888 97.8275 89.1888C99.7258 89.1888 101.262 90.7247 101.262 92.623V94.2062C101.569 92.6309 102.963 91.4336 104.633 91.4336C106.445 91.4336 107.933 92.8357 108.059 94.6158L108.067 95.2538C108.067 95.2538 108.067 101.941 108.067 108.904C108.067 110.275 107.862 111.645 107.453 112.953C106.807 115.032 105.807 118.246 105.279 119.955C105.043 120.727 104.917 121.523 104.917 122.334C104.917 123.523 104.917 125.154 104.917 125.154" stroke="#3C3C3C" stroke-width="0.668989" stroke-miterlimit="1.5"/>
<path d="M81.2861 102.311V92.4181" stroke="#3C3C3C" stroke-width="0.668989" stroke-miterlimit="1.5"/>
<path d="M2.92802 14.0076C2.92802 14.7387 3.23636 15.4383 3.78611 15.9557C4.33586 16.4731 5.07921 16.7633 5.85603 16.7633C5.07921 16.7633 4.33586 17.0536 3.78611 17.571C3.23636 18.0884 2.92802 18.788 2.92802 19.5191C2.92802 18.788 2.61968 18.0884 2.06993 17.571C1.52018 17.0536 0.776821 16.7633 0 16.7633C0.776821 16.7633 1.52257 16.4731 2.06993 15.9557C2.61968 15.4406 2.92802 14.7387 2.92802 14.0076Z" fill="white" stroke="#3C3C3C" stroke-width="0.668989" stroke-miterlimit="1.5" stroke-linejoin="bevel"/>
<path d="M12.7717 0C12.7717 1.42094 13.3791 2.78066 14.4621 3.78625C15.545 4.79183 17.0093 5.35583 18.5395 5.35583C17.0093 5.35583 15.545 5.91984 14.4621 6.92543C13.3791 7.93101 12.7717 9.29073 12.7717 10.7117C12.7717 9.29073 12.1643 7.93101 11.0814 6.92543C9.99847 5.91984 8.53414 5.35583 7.00391 5.35583C8.53414 5.35583 10.0032 4.79183 11.0814 3.78625C12.1643 2.78503 12.7717 1.42094 12.7717 0Z" fill="white" stroke="#3C3C3C" stroke-width="0.668989" stroke-miterlimit="1.5" stroke-linejoin="bevel"/>
<path d="M52.4898 61.7529H2.05835V112.184H52.4898V61.7529Z" fill="white" stroke="#3C3C3C" stroke-width="0.668989" stroke-miterlimit="1.5" stroke-linecap="square"/>
<path d="M52.4898 61.7529H2.05835V112.184H52.4898V61.7529Z" fill="white" stroke="#3C3C3C" stroke-width="0.668989" stroke-miterlimit="1.5" stroke-linecap="square"/>
<path d="M9.13767 112.004H9.3583L9.44516 111.802L14.6473 99.6538H39.7623L44.9707 111.802L45.0576 112.004H45.2781H52.4898L52.7957 111.535L30.9463 62.1323L30.8582 61.9331H30.6404H23.8384H23.6204L23.5324 62.1326L1.75228 111.535L2.05835 112.004H9.13767ZM17.3358 93.3406L27.2047 70.317L37.0737 93.3406H17.3358Z" fill="#FFC382" stroke="#3C3C3C" stroke-width="0.668989" stroke-miterlimit="1.5" stroke-linecap="square"/>
<path d="M9.13767 112.004H9.3583L9.44516 111.802L14.6473 99.6538H39.7623L44.9707 111.802L45.0576 112.004H45.2781H52.4898L52.7957 111.535L30.9463 62.1323L30.8582 61.9331H30.6404H23.8384H23.6204L23.5324 62.1326L1.75228 111.535L2.05835 112.004H9.13767ZM17.3358 93.3406L27.2047 70.317L37.0737 93.3406H17.3358Z" fill="#FFC382" stroke="#3C3C3C" stroke-width="0.668989" stroke-miterlimit="1.5" stroke-linecap="square"/>
<path d="M1.80111 59.6946C2.79295 59.6946 3.60225 60.5039 3.60225 61.4957C3.60225 62.4875 2.79903 63.2968 1.80111 63.2968C0.809282 63.2968 0 62.4936 0 61.4957C0 60.4978 0.803197 59.6946 1.80111 59.6946Z" fill="white" stroke="#3C3C3C" stroke-width="0.668989" stroke-miterlimit="1.5" stroke-linecap="square"/>
<path d="M1.80111 59.6946C2.79295 59.6946 3.60225 60.5039 3.60225 61.4957C3.60225 62.4875 2.79903 63.2968 1.80111 63.2968C0.809282 63.2968 0 62.4936 0 61.4957C0 60.4978 0.803197 59.6946 1.80111 59.6946Z" fill="white" stroke="#3C3C3C" stroke-width="0.668989" stroke-miterlimit="1.5" stroke-linecap="square"/>
<path d="M52.7472 63.2968C53.7419 63.2968 54.5483 62.4904 54.5483 61.4957C54.5483 60.501 53.7419 59.6946 52.7472 59.6946C51.7524 59.6946 50.946 60.501 50.946 61.4957C50.946 62.4904 51.7524 63.2968 52.7472 63.2968Z" fill="white" stroke="#3C3C3C" stroke-width="0.668989" stroke-miterlimit="1.5" stroke-linecap="square"/>
<path d="M52.7472 63.2968C53.7419 63.2968 54.5483 62.4904 54.5483 61.4957C54.5483 60.501 53.7419 59.6946 52.7472 59.6946C51.7524 59.6946 50.946 60.501 50.946 61.4957C50.946 62.4904 51.7524 63.2968 52.7472 63.2968Z" fill="white" stroke="#3C3C3C" stroke-width="0.668989" stroke-miterlimit="1.5" stroke-linecap="square"/>
<path d="M1.80111 110.641C2.79295 110.641 3.60225 111.444 3.60225 112.442C3.60225 113.44 2.79903 114.243 1.80111 114.243C0.809282 114.243 0 113.44 0 112.442C0 111.444 0.803197 110.641 1.80111 110.641Z" fill="white" stroke="#3C3C3C" stroke-width="0.668989" stroke-miterlimit="1.5" stroke-linecap="square"/>
<path d="M1.80111 110.641C2.79295 110.641 3.60225 111.444 3.60225 112.442C3.60225 113.44 2.79903 114.243 1.80111 114.243C0.809282 114.243 0 113.44 0 112.442C0 111.444 0.803197 110.641 1.80111 110.641Z" fill="white" stroke="#3C3C3C" stroke-width="0.668989" stroke-miterlimit="1.5" stroke-linecap="square"/>
<path d="M52.7472 114.243C53.7419 114.243 54.5483 113.436 54.5483 112.442C54.5483 111.447 53.7419 110.641 52.7472 110.641C51.7524 110.641 50.946 111.447 50.946 112.442C50.946 113.436 51.7524 114.243 52.7472 114.243Z" fill="white" stroke="#3C3C3C" stroke-width="0.668989" stroke-miterlimit="1.5" stroke-linecap="square"/>
<path d="M52.7472 114.243C53.7419 114.243 54.5483 113.436 54.5483 112.442C54.5483 111.447 53.7419 110.641 52.7472 110.641C51.7524 110.641 50.946 111.447 50.946 112.442C50.946 113.436 51.7524 114.243 52.7472 114.243Z" fill="white" stroke="#3C3C3C" stroke-width="0.668989" stroke-miterlimit="1.5" stroke-linecap="square"/>
</g>
<defs>
<clipPath id="clip0_2099_20389">
<rect width="171" height="125" fill="white"/>
</clipPath>
</defs>
</svg>
