<svg xmlns="http://www.w3.org/2000/svg"><defs><font id="theme-icons" horiz-adv-x="1024"><font-face units-per-em="1024" ascent="960" descent="-64"/><glyph horiz-adv-x="512"/><glyph unicode="" d="M148.142 68.45c0-5.624-1.934-10.376-5.576-14.292-3.754-4.03-8.748-6.074-15.094-6.074H20.584c-14.434 0-21.692 6.792-21.692 20.366v135.34c0 5.518 2.154 10.322 6.376 14.35 4.306 3.922 9.382 5.962 15.316 5.962H127.47c6.016 0 10.9-2.042 14.762-5.962 3.974-4.028 5.908-8.832 5.908-14.35V68.45zm219.318 0c0-5.624-1.938-10.376-5.796-14.292-3.974-4.03-8.86-6.074-14.74-6.074H239.46c-6.016 0-11.04 2.044-15.342 6.074-4.306 3.916-6.35 8.666-6.35 14.292v225.972c0 5.518 2.044 10.264 6.35 14.346 4.302 3.922 9.328 5.908 15.342 5.908h107.464c5.88 0 10.766-1.986 14.74-5.908 3.858-4.082 5.796-8.828 5.796-14.346V68.45zm220.006 0c0-5.624-2.152-10.376-6.458-14.292-4.194-4.03-9.33-6.074-15.342-6.074H458.2c-5.912 0-10.986 2.044-15.292 6.074-4.248 3.916-6.402 8.666-6.402 14.292v351.928c0 5.572 2.154 10.348 6.402 14.346 4.306 3.974 9.38 5.988 15.292 5.988h107.464c6.012 0 11.148-2.014 15.342-5.988 4.306-3.998 6.458-8.774 6.458-14.346V68.45zm218.738 0c0-5.624-2.154-10.376-6.348-14.292-4.306-4.03-9.44-6.074-15.29-6.074H677.65c-6.012 0-10.874 2.044-14.732 6.074-3.866 3.916-5.964 8.666-5.964 14.292v518.062c0 5.576 1.99 10.292 5.576 14.35 3.754 3.974 8.778 5.904 15.122 5.904h106.916c5.85 0 10.982-1.876 15.29-5.68 4.194-3.812 6.348-8.668 6.348-14.574V68.45zm218.904 0c0-13.574-7.286-20.366-21.804-20.366H897.55c-14.404 0-21.694 6.792-21.694 20.366v759.156c0 13.52 7.29 20.31 21.694 20.31h105.754c14.52 0 21.804-6.792 21.804-20.31V68.45z"/><glyph unicode="" d="M511.98 784.896c-21.26 85.652-129.592 136.566-213.126 136.566C134.024 921.46.386 789.29.386 613.094c0-330.318 303.936-418.436 468.958-616.542 1.506-2.232 3.202-4.006 5.168-6.012 20.832-21.332 54.608-21.332 75.408 0 2 2.006 3.23 3.78 4.778 6.012 165.136 198.568 468.918 284.836 468.918 616.542 0 176.196-133.714 308.368-298.394 308.368-83.646-.002-191.942-50.916-213.242-136.566zm227.108-61.698c-20.024 3.778-35.278 21.798-35.278 43.402 0 24.226 19.254 44.714 42.676 44.714 33.886 0 75.02-24.876 109.528-60.158 35.278-36.042 61.074-84.34 61.074-116.072 0-24.11-19.332-43.982-42.664-43.982-20.876 0-38.442 15.632-41.98 36.354-10.782 44.256-47.294 84.732-93.356 95.742z"/><glyph unicode="" d="M1010.218 70.392c7.538-7.786 11.46-17.692 11.46-30.09 0-6.73-3.924-15.954-11.46-27.414-7.668-11.464-17.262-22.93-28.79-34.14-11.398-11.218-22.866-20.816-34.076-28.66-11.342-7.914-20.314-11.84-27.228-11.84-12.274 0-22.246 4.114-29.97 12.148L661.002 178.802c-34.892-22.492-72.15-39.938-111.71-51.898-39.564-12.274-80.188-18.254-121.87-18.254-58.316 0-113.142 10.902-164.7 33.082-51.432 22.122-96.604 52.586-135.542 91.336-39.062 38.628-69.53 83.676-91.68 135.2C13.382 419.73 2.322 474.62 2.322 532.938c0 58.19 11.058 113.08 33.178 164.544 22.15 51.524 52.618 96.54 91.68 135.324 38.94 38.658 83.986 69.282 135.294 91.494 51.276 22.274 106.228 33.456 164.948 33.456 58.348 0 113.02-11.182 164.294-33.456 51.342-22.212 96.384-52.834 135.45-91.494 38.94-38.784 69.406-83.8 91.526-135.324 22.12-51.464 33.208-106.354 33.208-164.544 0-41.744-6.104-82.492-18.194-122.18-12.146-39.876-29.47-76.946-51.96-111.278l228.472-229.088zM172.102 532.938c0-35.794 6.762-69.096 20.436-99.938 13.676-30.714 31.898-57.508 54.954-80.308 22.894-22.8 49.998-40.872 80.994-54.266 31.09-13.394 64.048-20.066 98.938-20.066s67.724 6.672 98.562 20.066c30.846 13.394 57.824 31.464 80.746 54.266 23.052 22.8 41.308 49.594 54.89 80.308 13.708 30.84 20.502 64.142 20.502 99.938 0 34.888-6.792 67.694-20.502 98.5-13.582 30.874-31.838 57.974-54.89 81.12-22.922 23.176-49.9 41.402-80.746 54.796-30.838 13.394-63.672 20.186-98.562 20.186-34.888 0-67.848-6.792-98.938-20.186-30.996-13.394-58.1-31.62-80.994-54.796-23.054-23.146-41.278-50.248-54.954-81.12-13.674-30.806-20.436-63.612-20.436-98.5zm255.32 160.742c8.474 0 15.888-3.116 21.996-9.22 6.136-6.23 9.282-13.924 9.282-23.302 0-8.474-3.144-15.886-9.282-22.022-6.108-6.2-13.522-9.378-21.996-9.378-26.82 0-49.75-9.346-68.626-27.944-18.878-18.784-28.378-41.774-28.378-68.876 0-8.6-3.116-15.888-9.22-22.12-6.262-6.106-13.552-9.098-22.026-9.098-9.876 0-17.724 2.992-23.708 9.098-5.982 6.23-8.846 13.518-8.846 22.12 0 21.618 4.048 42.18 12.368 61.804 8.348 19.688 19.782 36.854 34.516 51.712 14.706 14.828 31.65 26.542 51.056 34.766 19.376 8.286 40.342 12.46 62.864 12.46z"/><glyph unicode="" d="M556.56 126.454c-12.914-13.668-28.008-20.668-45.184-20.668-17.336 0-32.43 7-45.264 20.668L20.174 603.058C7.34 616.822.916 632.668.916 650.918c0 18.088 6.424 34.096 19.258 47.94l66.446 70.85c12.914 13.682 27.768 20.508 44.848 20.508 17.096 0 32.012-6.826 44.944-20.508l337.544-360.472L847.67 769.708c12.674 13.682 27.512 20.508 44.03 20.508 16.664 0 31.34-6.826 44.352-20.508l67.694-70.85c12.996-13.844 19.34-29.85 19.34-48.356 0-18.346-6.344-34.272-19.34-47.442L556.56 126.454z"/><glyph unicode="" d="M467.442 769.548c12.914 13.668 28.008 20.668 45.184 20.668 17.336 0 32.43-7 45.264-20.668l445.938-476.604c12.834-13.764 19.258-29.61 19.258-47.86 0-18.088-6.424-34.096-19.258-47.94l-66.446-70.85c-12.914-13.684-27.768-20.51-44.848-20.51-17.096 0-32.012 6.826-44.944 20.51L510.046 486.766 176.33 126.296c-12.674-13.684-27.512-20.51-44.03-20.51-16.664 0-31.34 6.826-44.352 20.51l-67.694 70.85C7.258 210.99.914 226.998.914 245.504c0 18.346 6.344 34.272 19.34 47.442l447.188 476.602z"/><glyph unicode="" d="M833.548 492.56c13.668-12.914 20.668-28.008 20.668-45.184 0-17.338-7-32.432-20.668-45.266L356.944-43.826c-13.764-12.836-29.61-19.258-47.86-19.258-18.088 0-34.096 6.422-47.94 19.258L190.296 22.62c-13.684 12.914-20.51 27.766-20.51 44.848 0 17.094 6.826 32.012 20.51 44.942l360.47 337.546-360.47 333.714c-13.684 12.674-20.51 27.512-20.51 44.03 0 16.664 6.826 31.34 20.51 44.352l70.85 67.694c13.844 12.996 29.852 19.34 48.358 19.34 18.346 0 34.272-6.344 47.442-19.34L833.548 492.56z"/><glyph unicode="" d="M190.454 403.442c-13.668 12.914-20.668 28.008-20.668 45.184 0 17.338 7 32.432 20.668 45.266l476.604 445.934c13.764 12.836 29.61 19.258 47.86 19.258 18.088 0 34.096-6.422 47.94-19.258l70.85-66.446c13.684-12.914 20.51-27.766 20.51-44.848 0-17.094-6.826-32.012-20.51-44.942L473.234 446.046l360.47-333.714c13.684-12.674 20.51-27.512 20.51-44.03 0-16.664-6.826-31.34-20.51-44.352l-70.85-67.694c-13.844-12.996-29.852-19.34-48.358-19.34-18.346 0-34.272 6.344-47.442 19.34l-476.6 447.186z"/><glyph unicode="" d="M1003.776 492.282c12.776-12.692 19.274-27.528 19.274-44.292 0-16.738-6.498-31.598-19.274-44.272L557.212-41.8c-12.778-12.692-27.958-19.146-45.22-19.146-17.218 0-32.422 6.456-45.182 19.146l-66.514 66.19c-12.908 12.822-19.276 27.808-19.276 45.048 0 17.328 6.368 32.01 19.276 44.272L625.05 337.444H63.526c-17.242 0-32.036 6.066-44.25 18.192C7.19 367.81.952 382.928.952 401.034v95.298c0 17.128 6.238 31.862 18.324 44.01 12.214 12.15 27.008 18.086 44.25 18.086H625.05l-224.754 223.84c-12.908 12.696-19.276 27.51-19.276 44.534s6.368 31.882 19.276 44.706l66.514 66.276c12.76 12.69 27.962 19.166 45.182 19.166 17.264 0 32.444-6.476 45.22-19.166l446.564-445.502z"/><glyph unicode="" d="M20.226 403.72C7.45 416.412.952 431.248.952 448.012c0 16.738 6.498 31.598 19.274 44.272L466.79 937.802c12.778 12.692 27.958 19.146 45.22 19.146 17.218 0 32.422-6.456 45.182-19.146l66.514-66.19c12.908-12.822 19.276-27.808 19.276-45.048 0-17.328-6.368-32.01-19.276-44.272L398.952 558.558h561.524c17.242 0 32.036-6.066 44.25-18.192 12.086-12.174 18.324-27.292 18.324-45.398V399.67c0-17.128-6.238-31.862-18.324-44.01-12.214-12.15-27.008-18.086-44.25-18.086H398.952l224.754-223.84c12.908-12.696 19.276-27.51 19.276-44.534s-6.368-31.882-19.276-44.706l-66.514-66.276c-12.76-12.69-27.962-19.166-45.182-19.166-17.264 0-32.444 6.476-45.22 19.166L20.226 403.72z"/><glyph unicode="" d="M511.22 261.908c20.26 0 39.648 2.746 58.096 8.354 18.45 5.486 36.208 12.844 53.164 21.628 17.016 8.852 33.472 19.012 49.3 30.228 15.96 11.41 31.418 23.128 46.628 35.032 46.122 35.968 92.622 71.31 139.554 105.744a51442.255 51442.255 0 0 0 141.8 103.66 284.778 284.778 0 0 0 11.41 8.382c3.926 2.682 7.668 5.892 11.344 9.536V94.618c0-16.89-6.172-31.54-18.512-43.822-12.406-12.276-27.3-18.45-44.632-18.45H65.154c-17.366 0-32.322 6.174-44.882 18.45C7.744 63.08 1.48 77.728 1.48 94.618v489.854c3.646-3.644 7.45-6.854 11.344-9.536 3.834-2.742 7.606-5.484 11.346-8.382 47.65-34.686 94.928-69.22 141.832-103.66 46.904-34.434 93.432-69.776 139.592-105.744a1353.202 1353.202 0 0 1 45.44-33.906c15.862-11.346 32.314-21.624 49.334-30.792 16.98-9.16 34.808-16.706 53.446-22.192 18.638-5.606 37.708-8.352 57.406-8.352zm0 123.854c-11.532 0-23.938 3.182-37.152 9.476-13.336 6.292-26.364 13.9-39.08 22.75a624.514 624.514 0 0 0-37.398 27.926c-12.218 9.69-22.872 17.76-32.162 24.244-44.69 33.256-88.886 66.038-132.67 98.48-43.728 32.6-88.384 65.448-133.824 99.044-8.48 6.512-18.36 15.24-29.612 26.274-11.31 11.064-21.812 23.188-31.6 36.554-9.754 13.342-18.076 26.802-24.902 40.642C5.97 784.806 2.54 797.3 2.54 808.458c0 14.806 6.67 27.706 19.946 38.74 13.342 10.94 27.522 16.458 42.668 16.458h894.22c15.09 0 29.238-5.518 42.386-16.458 13.094-11.034 19.632-23.932 19.632-38.74 0-11.158-3.426-23.652-10.218-37.304-6.856-13.84-15.148-27.3-24.934-40.642-9.79-13.368-20.378-25.49-31.602-36.554-11.218-11.034-21.128-19.762-29.606-26.274a14228.302 14228.302 0 0 1-133.828-98.668c-43.754-32.694-88.008-65.6-132.64-98.856-9.286-6.484-19.938-14.554-31.91-24.244a524.736 524.736 0 0 0-37.398-27.926c-12.96-8.85-26.054-16.458-39.328-22.75-13.278-6.294-25.492-9.476-36.59-9.476h-2.118z"/><glyph unicode="" d="M512.316 962.082c70.97 0 137.438-13.392 199.458-40.182 62.024-26.912 116.164-63.524 162.79-110.088 46.624-46.5 83.112-100.952 109.65-163.318 26.54-62.462 39.804-129.274 39.804-200.554 0-71.1-13.266-137.942-39.804-200.278-26.54-62.528-63.026-116.974-109.65-163.542C827.94 37.622 773.798.884 711.774-25.904c-62.02-26.79-128.488-40.18-199.458-40.18-71.04 0-137.474 13.39-199.714 40.18C250.326.884 196.19 37.622 149.752 84.12c-46.44 46.566-82.926 101.014-109.586 163.542C13.346 309.998-.018 376.84-.018 447.94c0 71.282 13.362 138.092 40.184 200.554 26.66 62.366 63.146 116.818 109.586 163.318 46.438 46.564 100.574 83.176 162.85 110.088 62.24 26.79 128.674 40.182 199.714 40.182zm0-873.828c50.068 0 96.632 9.51 139.814 28.418 43.184 18.898 80.988 44.622 113.534 77.166 32.418 32.544 58.078 70.598 76.914 113.904 18.842 43.374 28.23 90.062 28.23 140.198 0 50.254-9.388 97.004-28.23 140.318-18.836 43.308-44.496 81.234-76.914 113.934-32.544 32.55-70.472 58.298-113.784 77.17-43.434 18.898-89.998 28.352-139.564 28.352-49.948 0-96.632-9.454-140.072-28.352-43.434-18.872-81.234-44.622-113.562-77.17-32.138-32.702-57.8-70.626-76.638-113.934-18.712-43.312-28.1-90.064-28.1-140.318 0-50.134 9.388-96.824 28.1-140.198 18.836-43.306 44.5-81.36 76.638-113.904 32.328-32.544 70.128-58.268 113.562-77.166 43.44-18.908 90.124-28.418 140.072-28.418zM752.83 465.398c6.826-2.628 10.204-8.386 10.204-17.458 0-8.518-3.376-14.302-10.204-17.306l-349.48-202.69c-3.378-1.686-6.666-2.626-9.67-2.626-3.41 0-6.822.942-10.2 2.626-6.792 4.198-10.2 10.142-10.2 17.338V649.4c0 7.762 3.408 13.894 10.2 18.656 8.508 3.408 15.176 3.408 19.87 0l349.48-202.658z"/><glyph unicode="" d="M726.712 697.888c6.084 0 11.388-2.432 15.972-7.302 4.59-4.864 6.916-10.946 6.916-18.242 0-4.342-.386-7.738-1.05-10.282L461.128-45.8c-3.432-10.5-10.728-15.7-21.892-15.7-6.082 0-11.698 2.432-16.78 7.296-5.086 4.868-7.63 10.946-7.63 18.246 0 2.098.468 3.98 1.524 5.306l103.766 495.456c-4.036-1.436-12.216-4.092-24.436-7.85s-26.09-7.848-41.682-12.166a3046.287 3046.287 0 0 1-49.344-14.374c-17.33-5.304-33.418-10.17-48.37-14.704-14.926-4.536-27.808-7.96-38.642-10.504-10.864-2.544-17.282-3.758-19.378-3.758-6.716 0-12.44 2.54-17.002 7.738-4.56 5.304-6.854 11.168-6.854 17.688 0 2.878.304 4.646.996 5.422L381.72 937.482c1.35 5.752 4.172 10.504 8.402 14.374 4.26 3.732 9.092 5.64 14.536 5.64h175.008c6.076 0 11.444-2.432 16.028-7.296 4.536-4.866 6.86-10.946 6.86-18.136 0-2.21-.172-3.98-.498-5.416-.39-1.548-.886-3.538-1.552-5.97l-91.602-284.05c4.092 1.436 12.052 3.87 23.934 7.296 11.89 3.426 25.654 7.3 41.186 11.722 15.648 4.31 31.736 9.062 48.376 14.232 16.642 5.336 32.402 9.982 47.378 13.962 14.816 3.87 27.534 7.296 38.09 9.952 10.5 2.764 16.744 4.096 18.846 4.096z"/><glyph unicode="" d="M14.466 412.81c-7.688-18.368-11.474-37.574-11.474-57.528 0-33.422 8.732-63.68 26.192-90.864-4.282-25.274-2.872-50.46 4.446-75.98 7.316-25.274 19.536-47.476 36.996-66.758 1.704-35.832 11.386-65.512 28.846-89.292 17.458-23.606 39.24-42.562 65.468-56.86 26.186-14.382 54.996-24.36 86.292-30.008 31.302-5.82 61.932-8.648 91.656-8.648 30.76 0 61.602 2.16 92.532 6.652 30.842 4.57 61.186 10.558 90.946 18.286 29.848 8.484 59.61 17.628 89.2 27.516 29.594 9.648 59.938 14.632 91.118 14.632h239.672c20.872 0 38.824 7.32 53.704 22.204 14.882 14.628 22.286 32.582 22.286 54.032V491.54c0 20.866-7.402 38.612-22.286 53.374-14.878 14.712-32.832 22.03-53.704 22.03h-222.46c-11.476 5.986-20.618 12.554-27.52 19.536-6.734 7.068-14.218 15.464-22.282 25.236-6.73 8.478-13.878 16.832-20.868 24.688-6.898 7.814-14.292 15.918-22.028 23.986-13.972 14.88-30.262 29.512-48.468 43.896-18.454 14.172-32.508 30.09-42.23 47.592-6.816 12.424-11.808 26.104-14.628 41.234-2.996 15.172-5.824 30.382-8.148 45.846-2.332 15.21-4.906 30.262-7.902 44.722-3.076 14.512-7.98 27.274-15.048 38.66-6.98 11.306-17.038 20.202-30.09 26.852-12.972 6.652-30.264 9.938-52.042 9.938-25.938 0-49.8-5.364-71.292-16.296-21.532-10.846-39.65-25.478-54.656-43.894-14.842-18.25-26.44-39.282-34.794-62.89-8.354-23.776-12.512-47.76-12.512-72.038 0-25.186 3.786-49.172 11.226-72.034 7.396-22.7 16.54-45.68 27.1-68.67-14.88.832-29.76 1.828-44.722 2.908a665.5 665.5 0 0 1-44.728 1.498c-23.488 0-46.144-2.162-68.334-6.732-22.158-4.488-41.986-11.89-59.446-22.32-17.454-10.56-31.674-24.906-42.478-43.192-10.976-18.416-16.34-41.65-16.34-69.664 0-12.388 1.038-24.57 3.158-36.58a243.084 243.084 0 0 1 9.642-36.416zM820.988 82.606c-14.05 0-26.024 4.82-36.082 14.546-9.894 9.476-14.964 21.446-14.964 35.996 0 14.054 5.07 26.106 14.964 36.242 10.058 9.984 22.032 14.886 36.082 14.886 15.05 0 27.184-4.902 36.578-14.886 9.312-10.136 14.05-22.188 14.05-36.242 0-14.878-4.738-27.02-14.05-36.41-9.394-9.394-21.526-14.132-36.578-14.132zM116.682 280.38c-25.564 20.872-38.326 47.05-38.326 78.644 0 9.808 2.574 18.954 7.938 27.606 5.32 8.476 10.932 15.876 16.956 22.398-6.77 12.266-12.922 24.524-18.244 36.704-5.24 12.096-7.982 25.442-7.982 40.074 0 14.88 3.786 26.602 11.226 35.458 7.44 8.598 16.584 15.248 27.51 19.822 10.814 4.45 22.948 7.068 36.124 7.982 13.176.918 25.316 1.33 36.374 1.33 19.164 0 38.488-.666 57.9-1.952a842.47 842.47 0 0 1 57.736-1.952c13.344 0 26.354.622 39.408 1.952 13.052 1.288 25.396 4.45 37.412 9.604 0 17.54-3.368 34.08-10.31 49.88-6.776 15.794-14.34 31.588-22.694 47.636-8.192 16.042-15.75 32.756-22.282 50.21-6.65 17.54-9.89 36.828-9.89 58.234 0 14.09 2.202 28.062 6.65 41.862 4.526 13.88 10.81 26.558 18.872 37.742 8.106 11.344 18.162 20.784 30.01 28.182 12.014 7.484 25.776 11.224 41.57 11.224h7.066c2.99 0 5.402-.498 7.062-1.286 3.33-1.708 5.32-3.412 5.656-5.072.498-1.708 1.082-4.618 1.996-8.36a1765.858 1765.858 0 0 0 14.302-78.976c4.488-27.516 12.966-52.578 25.272-75.154 12.302-21.86 28.096-40.568 47.302-56.406a744.244 744.244 0 0 0 54.95-49.836c12.468-13.302 22.864-25.36 31.34-36.164 8.484-10.808 17.376-21.12 26.524-30.68 9.222-9.64 19.454-18.536 31.004-26.852 11.39-8.354 25.36-15.876 41.57-22.694h1.328V80.192c-29.848 0-58.774-3.656-87.042-10.64-28.094-6.98-56.524-14.464-85.376-22.446-28.68-7.98-58.776-15.214-90.366-22.278-31.512-6.984-65.554-10.558-102.338-10.558-19.164 0-39.986 1.16-62.598 3.742-22.532 2.66-43.77 8.308-63.598 16.958-19.828 8.812-36.368 20.95-49.798 36.246-13.464 15.21-20.114 35.578-20.114 60.684 0 4.328.162 8.316.54 11.972.542 3.492 1.158 7.484 1.952 11.722-14.842 6.816-26.354 18.124-34.166 33.926-7.938 15.786-11.852 31.586-11.852 47.21-.006 16.716 4.524 31.18 13.426 43.65z"/><glyph unicode="" d="M511.676 900.082c62.124 0 123.778-12.44 184.958-37.604 61.184-25.054 116.058-59.12 164.684-102.028 48.45-43.088 87.82-93.308 118.234-150.892 30.242-57.468 45.504-119 45.504-184.784 0-68.606-13.964-134.618-41.73-197.976l-14.5-33.954-93.128-14.676c-9.606-39.196-29.352-71.91-59.176-97.96-29.704-25.992-64.836-39.02-105.152-39.02V17.962c0-5.95-2.058-11.136-6.422-15.558-4.3-4.3-9.376-6.484-15.504-6.484h-42.792c-5.714 0-10.722 2.184-14.734 6.484-4.062 4.422-6.246 9.61-6.246 15.558v406.812c0 6.072 2.184 11.5 6.246 16.152 4.012 4.718 9.02 7.13 14.734 7.13h42.792c5.66 0 10.79-2.412 15.27-7.13 4.36-4.652 6.656-10.08 6.656-16.152v-21.922c31.364 0 60.18-8.308 86.176-24.934 26.054-16.622 46.382-38.546 61-65.66l20.868 4.012c11.79 33.95 17.512 70.136 17.152 108.504 0 47.216-11.668 91.188-35.066 132.266-23.34 40.852-53.696 76.744-91.07 107.686-37.246 30.946-78.624 55.29-124.36 73.09-45.742 17.682-90.476 26.552-134.39 26.552-43.854 0-88.528-8.87-134.062-26.552-45.444-17.8-86.94-41.906-124.044-72.496-37.338-30.474-67.692-66.488-91.06-107.804-23.37-41.32-35.04-85.2-35.04-131.622 0-39.254 5.656-75.676 17.15-109.624l20.836-4.012c14.648 27.114 34.954 49.04 61.036 65.66 25.992 16.624 54.814 24.934 86.14 24.934v21.922c0 6.072 2.094 11.5 6.452 16.152 4.248 4.718 9.376 7.13 15.504 7.13h42.792c5.688 0 10.49-2.412 14.408-7.13 3.952-4.652 5.896-10.08 5.896-16.152V17.962c0-5.95-1.946-11.136-5.896-15.558-3.918-4.3-8.72-6.484-14.408-6.484h-42.792c-5.686 0-10.812 2.184-15.294 6.484-4.362 4.422-6.66 9.61-6.66 15.558v23.226c-19.656 0-38.636 3.476-56.996 10.492-18.448 6.894-34.712 16.382-49.01 28.528-14.204 12.082-26.434 26.464-36.692 43.082-10.052 16.566-17.362 34.778-21.602 54.878l-93.686 14.676-13.97 33.954c-27.762 63.36-41.73 129.79-41.73 199.098 0 64.896 15.176 126.194 45.532 183.662 30.264 57.584 69.758 107.804 118.266 150.892 48.57 42.91 103.266 76.974 164.418 102.028 60.906 25.164 122.502 37.604 184.508 37.604z"/><glyph unicode="" d="M-.404-7.748L.85 39.824c4.21 1.564 10.292 3.126 18.436 4.688 8.002 1.62 18.044 3.182 30.118 4.744 38.264 7.134 60.63 13.664 67.35 19.63 6.612 4.016 17.012 17.292 31.126 40.272l145.156 364.386 172.542 430.204h78.538l6.91-11.878 125.78-286.022c13.778-30.844 26.94-60.77 39.878-89.83a3511.438 3511.438 0 0 0 36.812-86.424 15334.82 15334.82 0 0 1 32.628-77.14 4967.726 4967.726 0 0 1 26.442-61.128c5.072-11.492 10.932-25.27 17.792-41.498a2707.28 2707.28 0 0 0 22.758-55.778c9.478-26.046 22.868-55.832 39.878-89.018 10.316-19.298 17.402-30.676 21.084-33.86 8.42-7.028 22.476-11.878 42.444-14.166 10.266-.838 20.638-2.678 30.792-5.69 10.26-2.9 21.082-6.414 32.794-10.432 2.402-14.61 3.908-25.432 4.296-32.572V2.064c0-2.566-.616-5.8-1.894-9.812-17.792 0-36.48.446-56.058 1.224-19.408.836-39.824 1.896-61.02 3.626-21.972 1.56-42.554 2.622-61.634 3.512a1239.04 1239.04 0 0 1-54.27 1.172h-49.804c-13.72 0-24.768-.334-33.08-1.172L582.768-5.352l-35.586-1.172c0 7.976.282 15.728.612 23.424.45 7.754 1.062 15.288 1.956 22.924l80.316 15.396c23.596 5.522 37.65 10.484 41.776 14.89 4.966 3.126 7.644 8.426 8.034 15.954 0 5.522-1.394 11.49-4.35 17.794l-29.228 68.268-56.112 134.706-277.846 1.116c-4.968-11.38-12.694-30.4-22.982-56.892-10.432-26.55-24.152-61.744-41.192-105.698-9.54-24.934-14.112-41.498-13.72-49.866 0-10.654 3.292-19.132 10.04-25.38 5.716-4.012 14.11-7.528 24.904-10.482 10.794-3.012 23.9-5.632 39.27-7.922 5.714-1.564 23.26-4.014 52.232-7.196V9.542c0-6.362-.39-11.712-1.142-16.064-14.614 0-39.772.95-75.492 3.01-35.7 1.898-82.218 5.078-139.556 9.426L114.224.618C96.43-2.558 79.14-4.734 62.492-5.964A714.172 714.172 0 0 0 12.04-7.746H-.404zM341.562 380.9c56.194-.672 101.038-1.56 134.616-2.286 33.688-.84 55.55-.84 65.426 0l18.014 1.224c-7.472 20.134-15.838 42.138-25.098 66.096-9.428 23.984-20.078 49.752-32.18 77.474-12.108 27.606-22.76 51.818-32.02 72.394-9.426 20.584-17.458 37.762-24.04 51.542L341.562 380.9z"/><glyph unicode="" d="M876.938 494.134c15.512-5.192 27.954-14.382 37.144-27.45 9.504-13.072 14.132-28.144 14.132-45.086V12.384c0-20.57-7.754-38.394-23.078-53.59-15.192-15.258-33.324-22.95-54.086-22.95H173.576c-20.854 0-39.02 7.692-54.466 22.95-15.568 15.196-23.326 33.02-23.326 53.59v409.214c0 16.942 4.752 32.014 14.256 45.086 9.604 13.068 22.076 22.258 37.676 27.45v107.208c0 49.218 9.472 95.584 28.424 139.202 19.13 43.618 45.144 81.756 78.072 114.4 33.046 32.708 71.818 58.282 116.244 77.104 44.494 18.76 91.894 28.112 141.916 28.112 49.966 0 97.114-9.35 141.45-28.112 44.27-18.822 83.042-44.394 116.246-77.104 33.208-32.642 59.34-70.942 78.48-114.806 18.946-43.71 28.386-89.984 28.386-138.794v-107.21h.004zM720.23 601.342c0 28.672-5.438 55.594-16.258 80.418-10.882 24.796-25.882 46.366-44.898 64.658-18.946 18.26-41.144 32.796-66.656 43.49-25.518 10.634-52.152 15.98-80.044 15.98-29.328 0-56.278-5.346-81.04-15.98-24.83-10.694-46.9-25.23-66.162-43.49-19.228-18.292-34.262-39.99-45.116-65.066-10.848-24.95-16.26-51.746-16.26-80.01v-102.02H720.23v102.02zM556.9 229.434c12.754 7.75 23.326 18.386 31.456 31.64 8.126 13.32 12.312 27.574 12.312 42.774 0 24.016-8.624 44.648-25.882 62.152-17.324 17.454-38.148 26.14-62.412 26.14-24.382 0-45.148-8.688-62.532-26.14-17.324-17.504-25.886-38.136-25.886-62.152 0-15.2 4.002-29.454 11.944-42.774 8.006-13.254 18.322-23.386 31.328-30.39l-43.27-187.66H600.67l-43.77 186.41z"/><glyph unicode="" d="M726.398 963.076H297.63c-52.624 0-95.312-36.15-95.312-80.724V13.67c0-44.574 42.688-80.746 95.312-80.746H726.4c52.622 0 95.286 36.172 95.286 80.746v868.682c-.002 44.574-42.666 80.724-95.288 80.724zm-261.264-85.678h93.73c6.996 0 12.68-4.806 12.68-10.768 0-5.936-5.684-10.716-12.68-10.716h-93.73c-6.99 0-12.674 4.782-12.674 10.716 0 5.962 5.686 10.768 12.674 10.768zm-54.61 4.126c8.348 0 15.12-5.736 15.12-12.832 0-7.042-6.77-12.778-15.12-12.778s-15.118 5.736-15.118 12.778c0 7.096 6.794 12.832 15.118 12.832zM512.022-23.508c-32.9 0-59.564 22.59-59.564 50.458 0 27.824 26.664 50.414 59.564 50.414 32.904 0 59.52-22.59 59.52-50.414.002-27.868-26.616-50.458-59.52-50.458zM774.04 113.286H249.984v669.378H774.04V113.286z"/><glyph unicode="" d="M694.08 963.076H329.946c-44.694 0-80.946-36.15-80.946-80.724V13.67c0-44.574 36.252-80.746 80.946-80.746H694.08c44.69 0 80.92 36.172 80.92 80.746v868.682c0 44.574-36.23 80.724-80.92 80.724zM472.2 877.398h79.6c5.942 0 10.768-4.806 10.768-10.768 0-5.936-4.826-10.716-10.768-10.716h-79.6c-5.936 0-10.766 4.782-10.766 10.716 0 5.962 4.83 10.768 10.766 10.768zm-46.378 4.126c7.088 0 12.838-5.736 12.838-12.832 0-7.042-5.75-12.778-12.838-12.778-7.09 0-12.84 5.736-12.84 12.778 0 7.096 5.77 12.832 12.84 12.832zM512.02-23.508c-27.94 0-50.584 22.59-50.584 50.458 0 27.824 22.646 50.414 50.584 50.414 27.942 0 50.548-22.59 50.548-50.414-.002-27.868-22.606-50.458-50.548-50.458zm222.516 136.794H289.482v669.378h445.054V113.286z"/><glyph unicode="" d="M982.856 810.176c4.836-.324 10.208-1.71 16.16-3.892 17.458-7.548 26.186-20.612 26.186-39.098V128.404c0-18.574-8.728-31.61-26.186-39.156-5.954-2.242-11.324-3.422-16.16-3.422-12.262 0-22.464 4.128-30.544 12.504l-269.03 266.904v-134.34c0-17.692-3.418-34.554-10.32-50.422-6.9-15.8-16.098-29.778-27.598-41.926-11.496-12.032-24.944-21.644-40.338-28.602-15.45-7.02-32.02-10.496-49.828-10.496H127.416c-17.428 0-33.968 3.476-49.536 10.496-15.626 6.958-29.25 16.57-40.956 28.602-11.708 12.148-20.964 26.004-27.836 41.632C2.22 195.868-1.2 212.73-1.2 230.896v435.358c0 17.782 3.42 34.53 10.292 50.392 6.872 15.952 16.128 29.574 27.836 41.162 11.706 11.44 25.328 20.7 40.956 27.776 15.566 6.9 32.108 10.498 49.536 10.498h427.782c17.396 0 33.966-3.598 49.538-10.498 15.566-7.076 29.132-16.336 40.628-27.776 11.5-11.588 20.698-25.21 27.598-41.162 6.902-15.864 10.32-32.612 10.32-50.392V530.236l269.026 266.876c8.492 8.818 18.634 13.064 30.544 13.064z"/><glyph unicode="" d="M959.366 738.374c17.454 0 32.292-6.232 44.63-18.792 12.404-12.624 18.576-27.336 18.576-44.166V96.07c0-16.828-6.172-31.416-18.576-43.634-12.34-12.216-27.178-18.262-44.63-18.262H65.104c-17.334 0-32.292 6.044-44.852 18.262S1.428 79.242 1.428 96.07v579.344c0 16.83 6.264 31.542 18.824 44.166 12.562 12.56 27.52 18.792 44.852 18.792h202.838l32.1 67.51c6.668 15.398 18.886 28.578 36.558 39.582 17.736 10.876 35.316 16.364 52.674 16.364H634.72c17.328 0 34.908-5.486 52.67-16.364 17.642-11.004 30.05-24.184 37.094-39.582l31.542-67.51 203.34.002zM512.234 126.74c36.214 0 70.624 6.918 103.102 20.57 32.478 13.65 60.654 32.226 84.464 55.728 23.876 23.496 42.762 50.986 56.792 82.216 14.024 31.23 21.124 64.892 21.124 100.706 0 35.282-7.102 68.786-21.124 100.576-14.03 31.762-32.916 59.28-56.792 82.472-23.81 23.188-51.986 41.542-84.464 55.258-32.478 13.622-66.886 20.476-103.102 20.476-36.156 0-70.626-6.856-103.288-20.476-32.732-13.714-60.968-32.07-84.78-55.258-23.844-23.194-42.766-50.62-56.79-82.222-14.084-31.574-21.066-65.202-21.066-100.826 0-35.812 6.982-69.474 21.066-100.706 14.024-31.23 32.946-58.72 56.79-82.216 23.812-23.502 52.046-42.078 84.78-55.728 32.662-13.652 67.134-20.57 103.288-20.57zm0 434.974c25.182 0 48.624-4.612 70.438-13.71 21.754-9.226 40.83-21.666 57.04-37.496 16.206-15.802 29.046-34.438 38.52-55.76 9.354-21.41 14.092-44.258 14.092-68.786 0-24.406-4.738-47.156-14.092-68.35-9.472-21.258-22.314-39.958-38.52-56.104-16.208-16.144-35.408-28.798-57.35-38.026-21.944-9.1-45.376-13.652-70.126-13.652-25.062 0-48.682 4.552-70.626 13.652-22.004 9.226-41.078 21.88-57.286 38.026-16.302 16.146-29.11 34.968-38.556 56.29-9.38 21.446-14.118 44.196-14.118 68.164 0 24.528 4.738 47.376 14.118 68.786 9.448 21.322 22.254 39.958 38.556 55.76 16.208 15.83 35.282 28.27 57.286 37.496 21.942 9.098 45.562 13.71 70.624 13.71z"/><glyph unicode="" d="M792.52 419.324c11.996-14.164 18.11-30.444 18.558-49.166.332-18.714-5.89-34.828-18.558-48.16L505.444 21.922C492.776 8.59 477.11 1.48 458.23.814c-18.664-.888-33.774 6.22-45.55 21.108L47.272 449.094C34.446 464.038 23.44 482.76 14.22 505.312 4.95 527.756.282 548.638.282 567.744v259.864c0 18.832 6.336 35.104 19.162 48.71 12.668 13.838 28.39 20.666 46.832 20.666h247.746c9.004 0 18.888-1.164 29.106-3.498 10.45-2.224 20.89-5.83 31.448-10.498 10.55-4.718 20.55-10.168 29.656-16.108 9.336-5.838 16.894-12.278 22.776-19.162L792.52 419.324zM171.036 650.74c17.112 0 32.054 6.662 44.722 19.994 12.824 13.448 19.162 29.114 19.162 46.996 0 18.666-6.338 34.664-19.162 47.886-12.668 13.05-27.612 19.712-44.722 19.712-17.832 0-32.936-6.662-45.55-19.712-12.552-13.222-18.774-29.22-18.774-47.886 0-17.882 6.22-33.548 18.774-46.996 12.614-13.332 27.718-19.994 45.55-19.994zm833.68-232.47c12.778-14.28 19.004-30.834 19.004-49.888 0-18.94-6.226-35.276-19.004-48.716L718.86 19.704C706.2 6.264 690.418-.63 671.978-.962c-18.664-.448-34.32 6.446-46.996 20.666l-6.546 7.89 280.41 294.404c12.774 13.332 19.102 29.446 18.886 48.326-.222 18.998-6.446 35.328-18.886 49L533.328 847.72c-11.332 13.324-26.548 24.162-45.77 32.328-19.336 8.222-37.778 13.44-55.66 15.774h94.984c18.446 0 38.89-4.668 61.332-13.996 22.328-9.336 39.324-21.114 50.878-35.218l365.624-428.338z"/><glyph unicode="" d="M512-61.806C230.442-61.806 2.194 166.424 2.194 448c0 281.542 228.248 509.808 509.806 509.808 281.542 0 509.806-228.264 509.806-509.806C1021.808 166.424 793.542-61.806 512-61.806zM714.542 491.6L479.474 728.33c-25.428 25.574-66.784 25.742-92.376.314-25.594-25.422-25.744-66.75-.316-92.34L576.196 445.58 386.782 254.854c-25.428-25.594-25.278-66.952.316-92.344 12.726-12.642 29.376-18.984 46.002-18.984 16.798 0 33.558 6.438 46.374 19.286L714.542 399.54c25.292 25.494 25.292 66.582 0 92.06z"/><glyph unicode="" d="M512 957.808c281.56 0 509.808-228.232 509.808-509.808 0-281.542-228.248-509.806-509.806-509.806C230.46-61.806 2.194 166.46 2.194 448 2.194 729.576 230.46 957.808 512 957.808zM309.46 404.4l235.068-236.73c25.428-25.574 66.784-25.74 92.376-.312 25.594 25.422 25.744 66.75.316 92.34L447.806 450.422 637.22 641.148c25.428 25.594 25.278 66.952-.316 92.344-12.726 12.642-29.376 18.984-46.002 18.984-16.798 0-33.558-6.438-46.374-19.286L309.46 496.462c-25.294-25.494-25.294-66.582 0-92.062z"/><glyph unicode="" d="M865.156 596.89c0-35.71-5.14-69.776-15.344-101.96-10.278-32.22-23.934-62.714-40.968-91.714l-237.37-422.57C554.372-48.35 534.58-62.772 512.1-62.772c-22.556 0-42.044 14.422-58.23 43.418L215.272 404.442c-17.108 29-30.766 59.454-40.968 91.524-10.358 31.916-15.46 65.596-15.46 100.924 0 49.83 9.172 96.896 27.58 140.934 18.38 44.072 43.698 82.584 75.876 115.422 32.07 32.758 69.74 58.574 112.892 77.332 43.154 18.796 89.184 28.196 137.444 28.196 48.868 0 94.748-9.4 137.4-28.196C693 911.82 730.282 886.006 762.2 853.246c31.914-32.836 57.078-71.35 75.336-115.422 18.418-44.038 27.62-91.104 27.62-140.934zm-352.52-177.718c23.7 0 46.49 4.528 67.892 13.808 21.484 9.128 40.282 21.79 56.16 37.938 15.8 16.186 28.16 35.214 37.128 56.962 9.054 21.638 13.508 44.764 13.508 69.008 0 24.282-4.454 47.454-13.508 69.392-8.968 21.868-21.328 41.198-37.128 57.884-15.878 16.532-34.372 29.46-55.696 38.59-21.328 9.126-44.118 13.808-68.356 13.808-24.548 0-47.26-4.682-68.206-13.808-20.942-9.13-39.472-22.058-55.7-38.59-16.34-16.688-28.88-35.868-37.934-57.656-8.938-21.634-13.388-44.838-13.388-69.622 0-24.244 4.45-47.37 13.388-69.008 9.054-21.748 21.594-40.776 37.934-56.962 16.226-16.15 34.758-28.81 55.7-37.938 20.946-9.278 43.658-13.806 68.206-13.806z"/><glyph unicode="" d="M768-64L512 288 256-64c-35.328 0-64 28.672-64 64v896c0 35.328 28.672 64 64 64h512c35.328 0 64-28.672 64-64V0c0-35.328-28.672-64-64-64zm-16 960H272c-8.832 0-16-7.168-16-16s7.168-16 16-16h480c8.832 0 16 7.168 16 16s-7.168 16-16 16z"/><glyph unicode="" d="M960 832H64c-35.2 0-64-28.8-64-64V320c0-35.2 28.8-64 64-64h128V64l144 192h624c35.2 0 64 28.8 64 64v448c0 35.2-28.8 64-64 64zM320 448H192v128h128V448zm256 0H448v128h128V448zm256 0H704v128h128V448z"/><glyph unicode="" d="M512 896L0 384l96-96 96 96L256 0h512l64 384 96-96 96 96-512 512zm0-410.508c-49.988 0-90.512 40.52-90.512 90.508s40.524 90.51 90.512 90.51c49.984 0 90.51-40.524 90.51-90.51 0-49.988-40.526-90.508-90.51-90.508z"/><glyph unicode="" d="M534.626 937.372C522.182 949.816 497.6 960 480 960H96c-17.6 0-32-14.4-32-32V-32c0-17.6 14.4-32 32-32h768c17.6 0 32 14.4 32 32v576c0 17.6-10.182 42.182-22.626 54.626L534.626 937.372zM832 0H128v896h351.158c2.916-.48 8.408-2.754 10.81-4.478l337.556-337.554c1.722-2.402 3.996-7.894 4.476-10.81V0zm32 960H672c-17.6 0-21.818-10.182-9.374-22.626l210.746-210.746C885.818 714.182 896 718.4 896 736v192c0 17.6-14.4 32-32 32z"/><glyph unicode="" d="M256.002-64l512 512-512 512z"/><glyph unicode="" d="M0 960V-64h1024V960H0zM960 0H64v896h896V0z"/><glyph unicode="" d="M864 864L384 384 160 608 0 448 384 64l640 640z"/><glyph unicode="" d="M534.626 937.372C522.182 949.816 497.6 960 480 960H96c-17.6 0-32-14.4-32-32V-32c0-17.6 14.4-32 32-32h768c17.6 0 32 14.4 32 32v576c0 17.6-10.182 42.182-22.626 54.626L534.626 937.372zM832 0H128v896h351.158c2.916-.48 8.408-2.754 10.81-4.478l337.556-337.554c1.722-2.402 3.996-7.894 4.476-10.81V0zm32 960H672c-17.6 0-21.818-10.182-9.374-22.626l210.746-210.746C885.818 714.182 896 718.4 896 736v192c0 17.6-14.4 32-32 32z"/><glyph unicode="" d="M512 960C229.23 960 0 730.77 0 448S229.23-64 512-64s512 229.23 512 512-229.23 512-512 512zm0-896c-212.078 0-384 171.922-384 384s171.922 384 384 384 384-171.922 384-384S724.078 64 512 64z"/><glyph unicode="" d="M512.45 895.934c119.8 0 232.358-46.664 317.084-131.344 84.678-84.636 131.296-197.26 131.296-317.016 0-119.78-46.62-232.334-131.296-317.062C744.762 45.834 632.25-.784 512.45-.784c-119.71 0-232.358 46.62-317.038 131.296-84.68 84.728-131.3 197.306-131.3 317.062s46.62 232.38 131.344 317.016c84.636 84.68 197.282 131.344 316.994 131.344zm0 64.066C229.462 960 0 730.54 0 447.572 0 164.518 229.46-64.854 512.45-64.854c283.034 0 512.45 229.372 512.45 512.426C1024.898 730.54 795.482 960 512.45 960zm175.578-324.282c22.508 0 46.664-5.146 60.144-21.882 13.194-16.646 13.324-38.686 9.492-60.056-6.036-30.908-44.902-139.054-115.59-234.518-30.928-40.204-67.072-79.912-113.402-107.234-12.812-7.62-35.208-16.712-54.998-16.712-6.53 0-12.814.978-18.406 3.386-44.102 18.63-59.722 94.53-72.446 145.338-7.578 30.042-14.618 58.384-23.844 84.502-6.908 19.61-10.34 39.488-21.082 57.716-6.15 10.384-13.28 13.616-21.124 13.616-12.924 0-27.766-8.98-43.188-8.98-1.648 0-2.942.088-4.724.422-11.32 1.626-12.612 13.616-20.68 20.858v2.854c36.056 30.73 72.246 67.944 116.858 94.04 10.92 6.44 27.678 13.17 43.722 13.17 4.546 0 8.826-.512 13.192-1.76 18.006-5.238 32.624-29.372 39.042-49.426 7.444-23.198 11.41-51.388 15.11-74.028 6.908-40.358 4.68-100.86 34.406-132.566 8.112-8.784 15.914-12.346 23.132-12.346 21.616 0 38.24 32.086 48.358 50.784 11.586 21.592 22.058 44.1 23.796 64.624 3.7 42.274-13.238 53.014-46.482 53.014-5.348 0-11.188-.222-17.338-.712 25.226 78.084 99.476 110.708 121.312 114.006 7.582 1.11 16.006 1.89 24.74 1.89zm0 32.068c-9.806 0-19.63-.78-29.504-2.34-33.986-5.146-118.24-46.506-147.008-135.822-3.322-10.118-1.27-21.258 5.236-29.638 6.084-7.842 15.376-12.278 25.226-12.278.758 0 1.56.068 2.364.112 5.95.49 10.762.714 14.974.714 8.29 0 12.388-.892 14.082-1.426.538-1.962 1.382-6.864.446-16.802-1.336-15.732-11.364-36.19-20.01-52.146l-.936-1.738c-3.7-6.774-12.348-22.954-19.12-30.04-15.154 16.134-18.654 51.166-21.84 81.83-1.16 12.032-2.318 23.354-4.19 34.094-.536 3.342-1.158 6.774-1.738 10.34-3.476 21.66-7.488 46.172-14.574 68.19-9.004 28.168-29.682 61.372-60.614 70.374-6.952 2.006-14.44 3.076-22.196 3.076-27.232 0-51.166-12.346-60.212-17.582-32.178-18.852-58.408-42.228-83.834-64.758-12.68-11.298-24.224-21.996-36.724-31.89-7.622-6.06-11.632-15.288-11.632-25.048v-2.852c0-8.58 2.942-16.848 9.116-22.82.422-.58 1.114-2.094 1.872-3.12 4.724-7.578 14.776-23.488 36.702-26.652 3.142-.424 6.418-.712 9.738-.712 12.858 0 23.934 3.476 32.87 6.24 1.604.512 3.698 1.16 5.57 1.626 4.3-8.222 7.13-17.848 10.294-28.748 1.916-6.44 3.834-13.102 6.286-20.01 8.646-24.558 15.464-52.012 22.862-81.048l.134-.688c.89-3.414 1.784-6.976 2.63-10.72 13.726-55.98 32.58-132.792 88.468-156.302 9.18-4.01 19.566-5.97 30.842-5.97 26.206 0 54.062 10.96 71.308 21.214 55.666 32.802 96.58 81.516 122.472 115.298.088.176.224.334.358.466 70.506 95.198 113.738 208.224 121.27 247.554v.312c6.598 35.922 1.384 63.956-15.91 85.66-17.556 22.24-47.106 34.05-85.078 34.05z"/><glyph unicode="" d="M384.384 457.12c0-72.928 57.162-132.158 127.542-132.158s127.542 59.23 127.542 132.158v1.084c-13.624-14.278-32.34-23.158-53.176-23.158-41.018 0-74.418 34.66-74.418 77.14 0 30.674 17.458 57.312 42.304 69.624-13.144 4.842-27.37 7.492-42.304 7.492-70.33 0-127.49-59.306-127.49-132.182zm609.152 75.174C914.428 636.45 721.904 809.65 512.102 809.65c-210.004 0-402.782-173.2-481.888-277.356-17.81-23.84-27.598-49.62-28.252-75.174.656-25.554 10.442-51.336 28.252-75.122 79.106-104.21 271.732-277.362 481.66-277.362 210.032 0 402.554 173.15 481.662 277.362 18.06 23.786 27.9 49.566 28.506 75.122-.606 25.554-10.446 51.332-28.506 75.174zM511.874 236.82c-117.298 0-212.528 98.71-212.528 220.298 0 121.638 95.228 220.296 212.528 220.296s212.578-98.66 212.578-220.296c.028-121.586-95.278-220.298-212.578-220.298z"/><glyph unicode="" d="M967.384 783.27c-68.2-14.808-131.326-43.856-189.422-87.196-58.096-43.41-106.982-100.574-146.594-171.466-39.612-71.07-59.452-159.108-59.452-264.164 3.63-62.69 20.296-128.242 49.786-196.444H931.47c14.7 22.18 26.682 47.468 35.914 76.166 9.234 28.54 13.91 58.464 13.91 89.808 0 20.344-4.676 43.354-13.91 69.162-9.188 25.856-21.174 48.864-35.914 69.122H771.03c-3.764 33.292 0 67.348 11.156 102.398 10.958 34.99 27.578 67.778 49.714 98.212 22.136 30.392 48.78 57.592 80.208 81.576 31.344 23.938 66.384 41.526 105.144 52.548l-49.868 80.278zm-569.734 0c-68.22-14.808-131.392-43.856-189.464-87.196C150.112 652.664 101.16 595.5 61.524 524.608 21.934 453.538 2.162 365.5 2.162 260.444 5.77 197.754 22.396 132.202 51.902 64H361.67c14.718 22.18 26.75 47.468 35.98 76.166 9.276 28.54 13.914 58.464 13.914 89.808 0 20.344-4.638 43.354-13.914 69.162-9.252 25.856-21.26 48.864-35.98 69.122H201.252c-3.762 33.292 0 67.348 11.066 102.398 11.09 34.99 27.648 67.778 49.786 98.212 22.136 30.392 48.868 57.592 80.232 81.576 31.41 23.938 66.43 41.526 105.124 52.548l-49.81 80.278z"/><glyph unicode="" d="M688.762 958.092L121.296 390.578l324.356-324.24 567.51 567.488zM4.688 254.064L2.114 94.62-.528-65.05l319.252 5.152L161.74 96.992z"/><glyph unicode="" d="M533.332 5.464c87.208-87.248 228.764-87.248 316.012 0 54.198 54.004 74.848 128.894 61.468 198.824 22.994 11.684 43.69 25.196 60.812 38.034 2.004 1.436 10.53 7.354 12.618 9.008 9.574 7.876 15.754 19.712 15.754 33.07 0 12.662-5.526 24.196-14.534 31.832L809.878 460.334c-7.226 6.048-16.582 9.662-26.808 9.662-11.532 0-21.976-4.484-29.546-11.684-3.002-2.96-29.354-29.832-29.354-29.832-18.404-18.32-47.996-18.32-66.292 0L478.594 607.112c-18.234 18.276-18.234 47.91 0 66.186l29.154 29.092c7.726 7.57 12.164 18.166 12.164 29.676 0 11.466-4.438 21.692-11.642 29.22L357.642 942.368c-7.856 9.356-19.78 15.48-32.92 15.48-14.144 0-26.416-6.854-34.336-17.156l-2.544-3.426c-32.746-44.072-75.52-114.034-75.52-179.764 0-181.066 405.346-584.11 585.416-584.11 3.392 0 6.834.172 9.964.172 3.264-33.332-8.05-67.666-33.596-93.274-45.734-45.496-119.84-45.496-165.598 0L314.452 381.178c-62.358 62.096-163.27 62.096-225.716 0-62.316-62.162-62.316-162.75 0-224.78l96.518-94.734c20.866-20.646 54.44-20.646 75.414 0 20.538 20.756 20.538 54.154 0 74.998l-96.736 94.56c-20.584 20.78-20.584 54.308 0 75.066 20.866 20.582 54.524 20.582 75.412 0L533.332 5.464z"/><glyph unicode="" d="M709.04-60.292l-4.168 1.61c-86.95 34.238-303.942 131.904-439.506 298.96l-4.224 5.234C122.726 397.608 54.266 606.882 31.074 690.558l-1.208 4.278.86 4.392c5.596 28.13 24.836 67.67 52.818 108.494 25.442 36.38 58.254 72.264 81.81 89.492l9.438 6.932-2.066 3.036 73.014 47.992c21.31 6.73 47.572-.606 60.794-16.68l128.708-196.798c12.364-19.224 13.57-48.102-8.324-64.05l-58.014-47.082.474-.71-12.438-10.902c-16.058-14.084-19.914-17.978-32.024-35.172-7.792-11.064-5.984-19.822 4.606-46.454l2.032-5.432c16.404-26.1 53.864-84.574 103.12-146.72 65.02-64.748 128.118-114.716 152.154-133.042 15.728-7.868 28.714-14.89 42.318-7.318 18.22 10.206 22.536 13.644 38.412 28.202l6.914 6.366-.114.076 58.532 58.6c14.376 15.84 44.334 16.462 63.794 1.024L977.68 191.886c16.496-16.536 20.882-42.688 11.814-63.576l-2.816-4.538-52.456-63.062-1.904 1.574-7.902-8.744C904.92 31.96 865.744 2.916 826.97-18.59c-43.676-23.596-85.014-38.63-113.47-41.338l-4.46-.364zM299.46 257.802C427.526 104.056 628.418 12.098 714.234-22.066c23.41 3.324 58.382 16.714 94.744 36.392 30.286 16.79 56.478 35.924 73.598 50.808l-202.028 169.33c-9.916-8.452-17.672-13.61-33.178-22.354-26.376-14.668-51.576-6.73-80.696 8.598-27.29 20.52-91.928 71.624-159.984 139.624-51.942 65.296-90.352 125.232-108.732 155.262l-3.532 8.468c-10.114 25.332-20.74 52.108-.22 81.32 10.302 14.614 16.298 21.834 25.702 30.724L172.474 854.508c-16.624-15.456-38.318-39.578-58.214-67.982-23.284-34.002-40.22-67.38-45.944-90.37C92.2 611.27 159.782 409.388 293.57 265.558l5.966-6.44-.076-1.316zm430.212 24.032L929.47 113.64l26.406 31.712c2.124 7.098.15 15.364-3.36 18.878L773.202 309.924c-2.708 2.124-6.84 3.696-9.876 3.696l-33.654-31.786zm-504.8 615.196l146.576-216.168 32.594 26.446c4.682 3.44 1.08 11.908-.312 14.048L276.344 916.398c-1.32 1.392-10.042 5.048-17.16 3.622l-34.312-22.99z"/><glyph unicode="" d="M333.988 960c-47.486 0-85.834-37.666-85.834-84.294V-10.1c0-23.288 19.36-42.236 42.994-42.236 11.742 0 22.486 4.644 30.188 12.198l111.25 108.752c16.716 16.496 44.036 16.496 60.662 0L604.326-40.138c7.748-7.552 18.45-12.198 30.296-12.198 23.55 0 42.886 18.966 42.886 42.236v822.488c0 24.49 19.316 42.18 42.952 42.18h53.696c29.69 0 53.692 23.634 53.692 52.738-.002 29.136-24.004 52.694-53.694 52.694H333.988z"/><glyph unicode="" d="M982.946 98.332H36.344C16.372 98.332 0 81.962 0 61.762V-11.03c0-19.894 16.372-36.226 36.344-36.226h946.602c20.028 0 36.442 16.332 36.442 36.226v72.792c0 20.2-16.414 36.57-36.442 36.57zm-614.77 233.426h293.468l55.39-135.75h226.038L619.23 962H416.122L92.25 196.008h221.652l54.274 135.75zM516.14 712.17l84.656-216.194H430.152L516.14 712.17z"/><glyph unicode="" d="M774.106 193.204H578.208c-139.29 0-161.506 62.08-161.506 119.64 0 27.322 1.63 72.256 3.328 127.49h327.23c48.82 0 142.376 20.16 142.376 110.38 0 90.08-43.21 149.062-100.95 149.062H424.094c-.37 130.024-8.762 259.586-134.924 259.586-52.212 0-94.514-21.564-112.426-75.166-23.346-70.408-17.216-152.77-16.912-225.992.042-14.008.174-27.986.174-42.006.174-47.92 1.174-96.23 1.348-144.464.174-51.988.218-103.766.218-155.76 0-290.712 262.52-373.01 312.908-373.01 50.364 0 247.542-4.738 283.212-4.738 35.694 0 137.838 9.39 137.838 113.578 0 103.99-72.474 141.4-121.424 141.4z"/><glyph unicode="" d="M766.654 629.714h-173.4V735.76c0 39.776 28.254 49.056 48.142 49.056h122.38V959.74l-168.476.674c-187.124 0-229.644-130.516-229.644-214.082v-116.64h-108.31V449.386h108.31V-60.782h227.598v510.168h153.532l19.868 180.328z"/><glyph unicode="" d="M511.844 896.258c119.214 0 231.268-46.436 315.492-130.726 84.268-84.2 130.706-196.288 130.706-315.46 0-119.196-46.438-231.206-130.706-315.514C743.114 50.288 631.04 3.898 511.844 3.898c-119.084 0-231.228 46.39-315.494 130.66C112.08 218.866 65.6 330.898 65.6 450.07s46.48 231.26 130.75 315.46c84.266 84.292 196.386 130.728 315.494 130.728zm0 63.742C230.23 960 2 731.67 2 450.07 2 168.392 230.23-59.86 511.82-59.86c281.674.022 509.95 228.252 509.95 509.93 0 281.6-228.276 509.93-509.926 509.93zM320.688 577.548c70.252 0 127.442-57.17 127.442-127.454 0-70.364-57.212-127.532-127.442-127.532-70.366 0-127.554 57.168-127.554 127.532-.024 70.284 57.188 127.454 127.554 127.454zm0 31.89c-88.082 0-159.42-71.416-159.42-159.366 0-87.992 71.358-159.354 159.42-159.354 87.95 0 159.266 71.362 159.266 159.354-.022 87.97-71.316 159.366-159.266 159.366zm382.33-31.89c70.296 0 127.51-57.17 127.51-127.454 0-70.364-57.212-127.532-127.51-127.532-70.164 0-127.466 57.168-127.466 127.532 0 70.284 57.302 127.454 127.466 127.454zm0 31.89c-87.904 0-159.308-71.416-159.308-159.366 0-87.992 71.404-159.354 159.308-159.354 88.172 0 159.398 71.362 159.398 159.354 0 87.97-71.226 159.366-159.398 159.366z"/><glyph unicode="" d="M512.33 895.934c119.798 0 232.464-46.662 317.052-131.34 84.684-84.634 131.39-197.258 131.39-317.012 0-119.774-46.708-232.332-131.39-317.056C744.794 45.848 632.128-.772 512.33-.772c-119.71 0-232.376 46.622-317.01 131.298C110.642 215.25 63.934 327.828 63.934 447.582S110.642 679.96 195.32 764.594c84.634 84.678 197.3 131.34 317.01 131.34zm0 64.066C229.412 960 0 730.542 0 447.582 0 164.532 229.412-64.836 512.31-64.836c283.026 0 512.484 229.37 512.484 512.418C1024.816 730.542 795.336 960 512.33 960zm128.176-256.242v-88.044h-48.042c-33.114 0-32.042-12.59-32.042-35.632V543.67h80.086l-16.044-96.088H560.42V191.36H448.286v256.222h-48.022v96.088h48.022v45.236c0 72.022 35.966 114.806 120.978 114.806h71.242zm0 32.066h-71.22c-50.07 0-88.73-13.392-115.07-39.866-25.094-25.314-37.884-61.37-37.884-107.05v-13.236h-16.044c-17.738 0-32-14.308-32-31.978v-96.112c0-17.692 14.262-32.044 32-32.044h16.044V191.36c0-17.694 14.354-31.996 31.998-31.996h112.092c17.69 0 32.042 14.302 32.042 31.996v224.178h31.998c15.69 0 29.06 11.32 31.642 26.742l16.002 96.086c1.56 9.316-1.116 18.808-7.088 25.984-6.126 7.13-15.148 11.322-24.512 11.322h-48.042v7.976h48.042c17.694 0 32 14.104 32 31.778v88.288c0 17.76-14.306 32.11-32 32.11z"/><glyph unicode="" d="M383.266 704.444c35.29 0 63.826-28.536 63.826-63.86v-63.88H638.79c35.358 0 63.892-28.646 63.892-63.916 0-35.254-28.536-63.838-63.892-63.838H447.092v-63.936c0-25.642 17.068-63.87 63.96-63.87h127.736c35.358 0 63.892-28.578 63.892-63.87 0-35.29-28.536-63.868-63.892-63.868H511.052c-119.964 0-191.612 97.402-191.612 191.606v255.572c-.024 35.324 28.536 63.86 63.826 63.86zm0 31.99c-52.802 0-95.828-43.002-95.828-95.85V385.062c0-109.876 83.648-223.526 223.588-223.526h127.762c52.85 0 95.784 42.938 95.784 95.784s-42.934 95.826-95.784 95.826H511.026c-31.046 0-31.89 28.67-31.89 31.916v31.954h159.652c52.85 0 95.806 42.968 95.806 95.772 0 52.882-42.958 95.876-95.806 95.876H479.136v31.922c0 52.868-43.068 95.848-95.87 95.848zm127.76 159.686c119.406 0 231.724-46.536 316.126-131.006 84.45-84.382 130.982-196.71 130.982-316.138 0-119.45-46.534-231.7-130.982-316.196C742.75 48.332 630.432 1.84 511.026 1.84S279.304 48.332 194.808 132.78C110.408 217.276 63.87 329.546 63.87 448.976c0 119.428 46.54 231.756 130.938 316.138 84.496 84.47 196.812 131.006 316.218 131.006zm0 63.88C228.768 960 0 731.178 0 448.976 0 166.696 228.766-62.05 511.026-62.05c282.216.024 511.07 228.746 511.07 511.026 0 282.202-228.854 511.024-511.07 511.024z"/><glyph unicode="" d="M-2.926 18.888c0-47.412 38.38-85.792 85.828-85.792h858.16c47.412 0 85.864 38.38 85.864 85.792v858.214c0 47.394-38.452 85.81-85.864 85.81H82.902c-47.448 0-85.828-38.416-85.828-85.81V18.888zm193.12 429.096c0 71.012 57.712 128.742 128.724 128.742 29.56 0 56.808-10.03 78.526-26.616l179.35 81.346c-.432 3.18-.432 6.396-.432 9.648 0 71.03 57.748 128.74 128.72 128.74 71.046 0 128.76-57.71 128.76-128.74 0-71.012-57.786-128.742-128.76-128.742-33.066 0-63.312 12.432-85.97 33.048L446.12 466.882c1.086-6.18 1.518-12.432 1.518-18.864s-.432-12.684-1.518-18.9l172.992-78.31c22.658 20.416 52.94 32.85 85.97 32.85 71.046 0 128.76-57.712 128.76-128.722 0-71.046-57.786-128.722-128.76-128.722-70.972 0-128.72 57.748-128.72 128.722 0 3.216 0 6.468.432 9.648l-179.35 81.526c-21.718-16.768-48.966-26.848-78.526-26.848-71.012.002-128.724 57.714-128.724 128.722z"/><glyph unicode="" d="M.938 21.322c0-47.11 38.126-85.27 85.342-85.27h852.414c47.108 0 85.306 38.16 85.306 85.27V532.8c0 47.108-38.16 85.27-85.306 85.27h-63.918v255.74c0 47.11-38.196 85.27-85.27 85.27h-554.04c-47.144 0-85.306-38.162-85.306-85.27V618.072H86.28c-47.18 0-85.342-38.164-85.342-85.27V21.322zm767.214 784.242v-247.19c0-26.006-20.884-46.926-46.89-46.926H303.496c-25.97 0-46.82 20.884-46.82 46.926v247.19c0 26.042 20.812 46.892 46.82 46.892h417.766c26.006.036 46.89-20.85 46.89-46.892zm63.992-762.96H192.76c-23.446 0-42.598 19.19-42.598 42.634 0 23.374 19.154 42.6 42.598 42.6h639.384c23.446 0 42.598-19.226 42.598-42.6-.002-23.444-19.154-42.634-42.598-42.634zM150.16 266.384c0 29.434 23.842 53.312 53.204 53.312 29.47 0 53.384-23.878 53.384-53.312 0-29.394-23.916-53.238-53.384-53.238-29.36-.074-53.204 23.842-53.204 53.238z"/><glyph unicode="" d="M319.484-62.446v260.898C138.404 229.052 0 386.856 0 576.56 0 788.002 172 960 383.332 960h255.676c211.488 0 383.444-172 383.444-383.442 0-203.988-160.274-371.348-361.292-382.854L319.484-62.446zm63.848 894.608c-140.962 0-255.57-114.674-255.57-255.624 0-140.988 114.608-255.676 255.57-255.676h63.958V193.118l170.306 127.744h21.412c140.944 0 255.634 114.736 255.634 255.676 0 140.95-114.692 255.624-255.634 255.624H383.332z"/><glyph unicode="" d="M0 704v64h1024v-64H0zm0-192v64h1024v-64H0zm0-192v64h1024v-64H0zm0-192v64h512v-64H0z"/><glyph unicode="" d="M830.532 958H296.298C238.72 958 192 910.928 192 852.73V-7.32c0-28.988 23.53-52.752 52.182-52.752 14.292 0 27.372 5.9 36.708 15.272l135 135.672c20.294 20.8 53.43 20.8 73.756 0L624.376-44.8c9.406-9.372 22.418-15.272 36.708-15.272 28.722 0 52.18 23.764 52.18 52.752v780.97c0 30.59 23.496 52.704 52.082 52.704h65.188c36.036 0 65.23 29.476 65.23 65.796-.072 36.39-29.198 65.85-65.232 65.85zM454.116 424.01v-110.9H334.722v91.958c0 33.81 7.01 60.54 21.1 80.124 14.094 19.586 38.224 36.844 72.476 51.878l25.818-48.844c-21.07-9.908-35.662-19.718-43.684-29.494-8.09-9.776-12.544-21.372-13.42-34.72h57.104zm139.146 0v-110.9H473.87v91.958c0 33.81 7.012 60.54 21.1 80.124 14.09 19.586 38.222 36.844 72.542 51.878l25.75-48.844c-21.032-9.908-35.594-19.718-43.652-29.494-8.054-9.776-12.54-21.372-13.45-34.72h57.102z"/><glyph unicode="" d="M1004.462 908.426c-42.738 42.814-94.782-9.272-94.782-9.272s-260.21-260.26-312.344-312.358c-52.038-52.04-200.554-111.81-200.554-111.81L567.744 304.18s63.048 145.138 115.092 197.202c52.086 52.02 312.298 312.344 312.298 312.344s52.06 52.042 9.328 94.7zM202.28 304.18C123.22 115.122 136.23 7.466 3.258-25.354c512.45-89.11 512.45 277.49 512.45 277.49L344.806 423.08s-103.724-26.066-142.526-118.9z"/><glyph unicode="" d="M493.976 371.328l-359.89-360.34c-7.608-7.59-12.322-18.272-12.322-29.918 0-23.36 18.916-42.6 42.468-42.6 6.196 0 11.856 1.288 17.166 3.602 0 0 599.626 260.218 606.512 263.436 13.958 6.304 24.77 18.66 28.954 34.04L913.9 589.69l19.628-19.338c20.364-20.398 53.238-20.398 73.672 0 20.394 20.414 20.394 53.44 0 73.79L707.892 943.754c-20.238 20.414-53.18 20.414-73.512 0-20.394-20.494-20.394-53.376 0-73.774l19.238-19.37-350.282-97.548c-15.332-4.486-27.658-15.522-34.042-30.05L6.648 116.26c-2.106-5.148-3.394-10.62-3.394-16.538 0-23.648 19.144-42.564 42.5-42.564 12.066 0 22.876 4.924 30.58 12.964l359.23 359.71c-4.906 12.616-7.638 25.964-7.638 40.234 0 58.668 47.646 106.316 106.204 106.316 58.582 0 106.106-47.648 106.106-106.316 0-58.716-47.488-106.332-106.106-106.332-14.228.002-27.592 2.768-40.154 7.594z"/><glyph unicode="" d="M910.376 612.486L768.734 938.54 3.654 596.77l184.234-423.984V0H1024v612.486H910.376zm-722.488-63.184l-25.914-11.112 25.914-61.932V318.476L82.354 570.836l657.428 282.608L840.44 612.486h-65.868l-66.99 160.266L334.96 612.486H187.888v-63.184zM962.652 61.466h-713.95V550.31h713.952V61.466h-.002zM902.06 488.734H309.382V123.106H902.06v365.628z"/><glyph unicode="" d="M892.812 356.332L299.586-42.764c-18.522-12.408-39.976-18.844-61.502-18.844-17.738 0-35.526 4.216-51.708 13.014C150.422-29.568 128 7.838 128 48.53v798.368a109.966 109.966 0 0 0 58.374 97.176c35.918 19.11 79.49 16.912 113.21-5.81l593.228-399.242a109.881 109.881 0 0 0 48.738-91.36c.002-36.618-18.162-70.802-48.738-91.33z"/><glyph unicode="" d="M1024 765.582c-37.676-16.708-78.164-28.002-120.66-33.08 43.372 26 76.686 67.17 92.372 116.23-40.596-24.078-85.556-41.56-133.41-50.98-38.32 40.83-92.922 66.34-153.346 66.34-116.022 0-210.088-94.058-210.088-210.078 0-16.466 1.858-32.5 5.44-47.878-174.6 8.764-329.402 92.4-433.018 219.506-18.084-31.028-28.446-67.116-28.446-105.618 0-72.888 37.088-137.192 93.46-174.866-34.438 1.092-66.832 10.542-95.154 26.278-.02-.876-.02-1.756-.02-2.642 0-101.788 72.418-186.696 168.522-206-17.626-4.8-36.188-7.372-55.348-7.372-13.538 0-26.698 1.32-39.528 3.772 26.736-83.46 104.32-144.206 196.252-145.896-71.9-56.35-162.486-89.934-260.916-89.934-16.958 0-33.68.994-50.116 2.94C92.968 66.694 203.398 31.91 322.038 31.91c386.422 0 597.736 320.124 597.736 597.744 0 9.108-.206 18.168-.61 27.18 41.056 29.62 76.672 66.62 104.836 108.748z"/><glyph unicode="" d="M1021.294 462.68L680.88 735.016V598.838C68.102 598.836 0 258.422 0 190.318c136.204 272.36 612.822 136.156 680.878 136.156v-136.13l340.416 272.336z"/><glyph unicode="" d="M882.85-39.838c-36.514 0-73.038 13.954-100.818 41.918l-440.37 443.436 440.37 443.49c55.322 55.688 145.222 55.99 200.91.668 55.688-55.262 56.05-145.224.728-200.91L742.116 445.516 983.67 202.322c55.322-55.684 54.958-145.646-.728-200.912-27.658-27.538-63.938-41.248-100.092-41.248zm-740.792 0c36.546 0 73.07 13.954 100.816 41.918l440.404 443.436-440.404 443.49c-55.288 55.688-145.252 55.99-200.908.67-55.686-55.264-55.988-145.224-.696-200.91l241.554-243.25L41.27 202.322C-14.022 146.64-13.72 56.676 41.966 1.41c27.692-27.538 63.908-41.248 100.092-41.248z"/><glyph unicode="" d="M960.032 157.312L681.536 289.376c37.152 18.624 182.256 24.528 194.256 57.28 0 0-57.344 88.016-71.344 202.336-5.44 44.368-14.752 102.592-24 184.592C765.44 866.592 653.568 960 512.256 960h-.512c-141.312 0-253.184-93.408-268.176-226.4-9.248-82-18.56-140.224-24-184.592-14-114.336-71.344-202.336-71.344-202.336 12-32.752 157.088-38.656 194.256-57.28L63.968 157.312S0 134.848 0 81.84V-2.688C0-38.064 28.624-64 63.968-64h896.064C995.376-64 1024-38.064 1024-2.688V81.84c0 53.008-63.968 75.472-63.968 75.472zM64 0v81.84c0 3.408 12.096 11.6 21.936 15.344 2.128.752 3.44 1.344 5.44 2.32l278.496 132.064c22.128 10.464 36.32 32.688 36.592 57.152.256 24.464-13.44 46.976-35.312 57.936-21.68 10.88-50.336 16.256-95.248 24.032-10.656 1.872-25.216 4.496-39.344 7.312 18.32 41.104 38.56 98.592 46.528 163.632 1.968 16.192 4.496 34.416 7.312 54.592 4.848 34.336 10.848 77.872 16.752 130.224C318.32 825.312 402.432 896 511.744 896h.512c109.312 0 193.44-70.688 204.592-169.568 5.904-52.336 11.904-95.888 16.752-130.224 2.816-20.176 5.344-38.4 7.312-54.592 7.968-65.024 28.224-122.512 46.528-163.632-14.128-2.816-28.688-5.44-39.344-7.312-44.912-7.776-73.568-13.152-95.248-24.032-21.872-10.976-35.568-33.472-35.312-57.936.288-24.464 14.464-46.688 36.592-57.152L932.624 99.488c2-.976 3.312-1.568 5.44-2.32 9.84-3.744 20.496-11.936 21.936-15.344L960.032 0H64z"/><glyph unicode="" d="M64.064 65.312c0 25.44 19.088 33.408 26.72 36.944l281.04 132.624c20.144 9.248 34.048 28.32 36.752 50.32 2.72 22-6.16 43.84-23.456 57.712-66.48 53.376-97.456 170.688-97.456 233.184V736c0 66.864 116.4 159.856 224.128 159.856 108.672 0 223.92-91.536 223.92-159.856V576.08c0-61.552-25.6-179.312-94.256-233.36a63.99 63.99 0 0 1-23.968-57.808c2.624-22.16 16.592-41.312 36.848-50.624l95.92-45.504 15.808 63.872-85.008 39.776c88.656 69.776 118.656 206.832 118.656 283.648V736c0 105.92-146.624 223.856-287.92 223.856-141.312 0-288.128-117.936-288.128-223.856V576.08c0-69.872 31.888-211.248 121.392-283.088L64.016 160.368S.064 131.872.064 96.4V.368c0-35.344 28.64-63.968 63.952-63.968h703.92v64L64.064.368v64.944zm927.872 62.816h-96v96c0 17.68-14.336 32-32 32s-32-14.32-32-32v-96h-96c-17.664 0-32-14.32-32-32 0-17.664 14.336-32 32-32h96v-96c0-17.664 14.336-32 32-32s32 14.336 32 32v96h96c17.664 0 32 14.336 32 32 0 17.68-14.32 32-32 32z"/><glyph unicode="" d="M63.504.24v64.944c0 25.44 19.104 33.424 26.72 36.944l281.04 132.624c20.144 9.248 34.048 28.32 36.752 50.32 2.72 22-6.16 43.84-23.456 57.712-66.48 53.376-97.456 170.704-97.456 233.184v159.92c0 66.864 116.4 159.856 224.128 159.856 108.672 0 223.936-91.536 223.936-159.856v-159.92c0-61.552-25.6-179.312-94.256-233.376a63.99 63.99 0 0 1-23.968-57.808c2.624-22.16 16.592-41.312 36.848-50.624l162.24-77.248 38.144 54.064-173.664 81.344c88.656 69.776 118.656 206.848 118.656 283.664v159.92c0 105.92-146.624 223.856-287.936 223.856S223.104 841.824 223.104 735.904v-159.92c0-69.872 31.888-211.248 121.392-283.088L63.456 160.24S-.496 131.744-.496 96.272V.24c0-35.344 28.64-63.968 63.952-63.968h639.712l-52 63.984L63.504.24zm948.704 236.256c-13.904 10.912-34.032 8.432-44.912-5.472L830.448 22.32l-85.056 85.072c-12.496 12.496-32.768 12.496-45.264 0s-12.496-32.752 0-45.248L813.264-50.992c12.496-12.496 32.752-12.496 45.248 0 3.04 3.024 5.312 6.544 6.88 10.288L1017.696 191.6c10.88 13.904 8.432 34.016-5.488 44.896z"/><glyph unicode="" d="M799.12 576.144v159.92c0 105.92-146.608 223.856-287.904 223.856-141.312 0-288.128-117.936-288.128-223.856v-159.92c0-69.872 31.888-211.232 121.392-283.072L63.44 160.432S-.512 131.936-.512 96.464V.432c0-35.344 28.64-63.968 63.952-63.968h607.936v64L63.488.432v64.944c0 25.44 19.104 33.424 26.72 36.944l281.04 132.624c20.144 9.248 34.048 28.336 36.752 50.336 2.72 22-6.16 43.824-23.456 57.696-66.48 53.376-97.456 170.688-97.456 233.2v159.92c0 66.864 116.4 159.856 224.128 159.856 108.688 0 223.904-91.536 223.904-159.856v-159.92c0-61.552-25.6-179.328-94.224-233.36a63.794 63.794 0 0 1-23.968-57.792c2.592-22.16 16.56-41.312 36.848-50.624l18.112-8.352 28.064 51.792-19.488 14.72C769.12 362.288 799.12 499.328 799.12 576.144zM924.624 81.2l90.496 90.512c12.496 12.464 12.496 32.752 0 45.248-12.48 12.48-32.752 12.48-45.232 0l-90.512-90.528-90.496 90.528c-12.496 12.48-32.768 12.48-45.248 0-12.496-12.496-12.496-32.784 0-45.248L834.128 81.2 743.632-9.296c-12.496-12.48-12.496-32.768 0-45.264 12.48-12.464 32.752-12.464 45.248 0l90.496 90.512 90.512-90.512c12.48-12.464 32.752-12.464 45.232 0 12.496 12.496 12.496 32.784 0 45.264L924.624 81.2z"/><glyph unicode="" d="M735.808 32.128H285.872c-17.68 0-32-14.32-32-32s14.32-32 32-32h449.936c17.68 0 32 14.32 32 32s-14.304 32-32 32zm281.504 806.24c-3.024 14.88-16.16 25.568-31.344 25.568H829.344v31.936c0 17.68-14.32 32-32 32H221.808c-17.68 0-32-14.32-32-32v-31.936H38.032c-15.184 0-28.32-10.688-31.344-25.568-.944-4.624-22.4-116.752 39.904-193.152 35.84-43.92 90.608-66.928 162.496-68.976C250.08 455.088 353.152 365.376 477.28 352V129.088h-95.776c-17.68 0-32-14.32-32-32s14.32-32 32-32h258.688c17.68 0 32 14.32 32 32s-14.32 32-32 32H541.28v222.88c124.336 13.12 227.632 102.8 268.736 224.08 74.336 1.088 130.736 24.24 167.392 69.168 62.304 76.416 40.848 188.528 39.904 193.152zM96.4 685.44c-28.336 34.496-31.184 85.408-29.744 114.496h123.152V691.904c0-17.296 1.6-34.16 3.936-50.768-43.68 4.08-76.448 18.832-97.344 44.304zm668.944 6.464c0-153.088-114.72-277.664-255.712-277.664-141.056 0-255.808 124.56-255.808 277.664v171.968H765.36V691.904zM927.6 685.44c-21.68-26.432-56.032-41.488-102.272-44.864 2.384 16.784 4.016 33.84 4.016 51.328v108.032h128c1.44-29.12-1.408-80-29.744-114.496z"/><glyph unicode="" d="M704.144 960H319.856c-53.024 0-96-42.976-96-96V32c0-53.024 42.976-96 96-96h384.288c53.024 0 96 42.976 96 96v832c0 53.024-42.976 96-96 96zm32-928c0-17.664-14.336-32-32-32H319.856c-17.664 0-32 14.336-32 32v832c0 17.664 14.336 32 32 32h384.288c17.664 0 32-14.336 32-32V32zM512.048 159.824c-35.28 0-63.84-28.592-63.84-63.824s28.576-63.84 63.84-63.84c35.28 0 63.84 28.608 63.84 63.84s-28.56 63.824-63.84 63.824zm64 704.176h-128c-17.664 0-32-14.336-32-32s14.336-32 32-32h128c17.664 0 32 14.336 32 32s-14.336 32-32 32z"/><glyph unicode="" d="M960 864.192H64c-35.184 0-64-28.8-64-64V256c0-35.184 28.816-63.984 64-63.984h416V95.808H320c-17.664 0-32-14.336-32-32s14.336-32 32-32h384c17.664 0 32 14.336 32 32s-14.336 32-32 32H544v96.208h416c35.184 0 64 28.8 64 63.984v544.192c0 35.2-28.816 64-64 64zM960 256H64v544.192h896V256z"/><glyph unicode="" d="M934.32 894.096c10.432 0 17.776-1.936 21.6-3.408 4.592-12.224 10.752-56.032-34.528-101.344L690.4 558.368l1.664-28.656c3.504-59.968 10-167.44 15.6-259.568 4.944-82 9.632-159.44 9.936-166.032.16-4.528.224-5.6-4-10.688-9.44-11.472-27.056-30.912-41.904-47.024-23.024 62.032-71.408 193.056-98.128 266.4l-34.336 94.368-71.024-71.024L337.6 210.56l-18.192-18.16-.56-25.68c-.432-20.496-.336-57.28-.288-89.712.064-22.592.128-43.12-.032-54.432-.288-.528 4.368-1.152 3.936-1.904-2.784 4.464-5.776 9.28-8.944 14.288-26.336 42-62.784 100.096-73.904 118.224l-8.128 13.28-13.344 8.064c-48.528 29.312-102.288 63.152-135.088 84.288 1.136.656 2.064-2.816 2.816-2.416H88c10.32 0 27.376-.224 46.496-.496 25.008-.336 53.376-.752 75.088-.752 8.32 0 15.712.064 21.664.192l25.68.592 18.16 18.16 125.744 129.712 70.784 70.752-93.936 34.56c-70.592 25.968-205.808 76.464-269.056 100.224 16.224 14.944 35.776 32.688 47.184 42.128 3.184 2.624 5.664 3.968 7.376 3.968l2.256-.064c7.056-.336 94.688-6.064 179.408-11.6 89.936-5.872 191.44-12.496 249.152-16.16l28.848-1.808 231.024 231.04c32.448 32.4 64.32 37.248 80.448 37.248zm0 64c-37.808 0-84.224-14.528-125.68-56L598.032 691.504c-118.624 7.504-422.432 27.6-429.968 27.808-1.344.064-3.008.128-4.88.128-10.256 0-27.968-1.968-48.128-18.624-23.664-19.568-73.008-65.968-73.008-65.968-11.904-11.936-17.936-26.72-16.496-40.624.88-8.4 5.44-23.712 26.064-31.776 12.528-4.912 211.904-79.504 303.968-113.376L229.84 319.36c-5.568-.128-12.464-.192-20.256-.192-38.336 0-97.776 1.248-121.6 1.248-3.152 0-5.68 0-7.472-.064-7.248-.224-22.256 3.344-61.84-29.744l-2.816-2.624C3.984 276.112 1.2 264.272.944 256.448c-.256-8.064 1.904-19.68 13.568-29.024 7.008-5.664 96.848-63.184 170.528-107.68 17.664-28.816 98.944-158 103.184-165.008 6.192-10.464 16.32-16.432 28.432-16.816h1.008c11.776 0 23.872 5.84 35.712 17.344 33.504 39.184 28.88 55.408 29.024 62.224.528 21.376-.368 111.936.4 147.84l130.592 125.6C546.768 199.248 619.728 1.92 624.608-10.64c8.128-20.624 23.44-25.152 31.84-26a36.24 36.24 0 0 1 4.16-.224c12.624 0 25.712 5.936 36.432 16.656 0 0 46.256 49.088 65.904 72.976 19.68 23.872 18.912 44.256 18.528 53.872-.16 6.656-18.688 308.816-25.568 426.816L966.56 744.112c74.656 74.688 62.784 164.688 35.056 192.368-12.24 12.304-37.024 21.616-67.296 21.616z"/><glyph unicode="" d="M849.152 960h-638c-46 0-66.032-34-66.032-66V766.688h-34.928c-17.312 0-31.344-14.032-31.344-31.344S92.88 704 110.192 704h34.928V575.248h-31.936c-17.312 0-31.344-14.032-31.344-31.344s14.032-31.344 31.344-31.344h31.936V383.12h-32.624c-17.312 0-31.344-14.032-31.344-31.344s14.032-31.344 31.344-31.344h32.624V191.968h-32.624c-17.312 0-31.344-14.032-31.344-31.344s14.032-31.344 31.344-31.344h32.624V0c0-53.024 41.536-64 64.528-64h639.504c53.024 0 96 42.976 96 96v832c0 53.024-42.96 96-96 96zM209.12 0v129.28h33.344c17.312 0 31.344 14.032 31.344 31.344s-14.032 31.344-31.344 31.344H209.12v128.464h33.344c17.312 0 31.344 14.032 31.344 31.344s-14.032 31.344-31.344 31.344H209.12v129.44h34.032c17.312 0 31.344 14.032 31.344 31.344s-14.032 31.344-31.344 31.344H209.12V704h31.024c17.312 0 31.344 14.032 31.344 31.344s-14.032 31.344-31.344 31.344H209.12V894c0 .752.064 1.376.16 1.936.496.032 1.12.064 1.872.064h510V0H209.12zm672.032 32c0-17.664-14.336-32-32-32h-64v896h64c17.664 0 32-14.336 32-32V32z"/><glyph unicode="" d="M792.848 223.28c-101.344 0-158.864 47.632-196.944 79.152-13.472 11.152-25.728 21.904-36.88 31.664-16.912 14.848-38 33.344-45.344 35.904-.224 0-3.712.16-3.936.192-1.168-.096-4.144-.688-4.448-.72-5.072-2.064-23.088-17.568-37.568-30-13.136-11.28-28.112-24.16-45.04-37.376l-3.088-2.368c-43.472-33.936-97.584-76.16-193.152-76.16-70.992 0-140.928 32.128-182.576 83.872-27.92 34.688-57.296 95.024-38.672 185.472 2.256 10.944 10.016 19.904 20.432 23.632 10.48 3.776 22.016 1.712 30.608-5.376.624-.464 22.576-17.344 59.056-17.344 18.368 0 37.504 4.336 56.832 12.944 33.136 14.752 56.736 56.128 81.712 84.064 34.176 38.16 72.848 81.408 136.688 81.904 44.048 0 83.792-16.288 119.248-48.496 35.312 32.064 74.768 48.256 117.68 48.256 65.104-.496 104.592-43.776 139.44-82 25.44-27.872 49.472-69.216 82.608-83.968 19.328-8.592 38.672-12.944 57.488-12.944 37.872 0 61.504 17.312 62.448 18.064 8.768 6.496 20.32 8.192 30.48 4.224 10.144-4 17.68-12.88 19.712-23.664 17.088-89.44-12.96-149.408-41.184-183.968-42.768-52.4-113.904-84.96-185.6-84.96zM510.736 434.128c.992 0 3.68-.096 4.624-.192.032 0 4.688-.336 4.688-.368.336-.032 3.008-.368 3.296-.432 23.152-3.28 44.624-22.128 77.216-50.688 10.704-9.408 22.496-19.744 35.472-30.496 34.784-28.816 78.096-64.656 156.816-64.656 53.312 0 105.744 23.632 136.784 61.68 20.4 24.976 31.008 54.72 31.68 88.784-15.024-4.688-33.28-8.192-54.32-8.192-27.664 0-55.568 6.192-82.976 18.368-45.248 20.096-76.304 69.12-103.68 99.152-34.528 37.872-57.472 61.088-92.08 61.376-46.16 0-75.952-29.056-94.416-50.912-6.032-7.12-14.816-11.216-24.096-11.216s-18.08 4.128-24.08 11.248c-18.528 21.936-48.416 51.12-93.84 51.12-35.088-.256-57.408-23.28-90.992-60.848-27.056-30.224-57.696-79.472-103.232-99.68-27.392-12.192-55.104-18.368-82.304-18.368-20.4 0-38.064 3.408-52.624 8.032-.032-34.72 10.112-64.912 30.336-90.032 29.936-37.152 81.04-60.256 133.44-60.256 74 0 114.896 31.936 154.464 62.816l3.088 2.416c16.048 12.528 30.24 24.752 42.688 35.44 28.512 24.496 47.328 40.688 67.648 44.288.016-.016 9.696 1.616 16.4 1.616z"/><glyph unicode="" d="M513.584 960C355.456 960 224.08 831.776 224.08 673.664V222.352C224.08 64.224 355.456-64 513.584-64S799.936 64.224 799.936 222.336v451.328C799.936 831.776 671.712 960 513.584 960zm222.352-737.664C735.936 99.744 636.192 0 513.584 0S288.08 99.744 288.08 222.336v451.328C288.08 796.256 390.992 896 513.584 896s222.352-99.744 222.352-222.336V222.336zM512.336 768c-17.664 0-32-14.336-32-32V576c0-17.664 14.336-32 32-32s32 14.336 32 32v160c0 17.664-14.336 32-32 32z"/><glyph unicode="" d="M960.288 899.824v29.008c0 17.68-14.32 32-32 32H703.664c-17.68 0-32-14.32-32-32V798.176c0-.048.032-.096.032-.144v-397.52c0-96.32-54.336-174.656-150.656-174.656s-168.656 78.336-168.656 174.656v499.312h-.096v29.008c0 17.68-14.32 32-32 32H95.664c-17.68 0-32-14.32-32-32V798.176c0-.656.336-1.2.368-1.84V385.84c0-248.912 198.784-450.656 447.664-450.656S960.352 136.928 960.352 385.84v513.984h-.064zm-64-2.992V768.496H736.032v128.336h160.256zm-608 0V768.496H128.032v128.336h160.256zM511.68-.832c-213.216 0-383.664 173.472-383.664 386.656v318.672h160.336V400.512c0-131.808 100.848-238.656 232.656-238.656S735.68 268.704 735.68 400.512v303.984h160.656V385.824C896.336 172.64 724.912-.832 511.68-.832z"/><glyph unicode="" d="M595.344 895.28h.176zm0 0l-72.208-379.376 261.584-.88L428.656.72l72.208 417.376-261.568.912L595.344 895.28zm.048 64a68.65 68.65 0 0 1-5.152-.192c-11.296-.912-18.784-4.688-27.664-10.656a64.292 64.292 0 0 1-13.392-11.936 56.498 56.498 0 0 1-3.296-4.288L187.28 457.6c-14.16-19.408-16.24-45.024-5.36-66.432 10.864-21.408 32.832-34.976 56.912-35.152l184.736-1.344-58.08-342.192c-5.52-29.408 10.16-58.72 37.76-70.528a64.197 64.197 0 0 1 25.392-5.216c20.112 0 36.64 9.408 49.04 26.4L836.736 477.44c14.16 19.408 16.224 45.056 5.36 66.432-10.864 21.408-32.832 34.976-56.912 35.152l-184.736.32 57.456 300.88a62.473 62.473 0 0 1 1.824 15.056c0 34.624-27.568 62.848-62.064 63.968-.768.032-1.52.032-2.272.032z"/><glyph unicode="" d="M781.264 352.848c-16.256 7.28-35.088-.064-42.256-16.192-.656-1.424-66.128-144.208-229.44-146.128-1.008 0-2-.032-3.008-.032-153.664 0-219.936 140.368-222.688 146.4-7.312 16-26.192 23.12-42.32 15.872-16.096-7.28-23.248-26.208-15.968-42.336 3.408-7.568 85.376-183.936 280.848-183.936 1.28 0 2.592.032 3.872.032 203.872 2.4 283.84 176.656 287.12 184.064 7.248 16.16-.032 35.072-16.16 42.256zM512 960C229.216 960 0 730.784 0 448S229.216-64 512-64s512 229.216 512 512-229.216 512-512 512zm0-960C264.976 0 64 200.976 64 448s200.976 448 448 448 448-200.976 448-448S759.024 0 512 0zM351.504 480.176c35.264 0 63.84 28.592 63.84 63.824s-28.576 63.824-63.84 63.824c-35.28 0-63.84-28.592-63.84-63.824s28.56-63.824 63.84-63.824zm320 0c35.264 0 63.84 28.592 63.84 63.824s-28.576 63.824-63.84 63.824c-35.28 0-63.84-28.592-63.84-63.824s28.56-63.824 63.84-63.824z"/><glyph unicode="" d="M1016.4 463.36l-8.48 8.08c-.16.16-.336.224-.528.368L877.648 590.24c-9.344 8.944-24.448 8.944-33.824 0l-5.488-8.064c-9.344-8.944-6.304-23.408 3.04-32.336l76.464-69.344H546.496V853.84l69.344-76.464c8.944-9.344 23.408-12.384 32.336-3.024l8.064 5.472c8.944 9.376 8.944 24.48 0 33.84L543.072 937.632a31.87 31.87 0 0 1-12.32 13.296l-1.424 1.488c-4.432 4.672-10.336 7.008-16.224 6.976-5.904.032-11.776-2.304-16.288-6.976l-8.096-8.464c-.16-.16-.176-.368-.336-.544L372.88 815.664c-8.928-9.328-8.928-24.448 0-33.824l8.064-5.472c8.928-9.344 23.424-6.32 32.368 3.024l69.152 77.104V480.512H106.16l76.464 69.344c9.344 8.944 12.384 23.408 3.04 32.336l-5.472 8.064c-9.36 8.944-24.496 8.944-33.84 0L22.368 477.072a31.952 31.952 0 0 1-13.28-12.288L7.6 463.36C2.912 458.912.592 453.008.624 447.12c-.016-5.904 2.288-11.776 6.976-16.288l8.464-8.096c.16-.16.368-.176.528-.336l127.744-115.504c9.344-8.928 24.464-8.928 33.84 0l5.472 8.064c9.344 8.944 6.304 23.44-3.04 32.368l-77.12 69.152h379.008V39.52l-69.152 77.104c-8.944 9.344-23.44 12.368-32.368 3.024l-8.064-5.472c-8.928-9.376-8.928-24.496 0-33.824L488.416-47.392c.16-.176.192-.368.336-.528l8.096-8.48c4.512-4.672 10.384-7.008 16.288-6.976 5.872-.032 11.776 2.304 16.224 6.976l8.096 8.48c.16.16.224.336.368.528L656.256 82.352c8.944 9.344 8.944 24.464 0 33.824l-8.064 5.488c-8.944 9.344-23.408 6.304-32.336-3.04L546.512 42.16v374.336H920.48l-77.104-69.152c-9.344-8.944-12.368-23.44-3.024-32.368l5.472-8.064c9.376-8.928 24.496-8.928 33.824 0l127.744 115.504c.176.176.368.192.528.336l8.48 8.096c4.672 4.496 7.008 10.368 6.976 16.288.032 5.856-2.304 11.776-6.976 16.224z"/><glyph unicode="" d="M992 160H864v593.904L983.456 873.2c12.48 12.496 12.48 32.768 0 45.264-12.496 12.496-32.768 12.496-45.264 0L819.584 800H224v128c0 17.68-14.32 32-32 32s-32-14.32-32-32V800H32c-17.68 0-32-14.32-32-32 0-17.664 14.32-32 32-32h128V128c0-2.944.944-5.6 1.68-8.288.32-1.216.256-2.464.72-3.632 3.216-8.064 9.6-14.432 17.664-17.68 1.376-.56 2.88-.496 4.288-.848C186.88 96.912 189.28 96 192 96h608V-32c0-17.68 14.32-32 32-32s32 14.32 32 32V96h128c17.68 0 32 14.32 32 32s-14.32 32-32 32zM755.488 736L224 205.216V736h531.488zM269.28 160L800 689.984V160H269.28z"/><glyph unicode="" d="M928.144 784H95.856c-53.024 0-96-42.976-96-96V208c0-53.024 42.976-96 96-96h832.288c53.024 0 96 42.976 96 96v480c0 53.024-42.976 96-96 96zM95.856 720h832.288c17.664 0 32-14.336 32-32v-64H63.856v64c0 17.664 14.352 32 32 32zm832.288-544H95.856c-17.664 0-32 14.336-32 32v288h896.288V208c0-17.664-14.352-32-32-32z"/><glyph unicode="" d="M810.416-10.72l-170.4 201.664v353.504h21.312c17.68 0 32 14.32 32 32s-14.32 32-32 32h-53.312c-17.68 0-32-14.32-32-32V178.624a31.942 31.942 0 0 1 8.256-21.44L714.64-.16H309.36l130.368 157.344a31.942 31.942 0 0 1 8.256 21.44v397.824c0 17.68-14.32 32-32 32h-53.312c-17.68 0-32-14.32-32-32s14.32-32 32-32h21.312V190.944L213.584-10.72a32.04 32.04 0 0 1-5.504-34.432 32 32 0 0 1 29.248-19.008h549.344a32 32 0 0 1 29.248 19.008c5.12 11.552 2.976 25.056-5.504 34.432zM480 640.32c35.264 0 63.84 28.592 63.84 63.84 0 35.216-28.576 63.808-63.84 63.808-35.28 0-63.84-28.592-63.84-63.808 0-35.248 28.56-63.84 63.84-63.84zm208.48 94.992c62.368 0 112.928 50.336 112.928 112.416S750.864 960.144 688.48 960.144c-62.352 0-112.928-50.336-112.928-112.416s50.576-112.416 112.928-112.416zm-.496 161.024c26.656 0 48.336-21.584 48.336-48.128 0-26.528-21.68-48.128-48.336-48.128s-48.336 21.6-48.336 48.128c.016 26.544 21.68 48.128 48.336 48.128z"/><glyph unicode="" d="M511.728 896c108.672 0 223.92-91.536 223.92-159.856v-159.92c0-61.552-25.6-179.312-94.256-233.376a63.99 63.99 0 0 1-23.968-57.808c2.624-22.16 16.592-41.312 36.848-50.624l278.496-132.064c2.176-.992 26.688-5.104 26.688-39.344l.032-62.464L64 .496V65.44c0 25.44 19.088 33.424 26.72 36.944l281.024 132.624c20.16 9.248 34.064 28.32 36.768 50.32 2.72 22-6.16 43.84-23.456 57.712-66.48 53.376-97.456 170.704-97.456 233.184v159.92C287.616 802.992 404.016 896 511.728 896zm0 64C370.416 960 223.6 842.064 223.6 736.144v-159.92c0-69.872 31.888-211.248 121.392-283.088l-281.04-132.64S0 132 0 96.528V.496c0-35.344 28.64-63.968 63.952-63.968h895.552c35.344 0 63.968 28.624 63.968 63.968v96.032c0 37.6-63.968 63.968-63.968 63.968L681.008 292.56c88.656 69.776 118.656 206.848 118.656 283.664v159.92c0 105.92-146.64 223.856-287.936 223.856z"/><glyph unicode="" d="M511.984 923.872C230.016 923.872.64 694.464.64 412.496c0-177.152 89.68-339.184 239.904-433.408 14.944-9.472 34.688-4.88 44.096 10.096s4.88 34.72-10.096 44.096c-54.096 33.952-99.04 78.048-133.424 128.88l33.552 19.376c15.312 8.848 20.56 28.4 11.712 43.712-8.88 15.344-28.464 20.56-43.712 11.712l-33.6-19.392c-24.4 50.512-39.296 105.792-43.28 163.424h35.616c17.68 0 32 14.32 32 32s-14.32 32-32 32H65.952c4.24 58.688 19.776 114.304 44.56 164.592l32.16-18.56a31.743 31.743 0 0 1 15.968-4.288c11.056 0 21.808 5.744 27.744 16 8.848 15.312 3.6 34.88-11.712 43.712l-31.84 18.368c32.112 46.832 72.864 87.296 119.984 119.024l18.016-31.2c5.936-10.288 16.688-16 27.744-16 5.44 0 10.944 1.376 15.968 4.288 15.312 8.848 20.56 28.4 11.712 43.712l-17.952 31.072c49.328 23.792 103.68 38.656 160.976 42.816v-39.872c0-17.68 14.32-32 32-32s32 14.32 32 32v40c58.592-4.08 114.128-19.392 164.384-43.952l-17.36-30.048c-8.848-15.312-3.6-34.88 11.712-43.712a31.743 31.743 0 0 1 15.968-4.288c11.056 0 21.808 5.712 27.744 16l17.28 29.936a451.188 451.188 0 0 0 118.88-118.816l-29.968-17.312c-15.312-8.848-20.56-28.4-11.712-43.712 5.936-10.288 16.688-16 27.744-16 5.44 0 10.944 1.376 15.968 4.288l30.128 17.392C938.64 558.16 954 502.608 958.096 444H922.96c-17.68 0-32-14.32-32-32s14.32-32 32-32h35.12c-4.048-56.88-18.592-111.44-42.496-161.312l-31.68 18.288c-15.28 8.848-34.912 3.568-43.712-11.712-8.848-15.312-3.6-34.88 11.712-43.712L883.68 163.2c-35.104-52.24-81.44-97.392-137.36-131.824-15.056-9.28-19.712-29.008-10.464-44.032 6.064-9.808 16.528-15.216 27.28-15.216a31.895 31.895 0 0 1 16.752 4.752c152.464 93.904 243.472 256.784 243.472 435.632 0 281.952-229.408 511.36-511.376 511.36zm236.128-411.6c15.296 8.848 20.544 28.4 11.712 43.712-8.832 15.296-28.416 20.544-43.712 11.696L542.288 467.328c-9.28 5.248-19.856 8.496-31.28 8.496-35.28 0-63.84-28.592-63.84-63.808 0-35.248 28.576-63.84 63.84-63.84 35.28 0 63.84 28.592 63.84 63.84 0 .064-.016.144-.016.208l173.28 100.048z"/><glyph unicode="" d="M940.736 770.304C912.992 790.272 835.68 816.8 511.728 816.8c-347.152 0-398.656-30.464-415.184-40.432C8.576 723.52.224 489.552-.544 442.112.512 379.456 10.64 170.992 96.48 119.424c16.496-9.936 67.712-40.224 415.248-40.224 324.16 0 401.376 26.4 429.008 46.288 74.976 53.936 83.6 239.68 83.808 317.44-.192 62.528-6.752 271.872-83.808 327.376zm-37.376-592.88c-11.152-8.032-75.184-34.224-391.632-34.224-305.936 0-370.128 23.744-382.256 31.056C98.592 192.784 66 291.136 63.44 442.288c2.528 150.816 35.568 260.912 66.096 279.216 12.16 7.344 76.592 31.28 382.192 31.28 316.192 0 380.4-26.368 391.632-34.432 27.408-19.744 56.752-123.68 57.184-275.632-.432-154.336-29.968-245.712-57.184-265.296zM720.416 473.168L432.48 649.856a32.001 32.001 0 0 1-32.256.464 32.017 32.017 0 0 1-16.288-27.872v-353.44a32.017 32.017 0 0 1 32-32 32.02 32.02 0 0 1 16.528 4.592L720.4 418.352c9.6 5.808 15.472 16.192 15.472 27.408s-5.856 21.632-15.456 27.408zM447.952 325.696v240.096l194-120.032-194-120.064z"/><glyph unicode="" d="M684.4 801.312c52.88 0 100.624-21.632 134.256-56.368 41.84 8.096 81.28 22.848 116.72 43.28-13.712-41.632-42.88-76.56-80.816-98.656 37.12 4.368 72.656 13.904 105.632 28.16-24.72-35.744-55.84-67.216-91.776-92.368.336-7.632.528-15.344.528-23.024 0-235.728-185.008-507.616-523.312-507.616-103.84 0-200.56 29.632-281.904 80.224a377.539 377.539 0 0 1 43.84-2.528c86.16 0 165.504 28.496 228.464 76.4-80.528 1.376-148.496 53.008-171.808 123.84a188.054 188.054 0 0 1 34.624-3.216c16.72 0 33.008 2.16 48.4 6.256-84.128 16.336-147.536 88.448-147.536 174.928v2.288c24.816-13.376 53.152-21.408 83.344-22.336-49.376 32.032-81.84 86.56-81.84 148.464 0 32.72 9.088 63.376 24.912 89.632C216.816 660.8 352.336 589.76 505.216 582.288c-3.152 13.024-4.784 26.784-4.784 40.624 0 98.544 82.352 178.4 183.968 178.4zm275.792-83.616h.16zM684.4 865.312c-125.664 0-229.776-91.808-245.808-210.432-102.816 20.656-196.32 75.088-263.504 154.944a63.992 63.992 0 0 1-48.976 22.816c-1.664 0-3.344-.064-5.024-.192a64.113 64.113 0 0 1-49.776-30.784 237.575 237.575 0 0 1-34.096-122.656c0-28.848 5.184-56.944 15.008-83.216-10.464-11.632-16.496-26.848-16.496-42.912v-2.288c0-62.688 24.784-120.864 65.936-164.464-2.368-10.976-1.84-22.464 1.776-33.472 14.192-43.184 40.032-80.4 73.536-108.752-22.496-5.008-45.712-7.536-69.408-7.536-12.528 0-24.72.688-36.256 2.096-2.56.32-5.088.432-7.632.432-26.88 0-51.28-16.944-60.336-42.784-9.936-28.32 1.088-59.712 26.56-75.568 94.528-58.816 203.712-89.872 315.712-89.872 364.032 0 583.008 284.976 587.264 563.344a429.559 429.559 0 0 1 78.448 85.152 63.39 63.39 0 0 1 12.96 38.496c0 21.776-10.896 41.024-27.488 52.592 7.184 24.624-1.008 51.28-21.008 67.568-11.68 9.504-26 14.336-40.4 14.336a63.751 63.751 0 0 1-31.968-8.56c-21.152-12.192-43.776-21.84-67.6-28.784-43.104 32.432-96.544 50.496-151.424 50.496z"/><glyph unicode="" d="M528.016 896.256V672.384h224.32v-95.968H529.008l-.32-278.528c0-51.776 2.688-85.008 8.16-99.744 8.528-23.248 39.568-53.008 97.184-53.008 44.688 0 104.976 13.44 150.16 47.248V43.072c-37.68-17.968-72.72-25.216-103.248-32.464C650.384 3.392 617.28-.24 581.792-.24c-39.536 0-153.664 1.088-200.496 120.4-8.432 21.472-12.656 52.656-12.656 93.472v362.624H239.792l.624 98.128c42.656 0 170.624 25.904 170.624 221.872h116.976zm0 64H411.04c-35.344 0-64-28.656-64-64 0-146.496-81.632-157.872-106.624-157.872-35.216 0-63.84-28.464-64-63.68l-.624-98.128c-.096-17.024 6.624-33.376 18.624-45.472a64.058 64.058 0 0 1 45.376-18.848h64.848V213.632c0-49.376 5.6-87.632 17.088-116.88 28.848-73.44 97.376-161.008 260.064-161.008 40.288 0 78.592 4.224 113.872 12.56l7.056 1.664c29.872 7.024 68.032 15.776 109.008 35.312a63.979 63.979 0 0 1 36.464 57.776v149.312a63.988 63.988 0 0 1-35.344 57.216c-9.056 4.56-18.88 6.784-28.656 6.784a64.004 64.004 0 0 1-38.336-12.752c-38.096-28.528-86.848-34.496-111.808-34.496-25.6 0-35.12 9.28-37.216 11.744-1.088 5.024-4.128 23.776-4.128 77.008l.224 214.528h159.408c35.344 0 64 28.656 64 64v95.968c0 35.344-28.656 64-64 64h-160.32v159.888c0 35.344-28.656 64-64 64z"/><glyph unicode="" d="M581.76 879.504c3.808 0 6-.16 6-.16h83.568l-.432-96h-83.008c-45.68 0-44.624-39.008-44.624-39.008V592.144h161.632l-22.56-95.872h-139.6V16.496h-95.904l-.064 479.776H319.36l-.256 95.872h127.712v149.184c.016 130.08 108.048 138.176 134.944 138.176zm89.568-.16h.16zm-89.568 64.16c-23.008 0-67.968-3.808-110.56-29.472-40.32-24.256-88.368-73.936-88.368-172.688V656.16H319.12c-17.008 0-33.312-6.784-45.344-18.816a64.004 64.004 0 0 1-18.656-45.408l.256-95.872c.128-35.248 28.752-63.776 64-63.776h63.408l.064-415.776c0-35.344 28.656-64 64-64h95.904c35.344 0 64 28.656 64 64v415.776h75.6c28.4 0 53.408 18.72 61.408 45.968l22.56 95.872c5.68 19.344 1.904 40.256-10.192 56.368a63.91 63.91 0 0 1-51.216 25.664H607.28v63.152l63.632.032c35.216 0 63.84 28.464 64 63.712l.432 92.752c.064 1.184.096 2.336.096 3.536 0 35.344-28.592 64-63.936 64h-81.936c-1.84.096-4.496.16-7.808.16z"/><glyph unicode="" d="M1023.424 735.248a32.045 32.045 0 0 1-14.976 24.912L723.264 938.128c-11.6 7.216-26.432 6.32-37.056-2.288L511.984 794.896 337.792 935.84c-10.592 8.56-25.536 9.536-37.056 2.288L15.552 760.16A32.045 32.045 0 0 1 .576 735.248c-.752-10.224 3.472-20.16 11.312-26.752L177.104 569.68 35.568 458.496c-8.096-6.32-12.624-16.176-12.224-26.416s5.68-19.664 14.224-25.36l130.976-87.312c-6.432-5.84-10.544-14.208-10.544-23.6V167.472c0-11.12 5.776-21.44 15.248-27.28L495.216-42.24c5.12-3.152 10.944-4.72 16.752-4.72s11.632 1.6 16.784 4.752l318.224 182.432a32.012 32.012 0 0 1 15.216 27.248V318c0 2.064-.24 4.08-.608 6.032l124.048 82.688a31.97 31.97 0 0 1 14.224 25.328c.4 10.256-4.096 20.08-12.16 26.416L846.784 569.616l165.312 138.88c7.856 6.592 12.08 16.528 11.328 26.752zM736.672 569.344L511.984 428.56 287.296 569.344l224.688 146.224 224.688-146.224zM86.8 729.152l228.464 142.592L457.632 756.56 230.288 608.592 86.8 729.152zm143.12-199.376l225.968-141.6-128.064-98.032-218 145.312 120.096 94.32zm-7.904-246l89.344-59.568c11.344-7.568 26.32-7.056 37.184 1.216l129.408 99.04v-282.8l-255.936 143.68v98.432zm576.192-98.432L541.952 39.664V327.44l132.656-101.968c5.712-4.4 12.624-6.624 19.504-6.624a31.807 31.807 0 0 1 17.744 5.376l86.336 57.568v-96.448zM913.456 435.52L695.424 290.192l-127.44 97.936 226 141.632 119.472-94.24zM793.664 608.592L566.32 756.56l142.4 115.184 228.464-142.592-143.52-120.56z"/><glyph unicode="" d="M511.984 959.728c-69.856 0-136.464-14.112-197.184-39.568a32.041 32.041 0 0 1-6.144-2.672C127.392 838.672.272 657.936.272 447.984c0-282.16 229.568-511.712 511.712-511.712 282.192 0 511.744 229.568 511.744 511.712 0 282.192-229.552 511.744-511.744 511.744zm447.744-511.744c0-3.584-.192-7.12-.272-10.672-49.024 13.008-173.392 37.44-326.8 3.744-13.52 30.896-28.512 62.576-45.28 94.816-1.408 2.704-2.784 5.28-4.176 7.952 164.128 63.344 233.888 148.672 262.768 201.952 70.688-79.216 113.76-183.552 113.76-297.792zM797.536 792.56c-14.912-35.2-69.04-126-244.72-191.888-78.896 144.224-140.224 230.672-174.592 274.64 42.256 13.264 87.184 20.416 133.76 20.416 108.432 0 207.984-38.768 285.552-103.168zm-481.488 57.92c27.216-33.28 90.384-117.056 175.104-270.448-200-60.288-362.448-53.04-418.832-47.792 26.816 140.144 119.072 257.312 243.728 318.24zM64.272 447.984c0 6.896.208 13.744.528 20.576 19.248-1.936 49.152-4.08 88.288-4.08 86.896 0 217.712 10.752 369.008 58.144a2444.931 2444.931 0 0 0 8.544-16.272c14.432-27.776 27.488-55.184 39.408-82.064-27.376-8.608-55.392-19.072-83.872-31.968-182.624-82.704-268.192-200.704-298.672-252.336-76.272 80.32-123.232 188.752-123.232 308zM236.096 95.76c16.24 30.752 90.608 154.08 276.448 238.256 27.968 12.672 55.52 22.784 82.384 30.912 60.736-154.32 81.808-281.568 88.176-330.592C630.352 12.432 572.576.272 511.984.272c-104.016 0-199.792 35.76-275.888 95.488zm507.52-30.8c-9.232 61.6-32.144 177.392-85.968 315.664 148.448 29.552 265.952.56 295.616-8.08C931.04 242.336 852.528 131.056 743.616 64.96z"/><glyph unicode="" d="M907.952 815.52a63.998 63.998 0 0 1-43.664 17.216c-1.472 0-2.944-.064-4.4-.16-.912-.064-11.184-.688-27.28-.688-26.656 0-78.688 1.808-127.968 13.936-63.664 15.632-137.12 88.16-158.496 102.464a63.955 63.955 0 0 1-35.568 10.784 64.19 64.19 0 0 1-35.536-10.752c-2.592-1.744-79.504-84.032-154.752-102.496C271.04 833.696 218 831.888 191.376 831.888c-16.096 0-26.368.624-27.376.688-1.408.096-2.816.16-4.224.16A64.185 64.185 0 0 1 116 815.456c-12.944-12.096-20.32-29.008-20.32-46.72V608.704C95.68 17.072 482.8-59.104 499.248-62.08c3.744-.656 7.536-1.008 11.312-1.008s7.6.336 11.312 1.008c16.432 2.976 406.4 79.152 406.4 670.784v160.032c.032 17.744-7.344 34.688-20.32 46.784zm-43.648-206.816C864.304 63.792 510.592.928 510.592.928s-350.88 62.88-350.88 607.776v160.032s12.096-.848 31.68-.848c33.568 0 90.032 2.464 144.16 15.776 88.624 21.744 175.024 111.408 175.024 111.408s90.256-89.664 178.784-111.408c54.192-13.312 109.68-15.776 143.248-15.776 19.568 0 31.68.848 31.68.848s.016-20.352.016-160.032zM647.6 613.76c-12.496 12.496-32.768 12.496-45.248 0l-90.512-90.512-90.512 90.512c-12.496 12.496-32.768 12.496-45.264 0s-12.496-32.768 0-45.248L466.576 478l-90.512-90.512c-12.496-12.48-12.496-32.752 0-45.248s32.768-12.496 45.264 0l90.512 90.512 90.512-90.512c12.48-12.496 32.752-12.496 45.248 0s12.496 32.768 0 45.248L557.088 478l90.512 90.512c12.496 12.48 12.496 32.752 0 45.248z"/><glyph unicode="" d="M832.144 960H191.856c-53.024 0-96-42.976-96-96V32c0-53.024 42.976-96 96-96h640.288c53.024 0 96 42.976 96 96v832c0 53.024-42.976 96-96 96zm32-928c0-17.664-14.336-32-32-32H191.856c-17.664 0-32 14.336-32 32v832c0 17.664 14.336 32 32 32h640.288c17.664 0 32-14.336 32-32V32zM512.048 159.824c-35.28 0-63.84-28.592-63.84-63.824s28.56-63.84 63.84-63.84c35.264 0 63.84 28.608 63.84 63.84s-28.576 63.824-63.84 63.824zm64 704.176h-128c-17.664 0-32-14.336-32-32s14.336-32 32-32h128c17.664 0 32 14.336 32 32s-14.336 32-32 32z"/><glyph unicode="" d="M833.056 895.392h-64.464V679.984c0-104.384-56.656-183.36-178.096-245.2C716.56 370.976 769.6 292.624 769.6 175.712c0-76.128-.336-140-.592-175.12h64.064c17.68 0 32-14.288 32-31.968s-14.32-32-32-32H190.944c-17.68 0-32 14.32-32 32s14.32 31.968 32 31.968h65.936c-.24 35.12-.592 99.008-.592 175.12 0 116.912 52.288 195.248 178.144 259.056-121.232 61.84-177.136 140.816-177.136 245.2v215.424h-66.352c-17.68 0-32 14.304-32 32 0 17.664 14.32 31.984 32 31.984h642.128c17.68 0 32-14.32 32-31.984-.016-17.696-14.32-32-32.016-32zm-512.784-719.68c0-76.288.352-140.224.592-175.12H705.04c.224 34.912.592 98.848.592 175.12 0 89.008-33.12 158.032-193.184 224.4-160.016-66.368-192.176-135.392-192.176-224.4zm384.352 719.68h-383.36V679.984c0-61.376 20.64-140.416 191.168-210.528 170.56 70.112 192.192 149.152 192.192 210.528v215.408z"/><glyph unicode="" d="M990.848 263.696V521.84l16.096 8.496c10.464 5.44 17.056 16.224 17.184 28.032.128 11.776-6.256 22.688-16.592 28.368l-481.44 257.6c-9.632 5.28-21.28 5.248-30.976-.096L16.32 586.32C6.128 580.64-.176 569.856-.112 558.16s6.496-22.4 16.816-27.968l210.384-111.984c-2.64-4.656-4.272-9.968-4.272-15.696V131.728c0-9.12 3.904-17.84 10.72-23.904 6.944-6.16 73.44-60.096 276.752-60.096 202.592 0 270.88 50.976 278 56.784 7.44 6.064 11.744 15.152 11.744 24.784v277.728c0 4.496-.944 8.768-2.608 12.64l129.424 68.368V263.52c-18.976-11.104-31.84-31.472-31.84-55.024 0-35.344 28.656-64 64-64s64 28.656 64 64c0 23.696-13.04 44.144-32.16 55.2zM736.032 147.632c-25.152-12.096-91.712-35.904-225.744-35.904-134.88 0-199.936 25.344-223.472 37.536V386.4l207.808-110.624a31.893 31.893 0 0 1 15.184-3.84 31.676 31.676 0 0 1 14.816 3.664l211.408 111.664V147.632zm-225.968 192.56l-411.6 218.56 412.32 220.976 413.6-220.336-414.32-219.2z"/><glyph unicode="" d="M511.984 960.128c-229.216 0-415.68-199.904-415.68-445.6V-32.144c0-13.216 8.16-25.088 20.496-29.84 3.712-1.472 7.632-2.16 11.504-2.16 8.848 0 17.536 3.68 23.712 10.528l120.592 133.12L367.04-50.928a31.917 31.917 0 0 1 25.68-13.216h.224a31.979 31.979 0 0 1 25.664 12.912l94.816 127.344L606.608-51.04a31.99 31.99 0 0 1 25.808-13.088 32.027 32.027 0 0 1 25.808 13.056l95.568 130.288 118-132.624c8.816-9.904 22.944-13.376 35.28-8.624 12.4 4.72 20.624 16.624 20.624 29.904v546.672c0 245.68-186.496 445.584-415.712 445.584zm351.712-908.16l-88.4 99.376c-6.432 7.216-15.808 11.312-25.408 10.688a32.108 32.108 0 0 1-24.32-13.024L632.448 22 539.44 148.912A31.974 31.974 0 0 1 513.76 162h-.128a31.934 31.934 0 0 1-25.664-12.912L393.28 21.936l-92 127.088c-5.664 7.808-14.528 12.656-24.16 13.152-.592.032-1.152.064-1.744.064a31.984 31.984 0 0 1-23.712-10.528L160.288 50.864v463.68c0 210.4 157.776 381.6 351.68 381.6 193.936 0 351.712-171.184 351.712-381.6V51.968zM672 607.84c-35.28 0-63.84-28.592-63.84-63.808 0-35.248 28.56-63.84 63.84-63.84s63.84 28.592 63.84 63.84c0 35.216-28.56 63.808-63.84 63.808zm-320 0c-35.28 0-63.84-28.592-63.84-63.808 0-35.248 28.576-63.84 63.84-63.84s63.84 28.592 63.84 63.84c0 35.216-28.56 63.808-63.84 63.808z"/><glyph unicode="" d="M743.216 884.448c-25.6 12.016-49.808 23.328-71.84 34.384-56.464 28.288-107.664 42.032-156.464 42.032-98.288 0-166.304-56.704-208.96-99.36L99.104 654.432c-110.688-110.8-128.368-223.6-57.264-365.808 11.024-22.08 22.368-46.336 34.368-72.032C140.912 78.208 207.792-64.896 317.264-64.896c3.072 0 6.112.096 9.216.336 112.976 8.848 145.024 154.288 173.312 282.592 4.496 20.32 8.752 39.808 13.12 57.28 7.6 30.208 22.56 48.976 63.552 90.064l5.632 5.664 3.472 3.472 9.12 9.088c41.088 41.088 59.856 56.032 90.096 63.664 17.312 4.352 36.752 8.64 57.024 13.088 128.224 28.304 273.6 60.368 282.4 173.52 8.88 114.832-138.464 183.84-280.992 250.576zm215.248-244.784C952.24 559.888 773.648 536.336 667.36 509.68c-47.008-11.872-75.616-36.752-118.784-79.936-3.008-3.008-6.032-6.016-9.088-9.072-3.024-3.024-6.032-6.096-9.056-9.088-43.168-43.216-68-71.808-79.824-118.88C423.936 186.32 400.416 7.536 320.736 1.264a55.656 55.656 0 0 0-4.32-.144c-84.544 0-155.68 192.24-218.448 317.664-63.744 127.504-36.432 210.224 45.36 292.096 15.696 15.728 35.216 35.248 59.136 59.184a288647.91 288647.91 0 0 0 87.92 88c23.904 23.936 43.408 43.424 59.12 59.184 50.8 50.848 101.936 80.64 163.92 80.64 37.808 0 79.632-11.056 127.872-35.248 127.456-63.904 323.888-136.48 317.168-222.976zm-479.68-30.944h64v64h-64v-64zm0 96h64v64h-64v-64zm96 0h64v64h-64v-64zm0-96h64v64h-64v-64zM329.888 416.56l24.336 24.336c12 12 12 31.472 0 43.456-12 12-31.44 12-43.44 0L286.432 460l-24.352 24.352c-12 12-31.44 12-43.44 0s-12-31.456 0-43.456l24.352-24.352-24.352-24.352c-12-11.984-12-31.44 0-43.44s31.456-12 43.44 0l24.352 24.336 25.056-25.056c12-12 31.44-12 43.44 0s12 31.472 0 43.472l-25.04 25.056z"/><glyph unicode="" d="M508.416-63.28C267.168-63.28 96.048 104 96.048 334.496c0 122.368 73.376 254.192 76.496 259.712 6.368 11.344 18.88 17.504 31.936 16.064a32.052 32.052 0 0 0 26.88-23.568c.192-.752 19.968-74.752 46.064-115.84 17.536-27.648 35.312-47.184 55.312-60.752-13.536 58.656-23.904 146.912-7.024 237.472C372.048 896.16 567.696 955.632 576.08 958.032c10.784 3.088 22.224.32 30.432-7.152 8.192-7.504 11.936-18.752 9.808-29.664-.32-1.744-32.624-175.776 35.936-324.064 6.224-13.472 14.912-29.12 24.256-44.784 2.656 21.504 6.784 44.368 13.12 66.56 25.152 87.968 90.192 118 92.944 119.216 10.848 4.944 23.504 3.312 32.88-4.032a32.06 32.06 0 0 0 11.68-31.008c-.336-2.16-9.408-62.032 41.536-146.944 46-76.672 59.28-126.368 59.28-221.68 0-230.48-176.432-397.76-419.536-397.76zm-312.72 555.6c-17.568-44.304-35.664-103.248-35.664-157.808C160.032 141.104 304.224.736 508.4.736c206 0 355.536 140.368 355.536 333.776 0 83.536-10.32 122.32-50.16 188.752-26.624 44.368-39.776 84.256-46.064 116-6.336-10.256-12.224-22.784-16.528-37.872-19.504-68.192-14.592-147.936-14.528-148.752.944-14.272-7.744-27.472-21.248-32.256s-28.528-.064-36.816 11.664c-2.4 3.408-59.312 83.968-84.4 138.24-52.096 112.592-51.216 234.336-45.904 304.464-52.72-30.72-133.664-99.344-159.664-238.912-25.312-135.808 23.872-271.6 24.4-272.944 4.256-11.088 2-23.664-5.808-32.592-7.84-8.88-19.904-12.816-31.536-10.032-3.968.976-94.032 24.4-152.336 116.288-10.416 16.464-19.76 36.384-27.648 55.76z"/><glyph unicode="" d="M1025.376 308.208c-.976 13.84-53.008 319.312-61.152 368.224-.784 4.688-1.408 9.68-2.096 14.944C955.84 740.528 944.096 832 796.656 832c-17.68 0-32-14.32-32-32s14.32-32 32-32c91.12 0 95.936-37.408 102-84.784.784-6.064 1.536-11.872 2.432-17.28 3.744-22.528 20.704-112.16 35.344-201.024-37.552 28.624-84.288 45.808-135.12 45.808-81.648 0-154.32-43.952-194.272-109.36-19.216 7.264-51.824 16.336-95.392 16.336-42.944 0-74.512-9.136-94.032-17.088-38.848 65.824-110.304 110.128-192.272 110.128-53.264 0-102.736-18.72-141.84-49.84 14.832 89.984 32.4 182.032 36.208 205.024.912 5.408 1.664 11.216 2.432 17.28 6.064 47.376 10.88 84.784 102 84.784 17.68 0 32 14.32 32 32s-14.32 32-32 32c-147.44 0-159.184-91.472-165.472-140.624-.688-5.248-1.312-10.256-2.096-14.944-8.16-48.912-57.008-352.368-57.968-366.224-.224-3.088.144-6.048.752-8.944-.304-4.624-.72-9.216-.72-13.904C-1.36 164 101.984 64 225.328 64s223.344 100 223.344 223.344c0 18.656-2.544 36.672-6.848 53.984 13.12 5.28 36.832 12.336 69.808 12.336 32.176 0 56.464-6.432 70.304-11.328-4.608-17.632-7.328-35.968-7.328-54.992C574.608 164 677.952 64 801.296 64s223.344 100 223.344 223.344c0 3.344-.352 6.608-.496 9.92.976 3.488 1.52 7.136 1.232 10.944zM225.344 128.016c-88.192 0-162.688 72.976-162.688 159.344s74.496 159.344 162.688 159.344c87.872 0 159.344-71.472 159.344-159.344s-71.472-159.344-159.344-159.344zm575.968 0c-88.192 0-162.688 72.976-162.688 159.344s74.496 159.344 162.688 159.344c76 0 139.632-53.488 155.456-124.784.656-6.528 1.2-12.672 1.616-18.288.192-2.688.912-5.216 1.84-7.664.16-2.88.432-5.712.432-8.624 0-87.856-71.472-159.328-159.344-159.328z"/><glyph unicode="" d="M1023.312 486.704c-1.36 11.312-5.616 21.712-12.096 30.464h.16l-.88.88c-3.28 4.32-7.12 8.128-11.408 11.504L581.808 932.96c-36.224 36.224-99.504 36.288-135.776 0L28.816 532.704c-9.024-8.4-28.88-31.088-28.88-53.344V-.16c0-35.184 28.816-64 64-64h896c35.184 0 64 28.816 64 64v478.256c.224 2.88-.064 5.76-.624 8.608zm-753.52-253.04L63.936 44.096V415.28l205.856-181.616zm65.776-26.384c2.288 1.52 4.464 3.248 6.368 5.408.368.416.624.912.96 1.344l141.168 130c7.248 5.84 15.84 8.912 24.88 8.912 9.184 0 18.368-3.216 24.528-8L917.072-.16H110.336l225.232 207.44zm421.888 22.16l202.48 179.696V47.296L757.456 229.44zm-653.68 287.728L491.28 887.712c6.064 6.032 14.096 9.376 22.624 9.376 8.56 0 16.592-3.344 22.656-9.376L897.936 543.36h-.976l54.896-55.792-242.304-215.04-135.248 121.664c-37.68 29.536-91.776 30.816-131.68-1.376L317.12 277.232 75.328 490.576l26.992 26.592h1.456z"/><glyph unicode="" d="M1023.312 486.72c-1.36 11.312-5.616 21.712-12.096 30.464h.16l-.88.88c-3.28 4.32-7.12 8.128-11.408 11.504L831.936 697.952v103.264c0 17.68-14.32 32-32 32H698.608l-116.8 99.712c-36.224 36.224-99.504 36.288-135.776 0l-116.4-99.712H223.936c-17.68 0-32-14.32-32-32V695.84L28.816 532.72c-17.344-11.472-28.88-31.088-28.88-53.344V-.128c0-35.184 28.816-64 64-64h896c35.184 0 64 28.816 64 64v478.24c.224 2.88-.064 5.76-.624 8.608zM268.864 234.496L63.936 44.416v370.896l204.928-180.816zm61.696-30a31.635 31.635 0 0 1 11.376 8.224c1.712 1.936 3.056 4.064 4.224 6.256l137.904 127.936c7.248 5.84 15.84 8.912 24.88 8.912 9.184 0 18.368-3.216 24.528-8L917.312-.112H110l220.56 204.608zm427.776 25.776l201.6 178.896V47.536l-201.6 182.736zm139.6 313.104h-.976l54.896-55.792-119.92-106.432V609.36l66-65.984zM491.28 887.68c6.064 6.032 14.096 9.376 22.624 9.376 8.56 0 16.592-3.344 22.656-9.376l64.624-54.464H426.752l64.528 54.464zm276.656-118.464V324.368l-57.312-50.88-136.32 123.568c-37.68 29.536-91.776 30.816-131.68-1.376L316 278.24l-60.064 53.008v437.968h512zm-664.16-252.032l88.16 88.128V387.696L75.312 490.592l26.992 26.592h1.472z"/><glyph unicode="" d="M905.616 248.112c-37.344 45.424-88.48 109.744-88.48 175.36v208.96c0 180.016-134.64 326.48-306.688 326.48-172.08 0-305.664-146.464-305.664-326.48v-208.96c0-64.512-55.488-125.488-90.672-172.8-31.648-42.512-56.624-76.096-39.76-109.664 14.832-29.536 51.968-33.328 82.656-33.328h183.36c.048-94.208 76.448-170.576 170.672-170.576 94.24 0 170.64 76.368 170.688 170.576h187.664c19.52 0 65.152 0 80.864 33.2 15.856 33.616-9.52 64.512-44.64 107.232zM511.008 4.144c-57.216 0-103.632 46.352-103.712 103.536H614.72C614.64 50.496 568.256 4.144 511.008 4.144zm358.384 171.664H157.008c-4.896 0-8.992.16-12.368.368 6.592 10.208 16.272 23.248 24.144 33.856 38.992 52.4 104.144 126.368 104.144 213.424v208.96c0 142.464 103.04 258.352 237.52 258.352s238.56-115.888 238.56-258.352v-208.96c0-90.016 60.08-165.248 103.968-218.608 7.392-8.992 16.24-19.76 23.12-28.96-2.032-.048-4.272-.08-6.704-.08z"/><glyph unicode="" d="M1021.056 120.032L833.792 466.336c19.104 43.36 29.792 91.28 29.792 141.696 0 194.304-157.52 351.808-351.808 351.808-194.336 0-351.84-157.52-351.84-351.808 0-51.632 11.216-100.624 31.184-144.784L3.024 120.192c-6.064-11.024-5.056-24.624 2.528-34.688 7.6-10.032 20.432-14.752 32.688-11.872l160.624 36.848L253.84-42.64c4.288-11.904 15.152-20.16 27.744-21.088a30.2 30.2 0 0 1 2.368-.096 32.004 32.004 0 0 1 28.192 16.88L475.84 258.032a355.217 355.217 0 0 1 35.92-1.808c11.12 0 22.096.576 32.944 1.6L711.952-47.184a31.985 31.985 0 0 1 30.56-16.528c12.56 1.008 23.376 9.248 27.632 21.088l54.976 153.12 160.624-36.848c12.32-2.976 25.024 1.808 32.624 11.808 7.632 9.984 8.656 23.52 2.688 34.576zm-731.28-73.376l-40.256 112.16c-5.504 15.248-21.472 24.128-37.28 20.368l-118.8-27.248 135.408 246.976c44.592-60.24 107.952-105.68 181.44-127.792L289.776 46.656zm-65.552 561.376c0 158.544 129.008 287.536 287.568 287.536 158.544 0 287.536-128.992 287.536-287.536S670.336 320.464 511.792 320.464c-158.576 0-287.568 129.024-287.568 287.568zm587.52-428.848c-15.872 3.744-31.776-5.12-37.28-20.368L733.936 45.84 610.784 270.4c75.44 22.096 140.336 68.736 185.504 130.736l134.848-249.328-119.392 27.376z"/><glyph unicode="" d="M1021.024 228.592l-82.288 151.296c-.128.208-.096.4-.224.592l-5.872 10.144c-3.28 5.616-8.432 9.232-14.192 10.592-5.696 1.408-11.984.544-17.408-2.976l-9.84-6.336c-.192-.112-.304-.288-.496-.416l-145.6-98.32c-10.88-7.008-14.416-21.68-7.936-32.912l6.544-7.2c6.48-11.184 21.264-11.648 32.16-4.64l87.04 59.184C842.304 141.6 708.176 14.208 543.952-.576v641.6H672c17.664 0 32 14.336 32 32s-14.336 32-32 32H542.56c-.24.832-.448 1.664-.768 2.464 57.104 13.28 99.696 64.368 99.696 125.536 0 71.248-57.744 129.008-129.008 129.008-71.248 0-128.992-57.744-128.992-129.008 0-60.816 42.112-111.664 98.736-125.28-.336-.88-.576-1.808-.848-2.72H352c-17.664 0-32-14.336-32-32s14.336-32 32-32h127.984V-.56c-164.176 14.784-298.16 142.128-318.816 308.112l86.944-59.12c10.88-7.008 25.664-6.544 32.144 4.64l6.56 7.2c6.48 11.216 2.944 25.904-7.952 32.912l-145.6 98.32c-.192.144-.304.32-.48.416l-9.856 6.336a22.155 22.155 0 0 1-17.408 2.976c-5.744-1.36-10.912-4.992-14.192-10.592l-5.872-10.16c-.112-.192-.096-.384-.208-.592L2.976 228.592c-6.496-11.168-2.944-25.872 7.952-32.896l9.12-3.424c10.88-6.992 24.256-.64 30.752 10.544l47.904 88.976C128.08 87.072 303.808-66.032 511.984-66.032c208.064 0 383.92 153.088 413.36 357.712l47.84-88.864c6.496-11.184 19.888-17.536 30.768-10.544l9.12 3.424c10.896 7.024 14.448 21.728 7.952 32.896zm-573.52 604.432c0 35.84 29.152 65.008 64.992 65.008s65.008-29.152 65.008-65.008-29.152-65.008-65.008-65.008c-35.824.016-64.992 29.168-64.992 65.008z"/><glyph unicode="" d="M1023.648 669.52c.464 23.664-5.904 78.848-77.84 98.064L223.392 912.208c-52.944 0-96-43.056-96-96V687.504l-32 .08C42.64 687.36-.24 644.432-.24 591.616V79.808c0-52.944 43.056-96 96-96h832.464c52.944 0 96 43.056 96 96l-.576 589.712zM191.392 816.208c0 16.72 12.88 30.464 29.216 31.872l706-142.88c.256-.128-5.248-17.936-30.88-17.6H191.392v128.608zM960.24 79.792c0-17.664-14.336-32-32-32H95.76c-17.664 0-32 14.336-32 32v511.824c0 17.664 14.336 32 32 32h800.064c31.408 0 64.4 10.704 64.4 31.888V79.792zM191.824 399.504c-35.344 0-64-28.656-64-64s28.656-64 64-64 64 28.656 64 64-28.656 64-64 64z"/><glyph unicode="" d="M992 288h-32.272v1.616c0 161.92-86.528 303.808-215.664 382.384H904.88c11.088-19.04 31.504-32 55.12-32 35.344 0 64 28.656 64 64s-28.656 64-64 64c-23.632 0-44.032-12.96-55.12-32H608v32c0 17.664-14.336 32-32 32H448c-17.664 0-32-14.336-32-32v-32H119.12c-11.088 19.04-31.488 32-55.12 32-35.344 0-64-28.656-64-64s28.656-64 64-64c23.632 0 44.032 12.96 55.12 32h160.8C150.784 593.408 64.272 451.536 64.272 289.616V288H32c-17.664 0-32-14.336-32-32V128c0-17.664 14.336-32 32-32h128c17.664 0 32 14.336 32 32v128c0 17.664-14.336 32-32 32h-31.728v1.616c0 178.448 122.464 328.672 287.728 371.392V640c0-17.664 14.336-32 32-32h128c17.664 0 32 14.336 32 32v21.008c165.264-42.736 287.728-192.96 287.728-371.392V288H864c-17.664 0-32-14.336-32-32V128c0-17.664 14.336-32 32-32h128c17.664 0 32 14.336 32 32v128c0 17.664-14.336 32-32 32zM128 160H64v64h64v-64zm416 512h-64v64h64v-64zm416-512h-64v64h64v-64z"/><glyph unicode="" d="M960 896.4H64c-35.344 0-64-28.656-64-64V254.896c0-35.344 28.656-64 64-64h127.536V31.584A31.968 31.968 0 0 1 211.168 2.08c4-1.68 8.224-2.496 12.368-2.496a31.933 31.933 0 0 1 22.432 9.184l185.024 182.128H960c35.344 0 64 28.656 64 64V832.4c0 35.344-28.656 64-64 64zm0-641.488H404.784L255.536 108v146.912H64V832.4h896V254.912zm-736 256.08h576c17.664 0 32 14.336 32 32s-14.336 32-32 32H224c-17.664 0-32-14.336-32-32s14.336-32 32-32zm0 128h576c17.664 0 32 14.336 32 32s-14.336 32-32 32H224c-17.664 0-32-14.336-32-32s14.336-32 32-32zm0-256h384c17.664 0 32 14.336 32 32s-14.336 32-32 32H224c-17.664 0-32-14.336-32-32s14.336-32 32-32z"/><glyph unicode="" d="M952.736 705.072h-120.72V959.52H191.984V705.072H71.264c-39.312 0-71.312-32-71.312-71.344V199.84c0-39.344 32-71.344 71.312-71.344h120.72V-63.52h640.032v192.016h120.72c39.312 0 71.312 32 71.312 71.344v433.888c0 39.344-32 71.344-71.312 71.344zm-696.752 191.44h512.032v-191.44H255.984v191.44zM768.016.48H255.984v352.4h512.032V.48zm192.032 199.36c0-4.08-3.28-7.344-7.312-7.344h-120.72V416.88H191.984V192.512H71.264c-4.032 0-7.312 3.264-7.312 7.344v433.872c0 4.064 3.28 7.344 7.312 7.344h881.472c4.032 0 7.312-3.28 7.312-7.344V199.84zM832 576.56h-32c-17.664 0-32-14.336-32-32s14.336-32 32-32h32c17.664 0 32 14.336 32 32s-14.336 32-32 32z"/><glyph unicode="" d="M1024 639.504c0 35.344-28.656 64-64 64H850.752c28.272 27.888 46.368 64.448 46.368 109.472 0 55.44-31.84 115.664-121.216 115.664-117.6 0-215.84-125.216-262-195.408-46.192 70.176-147.44 195.392-265.024 195.392-89.376 0-121.216-60.224-121.216-115.664 0-45.008 18.592-81.584 47.44-109.472H64c-35.344 0-64-28.656-64-64V447.92h64.56V31.36c0-35.344 28.656-64 64-64h767.68c35.344 0 64 28.656 64 64v416.576H1024v191.568zm-248.096 225.12c39.568 0 57.216-16.624 57.216-51.664 0-71.088-79.344-109.44-153.968-109.44H570.816c45.472 67.536 125.504 161.104 205.088 161.104zm-527.024 0c79.6 0 162.656-93.568 208.128-161.088H348.64c-74.624 0-156.976 39.344-156.976 110.432 0 35.024 17.648 50.656 57.216 50.656zM960 511.936H544v127.568h416V511.936zM64 639.504h416V511.936H64v127.568zm64.56-191.568H480V31.376H128.56v416.56zm767.696-416.56H544v416.56h352.256V31.376z"/><glyph unicode="" d="M33.76 896.24h448c17.664 0 32 14.336 32 32s-14.336 32-32 32h-448c-17.664 0-32-14.336-32-32s14.32-32 32-32zm0-192h448c17.664 0 32 14.336 32 32s-14.336 32-32 32h-448c-17.664 0-32-14.336-32-32s14.32-32 32-32zm480-160c0 17.664-14.336 32-32 32h-448c-17.664 0-32-14.336-32-32s14.336-32 32-32h448c17.664 0 32 14.336 32 32zm499.12 91.216L699.968 948.352c-9.904 9.92-24.656 11.84-36.592 6.016-12.544-4.336-21.616-16.112-21.616-30.128v-708.4c-33.92 25.136-78.432 40.528-127.376 40.528-106.064 0-192.096-71.776-192.096-160.288 0-88.528 86.032-160.336 192.096-160.336 106.128 0 192.096 71.808 192.096 160.336 0 4.016-.368 7.936-.72 11.872v744.096L967.6 590.192c12.496-12.496 32.768-12.496 45.264 0s12.496 32.768.016 45.264zM641.76 92.976C639.456 48.48 587.568.16 513.632.16 437.984.16 385.28 50.72 385.28 96.032c0 45.344 52.704 95.84 128.352 95.84 73.936 0 125.824-48.256 128.128-92.784v-6.112z"/></font>
</defs>
</svg>
