<svg width="48" height="48" viewBox="0 0 48 48" fill="none" xmlns="http://www.w3.org/2000/svg"><rect x="4.5" y="11.5" width="31" height="32" rx=".5" fill="#F7F7F7" class="gv-fill-gray" stroke="currentColor"/><path stroke="currentColor" d="M4 19.5h32M4 27.5h32"/><path stroke="currentColor" stroke-linecap="round" d="M8.5 15.5h4M8.5 23.5h4M8.5 31.5h4M8.5 39.5h4"/><path stroke="currentColor" d="M4 35.5h32"/><path d="M33 25.5c5.799 0 10.5-4.701 10.5-10.5S38.799 4.5 33 4.5 22.5 9.201 22.5 15 27.201 25.5 33 25.5Z" fill="#ADC4F2" class="gv-fill-300" stroke="currentColor" stroke-miterlimit="1.5" stroke-linecap="square"/><path d="M28.646 18.646a.5.5 0 0 0 .708.708l-.708-.708ZM37.5 11a.5.5 0 0 0-.5-.5h-4.5a.5.5 0 0 0 0 1h4v4a.5.5 0 0 0 1 0V11Zm-8.146 8.354 8-8-.708-.708-8 8 .708.708Z" fill="#141414" class="gv-fill-line"/></svg>