<svg width="48" height="48" viewBox="0 0 48 48" fill="none" xmlns="http://www.w3.org/2000/svg"><path d="M19 31h10v7H19v-7Z" fill="#fff" class="gv-fill-bg" stroke="currentColor" stroke-miterlimit="1.5"/><path d="M17 38h14" stroke="currentColor" stroke-miterlimit="1.5" stroke-linecap="round"/><path d="M4.5 8a.5.5 0 0 1 .5-.5h38a.5.5 0 0 1 .5.5v26a.5.5 0 0 1-.5.5H5a.5.5 0 0 1-.5-.5V8Z" fill="#fff" class="gv-fill-bg" stroke="currentColor" stroke-miterlimit="1.5"/><mask id="path-4-inside-1_5147_1981" fill="#fff" class="gv-fill-bg"><path fill-rule="evenodd" clip-rule="evenodd" d="M13.613 12.647c-2.15 2.197-2.15 5.76 0 7.957l2.597 2.652 7.433 7.592a.5.5 0 0 0 .714 0l10.03-10.244c2.15-2.197 2.15-5.759 0-7.956a5.427 5.427 0 0 0-7.79 0l-2.24 2.287a.5.5 0 0 1-.714 0l-2.24-2.288a5.427 5.427 0 0 0-7.79 0Z"/></mask><path fill-rule="evenodd" clip-rule="evenodd" d="M13.613 12.647c-2.15 2.197-2.15 5.76 0 7.957l2.597 2.652 7.433 7.592a.5.5 0 0 0 .714 0l10.03-10.244c2.15-2.197 2.15-5.759 0-7.956a5.427 5.427 0 0 0-7.79 0l-2.24 2.287a.5.5 0 0 1-.714 0l-2.24-2.288a5.427 5.427 0 0 0-7.79 0Z" fill="#DCE6FA" class="gv-fill-200"/><path d="m13.613 20.604-.714.7.714-.7Zm0-7.957-.714-.7.714.7Zm20.774 7.957-.715-.7.715.7Zm0-7.956-.715.7.715-.7Zm-7.79 0-.715-.7.715.7Zm-5.194 0 .715-.7-.715.7Zm2.24 18.2-.715.7.715-.7Zm.714 0-.714-.7.714.7Zm0-15.913-.714-.7.715.7Zm-8.147 8.321-.714.7.714-.7Zm0 0-.714.7.714-.7Zm-1.882-3.352c-1.77-1.808-1.77-4.749 0-6.557l-1.43-1.4c-2.53 2.587-2.53 6.77 0 9.356l1.43-1.399Zm2.597 2.652-2.597-2.652-1.43 1.4 2.598 2.652 1.429-1.4Zm7.432 7.592-7.432-7.591-1.43 1.399 7.433 7.591 1.43-1.399Zm9.315-10.243-10.03 10.243 1.43 1.4 10.03-10.244-1.43-1.4Zm0-6.558c1.77 1.809 1.77 4.75 0 6.558l1.43 1.399c2.531-2.586 2.531-6.77 0-9.356l-1.43 1.4Zm-6.36 0a4.427 4.427 0 0 1 6.36 0l1.43-1.399a6.427 6.427 0 0 0-9.22 0l1.43 1.4Zm-2.24 2.287 2.24-2.287-1.43-1.399-2.239 2.287 1.43 1.4Zm-4.383-2.287 2.24 2.287 1.429-1.399-2.24-2.287-1.43 1.399Zm-6.361 0a4.427 4.427 0 0 1 6.36 0l1.43-1.4a6.427 6.427 0 0 0-9.22 0l1.43 1.4Zm8.6 18.2a1.5 1.5 0 0 0 2.144 0l-1.43-1.399a.5.5 0 0 1 .715 0l-1.429 1.4Zm.715-17.312a.5.5 0 0 1 .715 0l-1.43 1.4a1.5 1.5 0 0 0 2.144 0l-1.429-1.4Zm-8.148 8.322a1 1 0 0 0 0 1.399l1.43-1.4a1 1 0 0 1 0 1.4l-1.43-1.399Zm0 1.399a1 1 0 0 1 0-1.399l1.43 1.398a1 1 0 0 0 0-1.399l-1.43 1.4Z" fill="#141414" class="gv-fill-line" mask="url(#path-4-inside-1_5147_1981)"/><path d="M17 20.273h2.852a.5.5 0 0 0 .487-.389l.318-1.389a.5.5 0 0 1 .947-.085l1.891 4.412a.5.5 0 0 0 .931-.03l2.068-5.857a.5.5 0 0 1 .95.02l.902 2.963a.5.5 0 0 0 .478.355H31.5" stroke="currentColor" stroke-linecap="round"/><path d="m7.47 39.746.33-.617a2.863 2.863 0 0 0 .33-1.572c-.067-.893-.17-2.308-.24-3.25a2.853 2.853 0 0 1 .45-1.763l1.809-2.8a1.51 1.51 0 0 1 2.025-.477l3.715-6.434c.151-.262.402-.454.696-.532.295-.077.61-.034.875.12.552.318.744 1.02.428 1.566-1.039 1.8-3.626 6.24-3.626 6.24.344-.596 1.11-1.905 2.212-1.269.602.348.81 1.112.466 1.708-.032.057.109.184.169.158.35-.148.767-.135 1.125.071.603.348.811 1.112.467 1.708-.034.059.114.193.177.168a1.262 1.262 0 0 1 1.108.076c.575.332.793 1.045.51 1.628l-.113.201-2.476 4.29c-.249.43-.562.823-.93 1.159l-1.96 1.801c-.214.2-.399.426-.546.681l-.511.886" fill="#fff" class="gv-fill-bg"/><path d="m7.47 39.746.33-.617a2.863 2.863 0 0 0 .33-1.572c-.067-.893-.17-2.308-.24-3.25a2.853 2.853 0 0 1 .45-1.763l1.809-2.8a1.51 1.51 0 0 1 2.025-.477m0 0 3.715-6.434c.151-.262.402-.454.696-.532.295-.077.61-.034.875.12.552.318.744 1.02.428 1.566-1.039 1.8-3.626 6.24-3.626 6.24.344-.596 1.11-1.905 2.212-1.269.602.348.81 1.112.466 1.708-.032.057.109.184.169.158.35-.148.767-.135 1.125.071.603.348.811 1.112.467 1.708-.034.059.114.193.177.168a1.262 1.262 0 0 1 1.108.076c.575.332.793 1.045.51 1.628l-.113.201-2.476 4.29c-.249.43-.562.823-.93 1.159l-1.96 1.801c-.214.2-.399.426-.546.681l-.511.886m-1.786-14.226-1.763 3.014" stroke="currentColor" stroke-miterlimit="1.5" stroke-linejoin="round"/></svg>