<svg width="48" height="48" viewBox="0 0 48 48" fill="none" xmlns="http://www.w3.org/2000/svg"><path d="M20 35a1 1 0 0 1 1-1h6a1 1 0 0 1 1 1v4a1 1 0 0 1-1 1h-6a1 1 0 0 1-1-1v-4Z" fill="#fff" class="gv-fill-bg" stroke="currentColor" stroke-miterlimit="1.5" stroke-linejoin="round"/><path d="M17 40h14" stroke="currentColor" stroke-miterlimit="1.5" stroke-linecap="round"/><path d="M4 9a1 1 0 0 1 1-1h38a1 1 0 0 1 1 1v26a1 1 0 0 1-1 1H5a1 1 0 0 1-1-1V9Z" fill="#fff" class="gv-fill-bg" stroke="currentColor" stroke-miterlimit="1.5"/><path d="M10 5a3 3 0 0 0 3 3 3 3 0 0 0-3 3 3 3 0 0 0-3-3 3 3 0 0 0 3-3Z" fill="#fff" class="gv-fill-bg" stroke="currentColor" stroke-miterlimit="1.5" stroke-linecap="round" stroke-linejoin="round"/><path d="M30.327 22.742a.5.5 0 0 0-.454-.158L13.38 25.349a.5.5 0 0 0-.289.828l4.581 5.08a.5.5 0 0 0 .454.16L34.62 28.65a.5.5 0 0 0 .289-.828l-4.581-5.08.369-.334-.37.333Z" fill="#DCE6FA" class="gv-fill-200" stroke="currentColor" stroke-miterlimit="1.5"/><path d="M30.327 17.742a.5.5 0 0 0-.454-.158L13.38 20.349a.5.5 0 0 0-.289.828l4.581 5.08a.5.5 0 0 0 .454.16L34.62 23.65a.5.5 0 0 0 .289-.828l-4.581-5.08.369-.334-.37.333Z" fill="#fff" class="gv-fill-bg" stroke="currentColor" stroke-miterlimit="1.5"/><path d="M30.327 12.742a.5.5 0 0 0-.454-.158L13.38 15.349a.5.5 0 0 0-.289.828l4.581 5.08a.5.5 0 0 0 .454.16L34.62 18.65a.5.5 0 0 0 .289-.828l-4.581-5.08.369-.334-.37.333Z" fill="#E3F7FD" class="gv-fill-100" stroke="currentColor" stroke-miterlimit="1.5"/><path d="M37.482 41.29a.5.5 0 0 1-.818-.328l-.792-7.206a.5.5 0 0 1 .793-.458l5.844 4.289a.5.5 0 0 1-.124.872l-1.089.4a.5.5 0 0 0-.26.719l1.17 2.026a.5.5 0 0 1-.184.683l-1.044.603a.5.5 0 0 1-.683-.183l-1.17-2.026a.5.5 0 0 0-.754-.134l-.89.744Z" fill="#fff" class="gv-fill-bg" stroke="currentColor" stroke-miterlimit="1.5" stroke-linecap="round" stroke-linejoin="round"/></svg>