<svg width="604" height="281" viewBox="0 0 604 281" fill="none" xmlns="http://www.w3.org/2000/svg">
<g clip-path="url(#clip0_9792_16313)">
<rect width="604" height="280" transform="translate(0 0.5)" fill="#F7F7F7"/>
<mask id="path-1-inside-1_9792_16313" fill="white">
<rect x="164" y="33.5" width="275.502" height="209" rx="1"/>
</mask>
<rect x="164" y="33.5" width="275.502" height="209" rx="1" fill="white" stroke="#141414" stroke-width="2.6" stroke-miterlimit="1.5" mask="url(#path-1-inside-1_9792_16313)"/>
<path d="M202.234 55.5C204.538 55.5 206.405 53.7091 206.405 51.5C206.405 49.2909 204.538 47.5 202.234 47.5C199.93 47.5 198.062 49.2909 198.062 51.5C198.062 53.7091 199.93 55.5 202.234 55.5Z" fill="white" stroke="#141414" stroke-miterlimit="1.5" stroke-linecap="square"/>
<path d="M185.203 55.5C187.507 55.5 189.374 53.7091 189.374 51.5C189.374 49.2909 187.507 47.5 185.203 47.5C182.899 47.5 181.031 49.2909 181.031 51.5C181.031 53.7091 182.899 55.5 185.203 55.5Z" fill="white" stroke="#141414" stroke-miterlimit="1.5" stroke-linecap="square"/>
<path d="M407.446 92.9995L200.064 92.9995C199.788 92.9995 199.564 92.7756 199.564 92.4995L199.564 77.4995C199.564 77.2234 199.788 76.9995 200.064 76.9995L407.446 76.9995C407.722 76.9995 407.946 77.2234 407.946 77.4995L407.946 92.4995C407.946 92.7757 407.722 92.9995 407.446 92.9995Z" fill="#A6D0EC" stroke="#141414" stroke-miterlimit="1.5" stroke-linecap="square"/>
<path d="M247.154 204L200.064 204C199.788 204 199.564 203.776 199.564 203.5L199.564 101.5C199.564 101.224 199.788 101 200.064 101L247.154 101C247.43 101 247.654 101.224 247.654 101.5L247.654 203.5C247.654 203.776 247.43 204 247.154 204Z" fill="#EBF5DF" stroke="#141414" stroke-miterlimit="1.5" stroke-linecap="square"/>
<path d="M407.446 203.85L256.166 203.85C255.973 203.85 255.816 203.693 255.816 203.5L255.816 101.5C255.816 101.306 255.973 101.15 256.166 101.15L407.446 101.15C407.639 101.15 407.796 101.306 407.796 101.5L407.796 203.5C407.796 203.693 407.639 203.85 407.446 203.85Z" stroke="#141414" stroke-width="1.3" stroke-miterlimit="1.5" stroke-linecap="square"/>
<path d="M294.236 110H387.41C387.686 110 387.91 110.224 387.91 110.5V213.104C387.91 213.381 387.686 213.604 387.41 213.604H294.236C293.96 213.604 293.736 213.381 293.736 213.104V110.5C293.736 110.224 293.96 110 294.236 110Z" fill="#F7F7F7" stroke="#141414" stroke-miterlimit="1.5" stroke-linecap="square"/>
<path d="M303.832 119.503H377.971C378.247 119.503 378.471 119.727 378.471 120.003V194.003C378.471 194.279 378.247 194.503 377.971 194.503H303.832C303.556 194.503 303.332 194.279 303.332 194.003V120.003C303.332 119.727 303.556 119.503 303.832 119.503Z" fill="white" stroke="#141414" stroke-miterlimit="1.5" stroke-linecap="square"/>
<path d="M350.419 147.5C355.675 147.5 359.936 143.247 359.936 138C359.936 132.754 355.675 128.5 350.419 128.5C345.162 128.5 340.901 132.754 340.901 138C340.901 143.247 345.162 147.5 350.419 147.5Z" fill="white" stroke="#141414" stroke-miterlimit="1.5" stroke-linecap="square"/>
<path d="M303.75 148.5C303.75 147.948 304.198 147.498 304.75 147.521C310.659 147.767 316.281 150.19 320.511 154.345C324.054 157.822 328.475 162.174 332.601 166.231C340.787 174.272 351.822 178.78 363.329 178.78H376.75C377.302 178.78 377.75 179.228 377.75 179.78V193.5C377.75 194.052 377.302 194.5 376.75 194.5H304.75C304.198 194.5 303.75 194.052 303.75 193.5V148.5Z" fill="#141414" stroke="#141414" stroke-miterlimit="1.5" stroke-linecap="square" stroke-linejoin="round"/>
<circle cx="370.915" cy="207.997" r="4.18782" transform="rotate(-30 370.915 207.997)" fill="white" stroke="#141414"/>
<circle cx="376.816" cy="201.342" r="4.18782" transform="rotate(-30 376.816 201.342)" fill="white" stroke="#141414"/>
<circle cx="384.827" cy="198.341" r="4.18782" transform="rotate(-30 384.827 198.341)" fill="white" stroke="#141414"/>
<circle cx="394.009" cy="197.369" r="4.18782" transform="rotate(-30 394.009 197.369)" fill="white" stroke="#141414"/>
<path d="M403.757 205.815L398.015 195.869L368.784 212.745L374.527 222.692L373.821 225.189C372.399 230.22 375.366 235.442 380.416 236.795L386.421 238.404C390.023 239.37 393.862 238.864 397.092 236.999L403.415 233.349C410.141 229.465 412.446 220.864 408.562 214.138L403.757 205.815Z" fill="white" stroke="#141414"/>
<rect x="367.667" y="209.872" width="7.50051" height="10.3132" transform="rotate(-30 367.667 209.872)" fill="white"/>
<path d="M373.568 203.217L380.064 199.467L385.455 208.804L378.959 212.554L373.568 203.217Z" fill="white"/>
<path d="M381.579 200.216L388.074 196.466L392.762 204.585L386.267 208.335L381.579 200.216Z" fill="white"/>
<path d="M390.761 199.245L394.009 197.369L397.257 195.494L400.539 201.178L394.043 204.928L390.761 199.245Z" fill="white"/>
<path d="M381.759 201.465L386.798 210.194" stroke="#141414"/>
<path d="M374.451 205.684L379.491 214.413" stroke="#141414"/>
<path d="M367.144 209.903L378.277 229.187" stroke="#141414"/>
<path d="M388.363 196.028L394.106 205.975" stroke="#141414"/>
</g>
<defs>
<clipPath id="clip0_9792_16313">
<rect width="604" height="280" fill="white" transform="translate(0 0.5)"/>
</clipPath>
</defs>
</svg>
