<svg width="48" height="48" viewBox="0 0 48 48" fill="none" xmlns="http://www.w3.org/2000/svg">
<path d="M29.3517 24.6364C28.6138 24.6364 27.9005 24.1937 27.5561 23.505L26.9658 22.1768H21.1119L20.5215 23.505C20.1772 24.1937 19.4885 24.6364 18.726 24.6364H18.4062L20.9151 43.7233C21.0381 44.0922 21.284 44.0922 21.407 43.7233L23.8913 37.6233L26.0558 43.6987C26.1787 44.0676 26.4247 44.0676 26.5477 43.6987L29.4501 24.661L29.3517 24.6364Z" fill="url(#paint0_linear_2225_27888)"/>
<path d="M26.745 21.6602H21.3584L20.5467 23.5049C20.2762 24.0706 19.7104 24.4642 19.1201 24.5871L21.014 36.3442C21.137 36.5656 21.383 36.5656 21.506 36.3442L23.941 32.6548L26.1547 36.3196C26.3023 36.541 26.5237 36.541 26.6466 36.3196L28.7865 24.5379C28.27 24.3904 27.8027 24.0214 27.5321 23.5049L26.745 21.6602Z" fill="url(#paint1_linear_2225_27888)"/>
<path d="M27.581 23.5051L24.0637 15.6343L20.5464 23.5051C20.4235 23.7265 20.2759 23.9479 20.0791 24.1201L21.5303 31.9417C21.6041 32.0401 21.8009 32.0893 21.9484 31.9417L23.9161 29.3345L25.8839 31.9171C26.0068 32.0647 26.2282 32.0401 26.302 31.9171L27.9254 23.9971C27.7778 23.8495 27.6548 23.7019 27.581 23.5051Z" fill="url(#paint2_linear_2225_27888)"/>
<path opacity="0.5" d="M27.581 23.5051L24.0637 15.6343L20.5464 23.5051C20.4235 23.7265 20.2759 23.9479 20.0791 24.1201L21.5303 31.9417C21.6041 32.0401 21.8009 32.0893 21.9484 31.9417L23.9161 29.3345L25.8839 31.9171C26.0068 32.0647 26.2282 32.0401 26.302 31.9171L27.9254 23.9971C27.7778 23.8495 27.6548 23.7019 27.581 23.5051Z" fill="url(#paint3_linear_2225_27888)"/>
<path d="M12.7741 4.91007C12.6757 4.54112 12.8725 4.27056 13.266 4.27056H16.3652C16.5865 4.27056 16.7833 4.46733 16.8571 4.63951L19.12 13.568H19.2184L23.3014 4.29516C23.3752 4.14758 23.5227 4 23.7441 4H24.236C24.4574 4 24.6296 4.12298 24.6788 4.29516L28.7618 13.568H28.8602L31.1231 4.63951C31.1722 4.44274 31.3936 4.27056 31.615 4.27056H34.7141C35.0831 4.27056 35.2799 4.54112 35.2061 4.91007L30.213 22.6441C30.1638 22.8655 29.9424 23.0131 29.7211 23.0131H29.3029C29.1061 23.0131 28.934 22.8901 28.8602 22.7179L24.0147 11.9201H23.9409L19.1446 22.7179C19.0708 22.8655 18.874 23.0131 18.7018 23.0131H18.2837C18.0623 23.0131 17.8656 22.8655 17.7918 22.6441L12.7741 4.91007Z" fill="#F56640"/>
<defs>
<linearGradient id="paint0_linear_2225_27888" x1="23.9487" y1="43.9741" x2="23.9487" y2="29.2778" gradientUnits="userSpaceOnUse">
<stop stop-color="#F56640"/>
<stop offset="0.2439" stop-color="#F57840"/>
<stop offset="1" stop-color="#FFBE54"/>
</linearGradient>
<linearGradient id="paint1_linear_2225_27888" x1="23.9726" y1="36.2659" x2="23.9726" y2="24.4797" gradientUnits="userSpaceOnUse">
<stop stop-color="#F56640"/>
<stop offset="0.1811" stop-color="#F57840"/>
<stop offset="1" stop-color="#FFBE54"/>
</linearGradient>
<linearGradient id="paint2_linear_2225_27888" x1="23.9795" y1="33.7442" x2="23.9795" y2="11.4585" gradientUnits="userSpaceOnUse">
<stop stop-color="#F56640"/>
<stop offset="0.0837881" stop-color="#F57840"/>
<stop offset="1" stop-color="#FFBE54"/>
</linearGradient>
<linearGradient id="paint3_linear_2225_27888" x1="23.9795" y1="29.4728" x2="23.9795" y2="15.6338" gradientUnits="userSpaceOnUse">
<stop stop-color="#F56640"/>
<stop offset="0.3911" stop-color="#F57840"/>
<stop offset="1" stop-color="#FFBE54"/>
</linearGradient>
</defs>
</svg>
