<svg width="72" height="72" viewBox="0 0 72 72" fill="none" xmlns="http://www.w3.org/2000/svg">
<rect x="4.5" y="10.5" width="63" height="45" fill="white" stroke="#3C3C3C" stroke-miterlimit="1.5" stroke-linecap="square"/>
<path d="M13.5 17C13.5 17.8284 12.8284 18.5 12 18.5C11.1716 18.5 10.5 17.8284 10.5 17C10.5 16.1716 11.1716 15.5 12 15.5C12.8284 15.5 13.5 16.1716 13.5 17Z" fill="white" stroke="#3C3C3C" stroke-miterlimit="1.5" stroke-linecap="square"/>
<path d="M19.5 17C19.5 17.8284 18.8284 18.5 18 18.5C17.1716 18.5 16.5 17.8284 16.5 17C16.5 16.1716 17.1716 15.5 18 15.5C18.8284 15.5 19.5 16.1716 19.5 17Z" fill="white" stroke="#3C3C3C" stroke-miterlimit="1.5" stroke-linecap="square"/>
<circle cx="36" cy="35.5" r="15" fill="#FFF3E6" stroke="#3C3C3C" stroke-miterlimit="1.5" stroke-linecap="round" stroke-linejoin="round"/>
<path d="M36 39L36 27" stroke="#3C3C3C"/>
<path d="M36 44L36 41" stroke="#3C3C3C"/>
<path d="M56.7919 62.3066C56.7919 62.3066 56.585 61.9745 56.3667 61.6224C56.0359 61.0886 55.5625 60.66 55.0006 60.3849C54.0807 59.9332 52.6256 59.2137 51.6573 58.7369C51.0152 58.4207 50.4925 57.9067 50.167 57.2712C49.6897 56.3401 48.9622 54.9235 48.4167 53.8611C47.9961 53.0414 48.2889 52.0414 49.0799 51.5847C49.0799 51.5847 46.1502 46.5105 44.8078 44.1853C44.6337 43.8837 44.5847 43.5249 44.6733 43.1891C44.762 42.8533 44.9811 42.5675 45.2806 42.3946C45.9049 42.0341 46.7047 42.2516 47.0678 42.8805C48.2623 44.9495 50.669 49.1115 50.669 49.1115C50.273 48.4256 50.5035 47.5526 51.1843 47.1595C51.8651 46.7665 52.7364 47.0034 53.1324 47.6892L53.4511 48.2413C53.2327 47.6086 53.4846 46.8901 54.0835 46.5444C54.7643 46.1513 55.6356 46.3882 56.0316 47.0741L56.3618 47.6461C56.1434 47.0133 56.3937 46.292 56.9926 45.9463C57.6423 45.5711 58.4687 45.7694 58.8852 46.3865L59.0212 46.6154C59.0212 46.6154 60.4161 49.0316 61.8686 51.5474C62.1545 52.0426 62.367 52.5802 62.4928 53.1374C62.695 54.0225 63.0066 55.3907 63.1738 56.1176C63.2501 56.4454 63.3709 56.759 63.5401 57.0521C63.7882 57.4818 64.1283 58.0709 64.1283 58.0709" fill="white"/>
<path d="M56.7919 62.3066C56.7919 62.3066 56.585 61.9745 56.3667 61.6224C56.0359 61.0886 55.5625 60.66 55.0006 60.3849C54.0807 59.9332 52.6256 59.2137 51.6573 58.7369C51.0152 58.4207 50.4925 57.9067 50.167 57.2712C49.6897 56.3401 48.9622 54.9235 48.4166 53.8611C47.9961 53.0414 48.2889 52.0414 49.0799 51.5847M49.0799 51.5847C49.0799 51.5847 46.1502 46.5105 44.8078 44.1853C44.6337 43.8837 44.5847 43.5249 44.6733 43.1891C44.762 42.8533 44.9811 42.5675 45.2806 42.3946C45.9049 42.0341 46.7047 42.2516 47.0678 42.8805C48.2623 44.9495 50.669 49.1115 50.669 49.1115C50.273 48.4256 50.5035 47.5526 51.1843 47.1595C51.8651 46.7665 52.7364 47.0034 53.1324 47.6892L53.4511 48.2413C53.2327 47.6086 53.4846 46.8901 54.0835 46.5444C54.7643 46.1513 55.6356 46.3882 56.0316 47.0741L56.3618 47.6461C56.1434 47.0133 56.3937 46.292 56.9926 45.9463C57.6423 45.5711 58.4687 45.7694 58.8852 46.3865L59.0212 46.6154C59.0212 46.6154 60.4161 49.0316 61.8686 51.5474C62.1545 52.0426 62.367 52.5802 62.4928 53.1374C62.695 54.0225 63.0066 55.3908 63.1738 56.1176C63.2501 56.4454 63.3709 56.759 63.5401 57.0521C63.7882 57.4818 64.1283 58.0709 64.1283 58.0709M49.0799 51.5847L50.8361 54.6266" stroke="#3C3C3C" stroke-miterlimit="1.5"/>
</svg>
